<svg xmlns="http://www.w3.org/2000/svg" xmlns:xlink="http://www.w3.org/1999/xlink" width="90" height="90" viewBox="0 0 90 90">
  <defs>
    <clipPath id="clip-path">
      <rect id="Rectangle_414535" data-name="Rectangle 414535" width="90" height="90" transform="translate(805.781 2555)" fill="#fff" stroke="#707070" stroke-width="1"/>
    </clipPath>
  </defs>
  <g id="Mask_Group_1099332" data-name="Mask Group 1099332" transform="translate(-805.781 -2555)" clip-path="url(#clip-path)">
    <g id="Group_1226901" data-name="Group 1226901" transform="translate(0 572.946)">
      <g id="Rectangle_414534" data-name="Rectangle 414534" transform="translate(806.951 1984)" fill="#fd9826" stroke="#af6a1a" stroke-width="3">
        <rect width="70" height="70" rx="10" stroke="none"/>
        <rect x="1.5" y="1.5" width="67" height="67" rx="8.5" fill="none"/>
      </g>
      <g id="Group_1227309" data-name="Group 1227309" transform="translate(822.591 1996.835)">
        <path id="Path_1289237" data-name="Path 1289237" d="M12.448,27.213A6.089,6.089,0,1,1,6.359,33.3a6.089,6.089,0,0,1,6.089-6.089" transform="translate(1.313 5.62)" fill="#ffd8a8" stroke="#000" stroke-linecap="round" stroke-linejoin="round" stroke-width="2" stroke-dasharray="80 3"/>
        <path id="Path_1289238" data-name="Path 1289238" d="M31.593,21.358a7.672,7.672,0,1,1-7.671,7.672,7.64,7.64,0,0,1,7.671-7.672" transform="translate(4.941 4.41)" fill="#ffd8a8" stroke="#000" stroke-linecap="round" stroke-linejoin="round" stroke-width="2" stroke-dasharray="80 3"/>
        <path id="Path_1289239" data-name="Path 1289239" d="M50.3,27.213A6.089,6.089,0,1,1,44.21,33.3,6.089,6.089,0,0,1,50.3,27.213" transform="translate(9.131 5.62)" fill="#ffd8a8" stroke="#000" stroke-linecap="round" stroke-linejoin="round" stroke-width="2" stroke-dasharray="80 3"/>
        <path id="Path_1289240" data-name="Path 1289240" d="M5.839,49.884A2.177,2.177,0,0,1,3.648,52.32a2.368,2.368,0,0,1-2.436-2.436v-6.7a4.886,4.886,0,0,1,4.871-4.872H20.7l.731.244a6.893,6.893,0,0,0-.366,2.192V60.479H5.839Z" transform="translate(0.25 7.913)" fill="#ef727a" stroke="#000" stroke-linecap="round" stroke-linejoin="round" stroke-width="2" stroke-dasharray="80 3"/>
        <path id="Path_1289241" data-name="Path 1289241" d="M58.2,49.905V60.5H42.981V40.65a4.944,4.944,0,0,0-.487-2.314l.731-.121H57.837a4.885,4.885,0,0,1,4.872,4.871v6.7a2.442,2.442,0,0,1-2.435,2.436,2.053,2.053,0,0,1-2.07-2.314" transform="translate(8.776 7.892)" fill="#ef727a" stroke="#000" stroke-linecap="round" stroke-linejoin="round" stroke-width="2" stroke-dasharray="80 3"/>
        <path id="Path_1289242" data-name="Path 1289242" d="M23.753,52.337a3.014,3.014,0,0,1-3.044,3.044,3.094,3.094,0,0,1-3.045-3.044V41.376a6.364,6.364,0,0,1,.366-2.191,7.534,7.534,0,0,1,1.339-2.07,6.2,6.2,0,0,1,4.261-1.827H41.9a6.136,6.136,0,0,1,5.6,3.775,5.291,5.291,0,0,1,.487,2.313V52.337a2.984,2.984,0,1,1-5.967,0v8.768H23.753Z" transform="translate(3.648 7.287)" fill="#86dcfd" stroke="#000" stroke-linecap="round" stroke-linejoin="round" stroke-width="2" stroke-dasharray="80 3"/>
        <rect id="Rectangle_414630" data-name="Rectangle 414630" width="3.044" height="10.716" transform="translate(48.712 10.547)" fill="#95a5a5"/>
        <rect id="Rectangle_414631" data-name="Rectangle 414631" width="3.044" height="5.846" transform="translate(42.623 15.418)" fill="#95a5a5"/>
        <rect id="Rectangle_414632" data-name="Rectangle 414632" width="3.044" height="8.769" transform="translate(36.534 12.494)" fill="#95a5a5"/>
        <rect id="Rectangle_414633" data-name="Rectangle 414633" width="3.044" height="5.846" transform="translate(30.444 15.418)" fill="#95a5a5"/>
        <rect id="Rectangle_414634" data-name="Rectangle 414634" width="3.044" height="9.743" transform="translate(24.356 11.521)" fill="#95a5a5"/>
        <rect id="Rectangle_414635" data-name="Rectangle 414635" width="3.044" height="6.819" transform="translate(18.268 14.444)" fill="#95a5a5"/>
        <path id="Path_1289243" data-name="Path 1289243" d="M51.1,1.536,46.6.075a1.5,1.5,0,0,0-1.949.975A1.5,1.5,0,0,0,45.624,3l1.7.608L40.752,8.234,39.9,5.677a1.44,1.44,0,0,0-2.07-.853l-7.794,3.9-2.314-4.75a1.608,1.608,0,0,0-2.07-.73L13.474,9.33a1.552,1.552,0,1,0,1.339,2.8L25.651,6.773l2.314,4.748a1.608,1.608,0,0,0,2.07.732l7.55-3.775L38.56,11.4a1.5,1.5,0,0,0,2.314.73l8.282-5.846V7.5a1.583,1.583,0,0,0,3.166,0V2.875A1.549,1.549,0,0,0,51.1,1.536" transform="translate(2.602 0)" fill="#5f4534" stroke="#000" stroke-linecap="round" stroke-linejoin="round" stroke-width="1" stroke-dasharray="80 3"/>
        <path id="Path_1289244" data-name="Path 1289244" d="M71.608,58.54H1.584a1.583,1.583,0,1,1,0-3.166H71.608a1.612,1.612,0,0,1,1.583,1.583,1.806,1.806,0,0,1-1.583,1.583" transform="translate(0 11.436)" fill="#57606f"/>
      </g>
    </g>
  </g>
</svg>
