<svg xmlns="http://www.w3.org/2000/svg" xmlns:xlink="http://www.w3.org/1999/xlink" width="90" height="90" viewBox="0 0 90 90">
  <defs>
    <clipPath id="clip-path">
      <rect id="Rectangle_414522" data-name="Rectangle 414522" width="90" height="90" transform="translate(805.781 2555)" fill="#fff" stroke="#707070" stroke-width="1"/>
    </clipPath>
  </defs>
  <g id="Mask_Group_1099327" data-name="Mask Group 1099327" transform="translate(-805.781 -2555)" clip-path="url(#clip-path)">
    <g id="Group_1226464" data-name="Group 1226464" transform="translate(0 572.946)">
      <g id="Rectangle_414521" data-name="Rectangle 414521" transform="translate(806.951 1984)" fill="#fd9826" stroke="#af6a1a" stroke-width="3">
        <rect width="70" height="70" rx="10" stroke="none"/>
        <rect x="1.5" y="1.5" width="67" height="67" rx="8.5" fill="none"/>
      </g>
      <g id="Group_1227315" data-name="Group 1227315" transform="translate(822.617 1995.528)">
        <path id="Path_1289256" data-name="Path 1289256" d="M29.138,20.272a1.611,1.611,0,0,1-1.583-1.583V13.7a1.583,1.583,0,1,1,3.166,0v4.993a1.611,1.611,0,0,1-1.583,1.583" transform="translate(5.691 2.501)" fill="#da5359" stroke="#000" stroke-linecap="round" stroke-linejoin="round" stroke-width="2" stroke-dasharray="80 3"/>
        <path id="Path_1289257" data-name="Path 1289257" d="M29.138,47.02a1.612,1.612,0,0,1-1.583-1.583V40.443a1.583,1.583,0,0,1,3.166,0v4.994a1.612,1.612,0,0,1-1.583,1.583" transform="translate(5.691 8.025)" fill="#da5359" stroke="#000" stroke-linecap="round" stroke-linejoin="round" stroke-width="2" stroke-dasharray="80 3"/>
        <path id="Path_1289258" data-name="Path 1289258" d="M45.436,31.024H40.443a1.583,1.583,0,0,1,0-3.166h4.993a1.611,1.611,0,0,1,1.583,1.583,1.806,1.806,0,0,1-1.583,1.583" transform="translate(8.026 5.753)" fill="#da5359" stroke="#000" stroke-linecap="round" stroke-linejoin="round" stroke-width="2" stroke-dasharray="80 3"/>
        <path id="Path_1289259" data-name="Path 1289259" d="M18.689,31.024H13.7a1.583,1.583,0,1,1,0-3.166h4.994a1.612,1.612,0,0,1,1.582,1.583,1.7,1.7,0,0,1-1.582,1.583" transform="translate(2.501 5.753)" fill="#da5359" stroke="#000" stroke-linecap="round" stroke-linejoin="round" stroke-width="2" stroke-dasharray="80 3"/>
        <path id="Path_1289260" data-name="Path 1289260" d="M40.986,21.7a13.526,13.526,0,0,1,3.9,9.621,13.761,13.761,0,1,1-13.762-13.76,14.091,14.091,0,0,1,9.865,4.14m-4.263,4.263a7.34,7.34,0,0,0-5.48-2.314,7.672,7.672,0,1,0,7.672,7.672,7.876,7.876,0,0,0-2.192-5.358" transform="translate(3.586 3.627)" fill="#ef727a" stroke="#000" stroke-linecap="round" stroke-linejoin="round" stroke-width="2" stroke-dasharray="80 3"/>
        <path id="Path_1289261" data-name="Path 1289261" d="M38,69.537H31.663A1.447,1.447,0,0,1,30.2,68.319l-1.949-8.524a24.165,24.165,0,0,1-6.333-2.68l-7.427,4.628a1.675,1.675,0,0,1-1.949-.244L8.038,56.994a1.654,1.654,0,0,1-.244-1.949l4.628-7.43a24.083,24.083,0,0,1-2.68-6.332L1.219,39.335A1.447,1.447,0,0,1,0,37.874V31.541A1.447,1.447,0,0,1,1.219,30.08l8.524-1.949a24.083,24.083,0,0,1,2.68-6.332L7.794,14.37a1.673,1.673,0,0,1,.244-1.947l4.506-4.506a1.653,1.653,0,0,1,1.949-.244l7.427,4.75a24.165,24.165,0,0,1,6.333-2.68L30.2,1.217A1.447,1.447,0,0,1,31.663,0H38a1.447,1.447,0,0,1,1.461,1.217l2.07,9.5a1.507,1.507,0,0,1-2.923.73L36.777,3.166h-3.9l-1.827,8.282a1.437,1.437,0,0,1-1.1,1.1,22.084,22.084,0,0,0-7.185,3.045,1.279,1.279,0,0,1-1.583,0l-7.185-4.506-2.8,2.8,4.506,7.186a1.279,1.279,0,0,1,0,1.583,19.466,19.466,0,0,0-2.923,7.185,1.436,1.436,0,0,1-1.1,1.1L3.41,32.76v3.9l8.282,1.828a1.436,1.436,0,0,1,1.1,1.1,24.76,24.76,0,0,0,2.923,7.185,1.279,1.279,0,0,1,0,1.583L11.2,55.533l2.8,2.8,7.185-4.506a1.279,1.279,0,0,1,1.583,0,19.494,19.494,0,0,0,7.185,2.923,1.438,1.438,0,0,1,1.1,1.1l1.827,8.282h3.9L38.6,57.846a1.439,1.439,0,0,1,1.1-1.1,24.794,24.794,0,0,0,7.185-2.923,1.279,1.279,0,0,1,1.583,0l7.185,4.506,2.8-2.8-4.506-7.186a1.279,1.279,0,0,1,0-1.583,19.466,19.466,0,0,0,2.923-7.185,1.436,1.436,0,0,1,1.1-1.1l8.282-1.828v-3.9l-8.282-1.828A1.506,1.506,0,0,1,58.7,28.01l9.5,2.07a1.447,1.447,0,0,1,1.217,1.461v6.333A1.447,1.447,0,0,1,68.2,39.335l-8.525,1.949a24.16,24.16,0,0,1-2.679,6.332l4.627,7.43a1.676,1.676,0,0,1-.244,1.949L56.872,61.5a1.653,1.653,0,0,1-1.949.244L47.5,57.115a24.148,24.148,0,0,1-6.333,2.68l-1.949,8.524c.122.731-.487,1.219-1.217,1.219" transform="translate(0 0)" fill="#e5e2d3" stroke="#000" stroke-linecap="round" stroke-linejoin="round" stroke-width="1" stroke-dasharray="80 3"/>
        <path id="Path_1289262" data-name="Path 1289262" d="M29.638,33.269a1.489,1.489,0,0,1-1.1-.487,1.544,1.544,0,0,1,0-2.191L45.225,13.906A1.55,1.55,0,1,1,47.417,16.1L30.733,32.781a1.486,1.486,0,0,1-1.1.487" transform="translate(5.8 2.777)" fill="#e5e2d3" stroke="#000" stroke-linecap="round" stroke-linejoin="round" stroke-width="2" stroke-dasharray="80 3"/>
        <path id="Path_1289263" data-name="Path 1289263" d="M57.232,10.361l-8.16,8.16-7.185-.975.122-.122,8.038-8.038Z" transform="translate(8.651 1.938)" fill="#e5e2d3" stroke="#000" stroke-linecap="round" stroke-linejoin="round" stroke-width="2" stroke-dasharray="80 3"/>
        <path id="Path_1289264" data-name="Path 1289264" d="M49.239,3.432l.975,7.185-8.038,8.038-.122.122-.975-7.185Z" transform="translate(8.484 0.708)" fill="#ef727a" stroke="#000" stroke-linecap="round" stroke-linejoin="round" stroke-width="2" stroke-dasharray="80 3"/>
      </g>
    </g>
  </g>
</svg>
