<svg xmlns="http://www.w3.org/2000/svg" xmlns:xlink="http://www.w3.org/1999/xlink" width="95.112" height="95.48" viewBox="0 0 95.112 95.48">
  <defs>
    <clipPath id="clip-path">
      <rect id="Rectangle_414425" data-name="Rectangle 414425" width="95" height="95" transform="translate(0)" fill="none" stroke="#707070" stroke-width="2"/>
    </clipPath>
  </defs>
  <g id="Group_1225313" data-name="Group 1225313" transform="translate(9105.112 4697)">
    <rect id="Rectangle_414433" data-name="Rectangle 414433" width="95" height="95" transform="translate(-9105.112 -4696.52)" fill="none"/>
    <g id="Group_1225310" data-name="Group 1225310" transform="translate(-9105.361 -4697.36)">
      <g id="Group_1225309" data-name="Group 1225309" transform="translate(0.361 0.36)" clip-path="url(#clip-path)">
        <path id="Path_1287518" data-name="Path 1287518" d="M86.821,158.828H75.181l1.117-2.011a6.041,6.041,0,0,0,.76-2.934v-2.94h7.885v2.94a6.041,6.041,0,0,0,.76,2.934Z" transform="translate(-61.423 -123.105)" fill="#cbc4cc" stroke="#707070" stroke-width="2"/>
        <path id="Path_1287519" data-name="Path 1287519" d="M190.206,175.187a15.019,15.019,0,1,1-15.019,15.019,15.019,15.019,0,0,1,15.019-15.019" transform="translate(-142.843 -142.843)" fill="#97d729" stroke="#707070" stroke-width="2"/>
        <path id="Path_1287520" data-name="Path 1287520" d="M209.1,188.319A15.016,15.016,0,0,1,188.319,209.1,15.017,15.017,0,1,0,209.1,188.319" transform="translate(-153.535 -153.534)" fill="#8bc727"/>
        <path id="Path_1287521" data-name="Path 1287521" d="M353.459,366.9H322.671V345.878a3,3,0,0,1,3-3h24.781a3,3,0,0,1,3,3V366.9Z" transform="translate(-262.918 -279.366)" fill="#8ac9fe" stroke="#707070" stroke-width="2"/>
        <path id="Path_1287522" data-name="Path 1287522" d="M449.147,342.874H443.89a3,3,0,0,1,3,3V366.9h5.257V345.878a3,3,0,0,0-3-3" transform="translate(-361.609 -279.366)" fill="#60b7ff"/>
        <path id="Path_1287523" data-name="Path 1287523" d="M341.8,472.175H308.01a1.5,1.5,0,0,0-1.5,1.5v3a1.5,1.5,0,0,0,1.5,1.5H341.8a1.5,1.5,0,0,0,1.5-1.5v-3a1.5,1.5,0,0,0-1.5-1.5" transform="translate(-249.759 -384.637)" fill="#e2dee2" stroke="#707070" stroke-width="2"/>
        <path id="Path_1287524" data-name="Path 1287524" d="M473.391,472.175h-5.257a1.5,1.5,0,0,1,1.5,1.5v3a1.5,1.5,0,0,1-1.5,1.5h5.257a1.5,1.5,0,0,0,1.5-1.5v-3a1.5,1.5,0,0,0-1.5-1.5" transform="translate(-381.347 -384.637)" fill="#cbc4cc"/>
        <path id="Path_1287525" data-name="Path 1287525" d="M41.292,34.158H10.5a3,3,0,0,1-3-3V10.5a3,3,0,0,1,3-3H41.292a3,3,0,0,1,3,3V31.155a3,3,0,0,1-3,3" transform="translate(-6.32 -6.32)" fill="#8ac9fe" stroke="#707070" stroke-width="2"/>
        <path id="Path_1287526" data-name="Path 1287526" d="M166.3,7.5h-5.257a3,3,0,0,1,3,3V31.155a3,3,0,0,1-3,3H166.3a3,3,0,0,0,3-3V10.5a3,3,0,0,0-3-3" transform="translate(-131.329 -6.32)" fill="#60b7ff"/>
        <path id="Path_1287527" data-name="Path 1287527" d="M75.181,158.828l1.117-2.011a6.041,6.041,0,0,0,.76-2.934v-2.94" transform="translate(-61.423 -123.105)" fill="none" stroke="#000" stroke-linecap="round" stroke-linejoin="round" stroke-width="2"/>
        <path id="Path_1287528" data-name="Path 1287528" d="M127.709,150.943v2.94a6.041,6.041,0,0,0,.76,2.934l1.117,2.011" transform="translate(-104.189 -123.105)" fill="none" stroke="#000" stroke-linecap="round" stroke-linejoin="round" stroke-width="2"/>
        <path id="Path_1287529" data-name="Path 1287529" d="M204.268,184.921a15.038,15.038,0,1,1-3.557-5.445" transform="translate(-142.846 -142.845)" fill="none" stroke="#000" stroke-linecap="round" stroke-linejoin="round" stroke-width="2"/>
        <line id="Line_1167" data-name="Line 1167" transform="translate(47.363 53.37)" fill="none" stroke="#000" stroke-linecap="round" stroke-linejoin="round" stroke-width="2"/>
        <path id="Path_1287530" data-name="Path 1287530" d="M227.293,227.2a11.993,11.993,0,0,0-16.983,0" transform="translate(-171.439 -182.32)" fill="none" stroke="#000" stroke-linecap="round" stroke-linejoin="round" stroke-width="2"/>
        <path id="Path_1287531" data-name="Path 1287531" d="M233.14,257.759a6.01,6.01,0,0,1,8.5,0" transform="translate(-190.026 -208.637)" fill="none" stroke="#000" stroke-linecap="round" stroke-linejoin="round" stroke-width="2"/>
        <path id="Path_1287532" data-name="Path 1287532" d="M322.67,354.134v-8.259a3,3,0,0,1,3-3.005h24.781a3.005,3.005,0,0,1,3.005,3.005V366.9" transform="translate(-262.917 -279.363)" fill="none" stroke="#000" stroke-linecap="round" stroke-linejoin="round" stroke-width="2"/>
        <line id="Line_1168" data-name="Line 1168" y1="6.243" transform="translate(59.753 81.295)" fill="none" stroke="#000" stroke-linecap="round" stroke-linejoin="round" stroke-width="2"/>
        <path id="Path_1287533" data-name="Path 1287533" d="M341.8,472.175H308.01a1.5,1.5,0,0,0-1.5,1.5v3a1.5,1.5,0,0,0,1.5,1.5H341.8a1.5,1.5,0,0,0,1.5-1.5v-3A1.5,1.5,0,0,0,341.8,472.175Z" transform="translate(-249.759 -384.637)" fill="none" stroke="#000" stroke-linecap="round" stroke-linejoin="round" stroke-width="2"/>
        <line id="Line_1169" data-name="Line 1169" x2="16.896" transform="translate(11.13 35.723)" fill="none" stroke="#000" stroke-linecap="round" stroke-linejoin="round" stroke-width="2"/>
        <path id="Path_1287534" data-name="Path 1287534" d="M20.859,7.5H41.292a3,3,0,0,1,3,3V31.155a3,3,0,0,1-3,3H10.5a3,3,0,0,1-3-3V10.5a3,3,0,0,1,3-3h3.832" transform="translate(-6.32 -6.32)" fill="none" stroke="#000" stroke-linecap="round" stroke-linejoin="round" stroke-width="2"/>
        <path id="Path_1287535" data-name="Path 1287535" d="M256,77.2h24.03a3.755,3.755,0,0,1,3.755,3.755V117" transform="translate(-208.637 -63.067)" fill="none" stroke="#000" stroke-linecap="round" stroke-linejoin="round" stroke-width="2"/>
        <path id="Path_1287536" data-name="Path 1287536" d="M386.463,262.061l-5.632,5.632-5.632-5.632" transform="translate(-305.684 -213.572)" fill="none" stroke="#000" stroke-linecap="round" stroke-linejoin="round" stroke-width="2"/>
        <path id="Path_1287537" data-name="Path 1287537" d="M134.281,276.893h-24.03a3.755,3.755,0,0,1-3.755-3.755v-32.29" transform="translate(-86.918 -196.301)" fill="none" stroke="#000" stroke-linecap="round" stroke-linejoin="round" stroke-width="2"/>
        <path id="Path_1287538" data-name="Path 1287538" d="M76.191,245.469l5.632-5.632,5.632,5.632" transform="translate(-62.245 -195.478)" fill="none" stroke="#000" stroke-linecap="round" stroke-linejoin="round" stroke-width="2"/>
      </g>
    </g>
  </g>
</svg>
