<svg xmlns="http://www.w3.org/2000/svg" width="95" height="95" viewBox="0 0 95 95">
  <g id="Group_1225214" data-name="Group 1225214" transform="translate(6254.411 -2097.898)">
    <rect id="Rectangle_414341" data-name="Rectangle 414341" width="95" height="95" transform="translate(-6254.411 2097.898)" fill="none"/>
    <g id="Group_1225211" data-name="Group 1225211" transform="translate(258.733 11554.862)">
      <g id="competence_992616" transform="translate(-6513.144 -9456.926)">
        <path id="Path_1031259" data-name="Path 1031259" d="M37,4H71.833V38.833H37Z" transform="translate(18.417 -2.402)" fill="#b6dedc"/>
        <circle id="Ellipse_12979" data-name="Ellipse 12979" cx="7.917" cy="7.917" r="7.917" transform="translate(14.25 47.515)" fill="#4bad32"/>
        <path id="Path_1031260" data-name="Path 1031260" d="M37.833,30V44.218a6.366,6.366,0,0,1-6.366,6.366H15.7a6.366,6.366,0,0,1-6.366-6.366V30H3V47.417A11.083,11.083,0,0,0,14.083,58.5V79.083h19V58.5A11.083,11.083,0,0,0,44.167,47.417V30Z" transform="translate(-1.417 12.765)" fill="#4bad32"/>
        <circle id="Ellipse_12980" data-name="Ellipse 12980" cx="7.917" cy="7.917" r="7.917" transform="translate(64.917 47.515)" fill="#344496"/>
        <path id="Path_1031261" data-name="Path 1031261" d="M69.833,30V44.218a6.366,6.366,0,0,1-6.366,6.366H47.7a6.366,6.366,0,0,1-6.366-6.366V30H35V47.417A11.083,11.083,0,0,0,46.083,58.5V79.083h19V58.5A11.083,11.083,0,0,0,76.167,47.417V30Z" transform="translate(17.25 12.765)" fill="#344496"/>
        <circle id="Ellipse_12981" data-name="Ellipse 12981" cx="17.417" cy="17.417" r="17.417" transform="translate(4.75 1.598)" fill="#ec322c"/>
        <path id="Path_1031262" data-name="Path 1031262" d="M3,26H44.167v6.333H3Z" transform="translate(-1.417 10.432)" fill="#fcd821"/>
        <path id="Path_1031263" data-name="Path 1031263" d="M35,26H76.167v6.333H35Z" transform="translate(17.25 10.432)" fill="#fcd821"/>
        <path id="Path_1031264" data-name="Path 1031264" d="M10,17.5A9.5,9.5,0,0,1,19.5,8" transform="translate(2.667 -0.068)" fill="#ec322c"/>
        <path id="Path_1031265" data-name="Path 1031265" d="M44.75,37.839h-10.1a19,19,0,1,0-20.96,0H3.583A1.583,1.583,0,0,0,2,39.422v23.75A12.685,12.685,0,0,0,13.083,75.74v19.1a1.583,1.583,0,0,0,1.583,1.583h19a1.583,1.583,0,0,0,1.583-1.583V75.74A12.685,12.685,0,0,0,46.333,63.172V39.422a1.583,1.583,0,0,0-1.583-1.583ZM8.333,22.006A15.833,15.833,0,1,1,24.167,37.839,15.833,15.833,0,0,1,8.333,22.006ZM43.167,63.172a9.51,9.51,0,0,1-9.5,9.5,1.583,1.583,0,0,0-1.583,1.583v19H16.25v-19a1.583,1.583,0,0,0-1.583-1.583,9.51,9.51,0,0,1-9.5-9.5V47.339H8.333V59.973a7.958,7.958,0,0,0,7.949,7.949H32.051A7.958,7.958,0,0,0,40,59.973V47.339h3.167Zm-19-14.25a9.484,9.484,0,0,0-7.061,15.833h-.823A4.788,4.788,0,0,1,11.5,59.973V47.339H36.833V59.973a4.788,4.788,0,0,1-4.782,4.782h-.823a9.484,9.484,0,0,0-7.061-15.833Zm6.333,9.5a6.333,6.333,0,1,1-6.333-6.333A6.333,6.333,0,0,1,30.5,58.422Zm12.667-14.25h-38V41.006h38Z" transform="translate(-2 -2.99)"/>
        <path id="Path_1031266" data-name="Path 1031266" d="M76.75,37.833H75.167V4.583A1.583,1.583,0,0,0,73.583,3H38.75a1.583,1.583,0,0,0-1.583,1.583v33.25H35.583A1.583,1.583,0,0,0,34,39.417v23.75A12.685,12.685,0,0,0,45.083,75.734v19.1a1.583,1.583,0,0,0,1.583,1.583h19a1.583,1.583,0,0,0,1.583-1.583v-19.1A12.685,12.685,0,0,0,78.333,63.167V39.417A1.583,1.583,0,0,0,76.75,37.833ZM40.333,6.167H72V37.833H40.333Zm34.833,57a9.51,9.51,0,0,1-9.5,9.5,1.583,1.583,0,0,0-1.583,1.583v19H48.25v-19a1.583,1.583,0,0,0-1.583-1.583,9.51,9.51,0,0,1-9.5-9.5V47.333h3.167V59.968a7.958,7.958,0,0,0,7.949,7.949H64.051A7.958,7.958,0,0,0,72,59.968V47.333h3.167Zm-19-14.25A9.484,9.484,0,0,0,49.106,64.75h-.823A4.788,4.788,0,0,1,43.5,59.968V47.333H68.833V59.968a4.788,4.788,0,0,1-4.782,4.782h-.823a9.484,9.484,0,0,0-7.061-15.833Zm6.333,9.5a6.333,6.333,0,1,1-6.333-6.333A6.333,6.333,0,0,1,62.5,58.417Zm12.667-14.25h-38V41h38Z" transform="translate(16.667 -2.985)"/>
        <path id="Path_1031267" data-name="Path 1031267" d="M12.167,18.083H9A11.1,11.1,0,0,1,20.083,7v3.167A7.926,7.926,0,0,0,12.167,18.083Z" transform="translate(2.083 -0.652)"/>
        <path id="Path_1031268" data-name="Path 1031268" d="M54,8h3.167V30.167H54Z" transform="translate(28.333 -0.068)"/>
      </g>
    </g>
  </g>
</svg>
