<svg xmlns="http://www.w3.org/2000/svg" xmlns:xlink="http://www.w3.org/1999/xlink" width="108.912" height="108.913" viewBox="0 0 108.912 108.913">
  <defs>
    <filter id="Path_874925" x="0" y="0" width="108.912" height="108.913" filterUnits="userSpaceOnUse">
      <feOffset dy="3" input="SourceAlpha"/>
      <feGaussianBlur stdDeviation="3" result="blur"/>
      <feFlood flood-opacity="0.161"/>
      <feComposite operator="in" in2="blur"/>
      <feComposite in="SourceGraphic"/>
    </filter>
  </defs>
  <g id="Group_1225177" data-name="Group 1225177" transform="translate(-275.691 -6091)">
    <g id="Group_1200231" data-name="Group 1200231" transform="translate(284.691 6097)">
      <g id="Group_1187153" data-name="Group 1187153" transform="translate(0 0)">
        <g id="Group_1182177" data-name="Group 1182177">
          <g id="Group_1181903" data-name="Group 1181903">
            <g id="Group_1181438" data-name="Group 1181438">
              <g id="Group_1111314" data-name="Group 1111314">
                <g transform="matrix(1, 0, 0, 1, -9, -6)" filter="url(#Path_874925)">
                  <g id="Path_874925-2" data-name="Path 874925" transform="translate(9 6)" fill="#bdaff2">
                    <path d="M 45.45623779296875 89.91299438476562 C 39.45423889160156 89.91299438476562 33.6323127746582 88.73772430419922 28.15217590332031 86.41982269287109 C 22.85847473144531 84.18077087402344 18.10403823852539 80.97517395019531 14.02092552185059 76.89207458496094 C 9.937825202941895 72.80897521972656 6.73222541809082 68.05453491210938 4.493175506591797 62.76083374023438 C 2.175275325775146 57.28068542480469 1.000000238418579 51.45875930786133 1.000000238418579 45.45676040649414 C 1.000000238418579 39.45424652099609 2.175275325775146 33.63232040405273 4.493175506591797 28.15217208862305 C 6.73222541809082 22.85847282409668 9.937825202941895 18.10403442382812 14.02092552185059 14.02093505859375 C 18.10403823852539 9.937822341918945 22.85847473144531 6.732222080230713 28.15217590332031 4.493172168731689 C 33.6323127746582 2.175272226333618 39.45423889160156 0.9999971985816956 45.45623779296875 0.9999971985816956 C 51.45823669433594 0.9999971985816956 57.2801628112793 2.175272226333618 62.76029968261719 4.493172168731689 C 68.05400085449219 6.732222080230713 72.80844116210938 9.937822341918945 76.89154815673828 14.02093505859375 C 80.97464752197266 18.10403442382812 84.18025207519531 22.85847282409668 86.41930389404297 28.15217208862305 C 88.73719787597656 33.63232040405273 89.9124755859375 39.45424652099609 89.9124755859375 45.45624542236328 C 89.9124755859375 51.45875930786133 88.73719787597656 57.28068542480469 86.41930389404297 62.76083374023438 C 84.18025207519531 68.05453491210938 80.97464752197266 72.80897521972656 76.89154815673828 76.89207458496094 C 72.80844116210938 80.97517395019531 68.05400085449219 84.18077087402344 62.76029968261719 86.41982269287109 C 57.2801628112793 88.73772430419922 51.45823669433594 89.91299438476562 45.45623779296875 89.91299438476562 Z" stroke="none"/>
                    <path d="M 45.45623779296875 2.000007629394531 C 39.58879852294922 2.000007629394531 33.89793014526367 3.148696899414062 28.54171752929688 5.414192199707031 C 23.36722564697266 7.602813720703125 18.71962738037109 10.73644256591797 14.72803497314453 14.72804260253906 C 10.7364501953125 18.71962738037109 7.602813720703125 23.36721801757812 5.4141845703125 28.54172515869141 C 3.148689270019531 33.8979377746582 2 39.58880233764648 2 45.45674896240234 C 2 51.32419204711914 3.148689270019531 57.01505661010742 5.4141845703125 62.37126922607422 C 7.602813720703125 67.5457763671875 10.7364501953125 72.193359375 14.72803497314453 76.18495178222656 C 18.71962738037109 80.17655181884766 23.36722564697266 83.3101806640625 28.54171752929688 85.49880218505859 C 33.89793014526367 87.76429748535156 39.58879852294922 88.91299438476562 45.45623779296875 88.91299438476562 C 51.32367706298828 88.91299438476562 57.01454544067383 87.76429748535156 62.37075805664062 85.49880218505859 C 67.54524993896484 83.3101806640625 72.19285583496094 80.17655181884766 76.18444061279297 76.18495178222656 C 80.176025390625 72.193359375 83.30966186523438 67.5457763671875 85.498291015625 62.37126922607422 C 87.76378631591797 57.01505661010742 88.9124755859375 51.32419204711914 88.9124755859375 45.45624542236328 C 88.9124755859375 39.58880233764648 87.76378631591797 33.8979377746582 85.498291015625 28.54172515869141 C 83.30966186523438 23.36721801757812 80.176025390625 18.71962738037109 76.18444061279297 14.72804260253906 C 72.19285583496094 10.73644256591797 67.54524993896484 7.602813720703125 62.37075805664062 5.414192199707031 C 57.01454544067383 3.148696899414062 51.32367706298828 2.000007629394531 45.45623779296875 2.000007629394531 M 45.45623779296875 7.62939453125e-06 C 70.56101989746094 7.62939453125e-06 90.9124755859375 20.3514404296875 90.9124755859375 45.45624542236328 L 90.9124755859375 45.45674896240234 C 90.9124755859375 70.56155395507812 70.56101989746094 90.91298675537109 45.45623779296875 90.91298675537109 C 20.35144805908203 90.91298675537109 0 70.56155395507812 0 45.45674896240234 L 0 45.45624542236328 C 0 20.3514404296875 20.35144805908203 7.62939453125e-06 45.45623779296875 7.62939453125e-06 Z" stroke="none" fill="#fff"/>
                  </g>
                </g>
              </g>
            </g>
          </g>
        </g>
      </g>
    </g>
    <g id="data-management_6151748" transform="translate(302.874 6112.91)">
      <g id="Group_1200480" data-name="Group 1200480" transform="translate(0.936 0.936)">
        <g id="Group_1200469" data-name="Group 1200469" transform="translate(0 48.668)">
          <path id="Path_1241579" data-name="Path 1241579" d="M54.8,424H58.54a7.485,7.485,0,0,1-7.487,7.487H15.487A7.487,7.487,0,0,1,8,424H26.719v3.744h13.1V424Z" transform="translate(-8 -424)" fill="#969faa"/>
        </g>
        <g id="Group_1200470" data-name="Group 1200470" transform="translate(3.744 16.847)">
          <path id="Path_1241580" data-name="Path 1241580" d="M83.053,157.282v26.54H40V155.744A3.744,3.744,0,0,1,43.744,152h3.744v3.744H44.68a.936.936,0,0,0-.936.936v22.462a.936.936,0,0,0,.936.936H78.373a.936.936,0,0,0,.936-.936V159.487h2.808l.735-2.205.186-.05Z" transform="translate(-40 -152)" fill="#ccd1d9"/>
        </g>
        <g id="Group_1200471" data-name="Group 1200471" transform="translate(18.719 48.668)">
          <path id="Path_1241581" data-name="Path 1241581" d="M168,424h13.1v3.744H168Z" transform="translate(-168 -424)" fill="#fcd770"/>
        </g>
        <g id="Group_1200472" data-name="Group 1200472" transform="translate(7.487 20.59)">
          <path id="Path_1241582" data-name="Path 1241582" d="M107.565,187.744V207.4a.936.936,0,0,1-.936.936H72.936A.936.936,0,0,1,72,207.4V184.936a.936.936,0,0,1,.936-.936h2.808v5.616a1.871,1.871,0,0,0,1.872,1.872H101.95a1.871,1.871,0,0,0,1.872-1.872v-4.75l.047-.094a10.174,10.174,0,0,0,2.026.766l.735,2.205Z" transform="translate(-72 -184)" fill="#69d6f4"/>
        </g>
        <g id="Group_1200473" data-name="Group 1200473" transform="translate(31.822 35.565)">
          <path id="Path_1241583" data-name="Path 1241583" d="M280,312h5.616v5.616H280Z" transform="translate(-280 -312)" fill="#ffeaa7"/>
        </g>
        <g id="Group_1200474" data-name="Group 1200474" transform="translate(22.462 35.565)">
          <path id="Path_1241584" data-name="Path 1241584" d="M200,312h5.616v5.616H200Z" transform="translate(-200 -312)" fill="#ffeaa7"/>
        </g>
        <g id="Group_1200475" data-name="Group 1200475" transform="translate(13.103 35.565)">
          <path id="Path_1241585" data-name="Path 1241585" d="M120,312h5.616v5.616H120Z" transform="translate(-120 -312)" fill="#ffeaa7"/>
        </g>
        <g id="Group_1200476" data-name="Group 1200476" transform="translate(11.231 14.975)">
          <path id="Path_1241586" data-name="Path 1241586" d="M132.125,142.388l-.047.094v4.75a1.871,1.871,0,0,1-1.872,1.872H105.872A1.871,1.871,0,0,1,104,147.231V136h22.851a10.158,10.158,0,0,0,1.02,2.391l-1.04,2.081,2.646,2.646,2.081-1.04C131.743,142.188,131.933,142.291,132.125,142.388Z" transform="translate(-104 -136)" fill="#e6e9ed"/>
        </g>
        <g id="Group_1200477" data-name="Group 1200477" transform="translate(11.231 7.487)">
          <path id="Path_1241587" data-name="Path 1241587" d="M126.851,79.487H104V73.872A1.871,1.871,0,0,1,105.872,72h6.33a1.871,1.871,0,0,1,1.674,1.034l1.355,2.71h9.359v2.808l2.205.735C126.813,79.354,126.832,79.421,126.851,79.487Z" transform="translate(-104 -72)" fill="#ed5565"/>
        </g>
        <g id="Group_1200478" data-name="Group 1200478" transform="translate(31.822)">
          <path id="Path_1241588" data-name="Path 1241588" d="M282.26,22.975c-.019-.067-.037-.133-.055-.2L280,22.039V18.3l2.205-.735a10.2,10.2,0,0,1,1.075-2.593l-1.04-2.081,2.646-2.646,2.081,1.04a10.2,10.2,0,0,1,2.593-1.075L290.3,8h3.744l.735,2.205a10.2,10.2,0,0,1,2.592,1.075l2.081-1.04,2.646,2.646-1.04,2.081a10.2,10.2,0,0,1,1.075,2.593l2.205.735v3.744l-2.205.735a10.2,10.2,0,0,1-1.075,2.593l1.04,2.081-2.646,2.646-2.081-1.04a10.18,10.18,0,0,1-2.406,1.024h0l-.186.05-.735,2.205H290.3l-.735-2.205a10.172,10.172,0,0,1-2.026-.766c-.192-.1-.381-.2-.566-.309l-2.081,1.04-2.646-2.646,1.04-2.081A10.16,10.16,0,0,1,282.26,22.975Zm16.458-2.808a6.552,6.552,0,1,0-6.552,6.552A6.551,6.551,0,0,0,298.719,20.167Z" transform="translate(-280 -8)" fill="#ffc729"/>
        </g>
        <g id="Group_1200479" data-name="Group 1200479" transform="translate(37.437 5.616)">
          <path id="Path_1241589" data-name="Path 1241589" d="M334.552,56A6.552,6.552,0,1,1,328,62.552,6.551,6.551,0,0,1,334.552,56Zm2.808,6.552a2.808,2.808,0,1,0-2.808,2.808A2.808,2.808,0,0,0,337.359,62.552Z" transform="translate(-328 -56)" fill="#fcd770"/>
        </g>
      </g>
      <g id="Group_1200481" data-name="Group 1200481" transform="translate(0 0)">
        <path id="Path_1241590" data-name="Path 1241590" d="M298.206,15.649V10.557l-2.377-.792a11.169,11.169,0,0,0-.781-1.884l1.121-2.242-3.6-3.6-2.242,1.121a11.167,11.167,0,0,0-1.884-.781L287.649,0h-5.093l-.792,2.377a11.173,11.173,0,0,0-1.884.781l-2.242-1.121-3.6,3.6,1.121,2.242a11.172,11.172,0,0,0-.781,1.884L272,10.557v5.093l2.377.792a11.169,11.169,0,0,0,.781,1.884l-1.121,2.242,3.6,3.6,2.242-1.121a11.169,11.169,0,0,0,1.884.781l.792,2.377h5.093l.792-2.377a11.173,11.173,0,0,0,1.884-.781l2.242,1.121,3.6-3.6-1.121-2.242a11.162,11.162,0,0,0,.781-1.884Zm-3.919-.667-.128.491a9.288,9.288,0,0,1-.977,2.355l-.257.438.965,1.931L292.2,21.891l-1.931-.965-.438.257a9.294,9.294,0,0,1-2.355.977l-.491.128-.682,2.047h-2.395l-.682-2.047-.491-.128a9.29,9.29,0,0,1-2.355-.977l-.438-.257-1.931.965L276.315,20.2l.965-1.931-.257-.438a9.3,9.3,0,0,1-.977-2.355l-.128-.491-2.047-.682V11.906l2.047-.682.128-.491a9.29,9.29,0,0,1,.977-2.355l.257-.438-.965-1.931,1.693-1.693,1.931.965.438-.257a9.294,9.294,0,0,1,2.355-.977l.491-.128.682-2.047H286.3l.682,2.047.491.128a9.29,9.29,0,0,1,2.355.977l.438.257,1.931-.965,1.693,1.693-.965,1.931.257.438a9.3,9.3,0,0,1,.977,2.355l.128.491,2.047.682V14.3Z" transform="translate(-240.178 0)"/>
        <path id="Path_1241591" data-name="Path 1241591" d="M327.487,48a7.487,7.487,0,1,0,7.487,7.487A7.5,7.5,0,0,0,327.487,48Zm0,13.1a5.616,5.616,0,1,1,5.616-5.616A5.622,5.622,0,0,1,327.487,61.1Z" transform="translate(-282.563 -42.384)"/>
        <path id="Path_1241592" data-name="Path 1241592" d="M355.744,80a3.744,3.744,0,1,0,3.744,3.744A3.748,3.748,0,0,0,355.744,80Zm0,5.616a1.872,1.872,0,1,1,1.872-1.872A1.874,1.874,0,0,1,355.744,85.616Z" transform="translate(-310.819 -70.641)"/>
        <path id="Path_1241593" data-name="Path 1241593" d="M48.668,84.59H46.8v20.591H5.616V78.039a2.811,2.811,0,0,1,2.808-2.808h2.808V77.1H9.359a1.874,1.874,0,0,0-1.872,1.872v22.462a1.874,1.874,0,0,0,1.872,1.872H43.053a1.874,1.874,0,0,0,1.872-1.872V84.59H43.053v16.847H9.359V78.975h1.872v4.68a2.811,2.811,0,0,0,2.808,2.808H25.27v1.872H15.911v3.744H13.1v7.487H20.59V92.078H17.783V90.206H25.27v1.872H22.462v7.487H29.95V92.078H27.142V90.206h7.487v1.872H31.822v7.487h7.487V92.078H36.5V88.334H27.142V86.462H38.373a2.811,2.811,0,0,0,2.808-2.808v-.936H39.309v.936a.937.937,0,0,1-.936.936H14.039a.937.937,0,0,1-.936-.936v-10.3H29.95V71.487H13.1v-4.68a.937.937,0,0,1,.936-.936h6.331a.931.931,0,0,1,.837.517l1.613,3.226h7.13V67.744H23.977l-1.1-2.191A2.792,2.792,0,0,0,20.369,64H14.039a2.811,2.811,0,0,0-2.808,2.808v6.552H8.423a4.685,4.685,0,0,0-4.68,4.68v27.142H0v.936a8.433,8.433,0,0,0,8.423,8.423H43.989a8.433,8.433,0,0,0,8.423-8.423v-.936H48.668Zm-29.95,13.1H14.975V93.95h3.744Zm9.359,0H24.334V93.95h3.744Zm9.359,0H33.694V93.95h3.744ZM20.59,107.053H31.822v1.872H20.59Zm23.4,5.616H8.423a6.562,6.562,0,0,1-6.485-5.616h16.78V110.8H33.694v-3.744h16.78A6.562,6.562,0,0,1,43.989,112.668Z" transform="translate(0 -56.513)"/>
        <path id="Path_1241594" data-name="Path 1241594" d="M352,448h5.616v1.872H352Z" transform="translate(-310.819 -395.588)"/>
        <path id="Path_1241595" data-name="Path 1241595" d="M128,96h4.68v1.872H128Z" transform="translate(-113.025 -84.769)"/>
      </g>
    </g>
  </g>
</svg>
