<svg xmlns="http://www.w3.org/2000/svg" xmlns:xlink="http://www.w3.org/1999/xlink" width="90" height="90" viewBox="0 0 90 90">
  <defs>
    <clipPath id="clip-path">
      <rect id="Rectangle_414538" data-name="Rectangle 414538" width="90" height="90" transform="translate(805.781 2555)" fill="#fff" stroke="#707070" stroke-width="1"/>
    </clipPath>
  </defs>
  <g id="Mask_Group_1099333" data-name="Mask Group 1099333" transform="translate(-805.781 -2555)" clip-path="url(#clip-path)">
    <g id="Group_1226988" data-name="Group 1226988" transform="translate(0 572.946)">
      <g id="Rectangle_414537" data-name="Rectangle 414537" transform="translate(806.951 1984)" fill="#fd9826" stroke="#af6a1a" stroke-width="3">
        <rect width="70" height="70" rx="10" stroke="none"/>
        <rect x="1.5" y="1.5" width="67" height="67" rx="8.5" fill="none"/>
      </g>
      <g id="Group_1227310" data-name="Group 1227310" transform="translate(827.725 1996.835)">
        <rect id="Rectangle_414626" data-name="Rectangle 414626" width="45.789" height="59.429" rx="4.441" transform="translate(9.134 9.255)" fill="#ecf0f1" stroke="#000" stroke-linecap="round" stroke-linejoin="round" stroke-width="2" stroke-dasharray="80 3"/>
        <path id="Path_1289192" data-name="Path 1289192" d="M41.323,5.967a4.493,4.493,0,0,1,1.339,3.288,4.625,4.625,0,0,1-4.627,4.628H19.768a4.7,4.7,0,0,1-3.288-1.339,4.5,4.5,0,0,1-1.34-3.289,4.625,4.625,0,0,1,4.628-4.627H24.4a4.628,4.628,0,1,1,9.255,0h4.385a4.707,4.707,0,0,1,3.288,1.339" transform="translate(3.127)" fill="#57606f" stroke="#000" stroke-linecap="round" stroke-linejoin="round" stroke-width="2" stroke-dasharray="80 3"/>
        <path id="Path_1289193" data-name="Path 1289193" d="M62.473,58.68H1.583a1.583,1.583,0,0,1,0-3.166h60.89a1.583,1.583,0,0,1,0,3.166" transform="translate(0 11.465)" fill="#313a52" stroke="#000" stroke-linecap="round" stroke-linejoin="round" stroke-width="1" stroke-dasharray="80 3"/>
        <path id="Path_1289194" data-name="Path 1289194" d="M48.211,24.564H11.676a1.584,1.584,0,0,1,0-3.167H48.211a1.584,1.584,0,0,1,0,3.167" transform="translate(2.085 4.419)" fill="#57606f"/>
        <path id="Path_1289195" data-name="Path 1289195" d="M38.576,20.83H21.77a1.584,1.584,0,0,1,0-3.167H38.576a1.612,1.612,0,0,1,1.583,1.584,1.805,1.805,0,0,1-1.583,1.583" transform="translate(4.169 3.648)" fill="#57606f"/>
        <path id="Path_1289196" data-name="Path 1289196" d="M24.645,16.995H15.512a1.583,1.583,0,1,1,0-3.166h9.133a1.611,1.611,0,0,1,1.583,1.583,1.808,1.808,0,0,1-1.583,1.583" transform="translate(2.877 2.856)" fill="#57606f"/>
        <path id="Path_1289197" data-name="Path 1289197" d="M24.814,30.923H21.77a1.583,1.583,0,1,1,0-3.166h3.044a1.583,1.583,0,1,1,0,3.166" transform="translate(4.169 5.733)" fill="#afb9d2"/>
        <path id="Path_1289198" data-name="Path 1289198" d="M44.563,30.923H29.34a1.583,1.583,0,1,1,0-3.166H44.563a1.583,1.583,0,1,1,0,3.166" transform="translate(5.733 5.733)" fill="#afb9d2"/>
        <path id="Path_1289199" data-name="Path 1289199" d="M42.749,34.658H38.121a1.583,1.583,0,1,1,0-3.166h4.628a1.583,1.583,0,1,1,0,3.166" transform="translate(7.546 6.504)" fill="#afb9d2"/>
        <path id="Path_1289200" data-name="Path 1289200" d="M35.531,34.658H21.77a1.583,1.583,0,1,1,0-3.166h13.76a1.611,1.611,0,0,1,1.583,1.583,1.7,1.7,0,0,1-1.583,1.583" transform="translate(4.169 6.504)" fill="#afb9d2"/>
        <path id="Path_1289201" data-name="Path 1289201" d="M13.864,35.281h0a2.158,2.158,0,0,1-1.217-.487l-2.192-2.557a1.564,1.564,0,0,1,.244-2.192,1.457,1.457,0,0,1,2.191.243l1.1,1.34L17.4,28.34a1.55,1.55,0,1,1,2.192,2.192l-4.749,4.261a1.5,1.5,0,0,1-.975.487" transform="translate(2.089 5.759)" fill="#80af52" stroke="#000" stroke-linecap="round" stroke-linejoin="round" stroke-width="1" stroke-dasharray="80 3"/>
        <path id="Path_1289202" data-name="Path 1289202" d="M24.814,39.7H21.77a1.583,1.583,0,1,1,0-3.166h3.044a1.583,1.583,0,1,1,0,3.166" transform="translate(4.169 7.546)" fill="#afb9d2"/>
        <path id="Path_1289203" data-name="Path 1289203" d="M44.563,39.684H29.34A1.611,1.611,0,0,1,27.757,38.1,1.509,1.509,0,0,1,29.34,36.64H44.563a1.613,1.613,0,0,1,1.583,1.583,1.51,1.51,0,0,1-1.583,1.461" transform="translate(5.733 7.567)" fill="#afb9d2"/>
        <path id="Path_1289204" data-name="Path 1289204" d="M42.749,43.54H38.121a1.583,1.583,0,1,1,0-3.166h4.628a1.583,1.583,0,1,1,0,3.166" transform="translate(7.546 8.338)" fill="#afb9d2"/>
        <path id="Path_1289205" data-name="Path 1289205" d="M35.531,43.54H21.77a1.583,1.583,0,1,1,0-3.166h13.76a1.611,1.611,0,0,1,1.583,1.583,1.7,1.7,0,0,1-1.583,1.583" transform="translate(4.169 8.338)" fill="#afb9d2"/>
        <path id="Path_1289206" data-name="Path 1289206" d="M13.864,44.062h0a2.158,2.158,0,0,1-1.217-.487l-2.192-2.557a1.564,1.564,0,0,1,.244-2.192,1.456,1.456,0,0,1,2.191.244l1.1,1.339,3.41-3.288a1.55,1.55,0,0,1,2.192,2.191L14.961,43.7a1.966,1.966,0,0,1-1.1.366" transform="translate(2.089 7.572)" fill="#80af52" stroke="#000" stroke-linecap="round" stroke-linejoin="round" stroke-width="1" stroke-dasharray="80 3"/>
        <path id="Path_1289207" data-name="Path 1289207" d="M24.814,48.587H21.77a1.583,1.583,0,1,1,0-3.166h3.044a1.583,1.583,0,1,1,0,3.166" transform="translate(4.169 9.381)" fill="#afb9d2"/>
        <path id="Path_1289208" data-name="Path 1289208" d="M44.563,48.587H29.34a1.583,1.583,0,1,1,0-3.166H44.563a1.583,1.583,0,1,1,0,3.166" transform="translate(5.733 9.381)" fill="#afb9d2"/>
        <path id="Path_1289209" data-name="Path 1289209" d="M42.749,52.321H38.121a1.583,1.583,0,1,1,0-3.166h4.628a1.583,1.583,0,1,1,0,3.166" transform="translate(7.546 10.152)" fill="#afb9d2"/>
        <path id="Path_1289210" data-name="Path 1289210" d="M35.531,52.321H21.77a1.583,1.583,0,1,1,0-3.166h13.76a1.611,1.611,0,0,1,1.583,1.583,1.805,1.805,0,0,1-1.583,1.583" transform="translate(4.169 10.152)" fill="#afb9d2"/>
        <path id="Path_1289211" data-name="Path 1289211" d="M13.864,52.945h0a2.158,2.158,0,0,1-1.217-.487L10.454,49.9a1.559,1.559,0,1,1,2.435-1.949l1.1,1.339L17.4,46A1.55,1.55,0,1,1,19.588,48.2L14.961,52.58a3.873,3.873,0,0,1-1.1.366" transform="translate(2.089 9.407)" fill="#80af52" stroke="#000" stroke-linecap="round" stroke-linejoin="round" stroke-width="1" stroke-dasharray="80 3"/>
      </g>
    </g>
  </g>
</svg>
