<svg xmlns="http://www.w3.org/2000/svg" xmlns:xlink="http://www.w3.org/1999/xlink" width="90" height="90" viewBox="0 0 90 90">
  <defs>
    <clipPath id="clip-path">
      <rect id="Rectangle_414532" data-name="Rectangle 414532" width="90" height="90" transform="translate(805.781 2555)" fill="#fff" stroke="#707070" stroke-width="1"/>
    </clipPath>
  </defs>
  <g id="Mask_Group_1099331" data-name="Mask Group 1099331" transform="translate(-805.781 -2555)" clip-path="url(#clip-path)">
    <g id="Group_1226814" data-name="Group 1226814" transform="translate(0 572.946)">
      <g id="Rectangle_414531" data-name="Rectangle 414531" transform="translate(806.951 1984)" fill="#fd9826" stroke="#af6a1a" stroke-width="3">
        <rect width="70" height="70" rx="10" stroke="none"/>
        <rect x="1.5" y="1.5" width="67" height="67" rx="8.5" fill="none"/>
      </g>
      <g id="Group_1227308" data-name="Group 1227308" transform="translate(826.226 1995.628)">
        <path id="Path_1289286" data-name="Path 1289286" d="M1964.756-2355.7l9.855,9.623v58.828h-53.15V-2355.7Z" transform="translate(-1908.25 2357.16)" fill="#fff"/>
        <path id="Path_1289245" data-name="Path 1289245" d="M30.932,47.616v3.166A1.2,1.2,0,0,1,29.836,52l-2.314.244a11.007,11.007,0,0,1-1.34,3.289l1.584,1.827a1.3,1.3,0,0,1-.122,1.7L25.33,61.378a1.3,1.3,0,0,1-1.7.121L21.8,59.916a9.863,9.863,0,0,1-3.288,1.34l-.244,2.313a1.2,1.2,0,0,1-1.217,1.1H13.882a1.2,1.2,0,0,1-1.217-1.1l-.244-2.435a12.45,12.45,0,0,1-3.288-1.34L7.307,61.378a1.306,1.306,0,0,1-1.7-.122L3.288,58.942a1.3,1.3,0,0,1-.122-1.7L4.749,55.41A9.842,9.842,0,0,1,3.41,52.121L1.1,51.879A1.2,1.2,0,0,1,0,50.66V47.494a1.2,1.2,0,0,1,1.1-1.217l2.314-.244a12.469,12.469,0,0,1,1.339-3.289L3.166,40.919a1.3,1.3,0,0,1,.122-1.7L5.6,36.9a1.3,1.3,0,0,1,1.7-.122l1.827,1.583a9.811,9.811,0,0,1,3.288-1.339l.244-2.314a1.2,1.2,0,0,1,1.217-1.1h3.167a1.2,1.2,0,0,1,1.217,1.1l.244,2.314A10.978,10.978,0,0,1,21.8,38.361l1.827-1.583a1.3,1.3,0,0,1,1.7.122l2.314,2.314a1.3,1.3,0,0,1,.122,1.7l-1.7,1.947A9.867,9.867,0,0,1,27.4,46.155l2.314.244a1.151,1.151,0,0,1,1.217,1.217M21.555,49.2a6.089,6.089,0,1,0-6.088,6.089A6.107,6.107,0,0,0,21.555,49.2" transform="translate(0 6.942)" fill="#313a52" stroke="#000" stroke-linecap="round" stroke-linejoin="round" stroke-width="2" stroke-dasharray="80 3"/>
        <rect id="Rectangle_414637" data-name="Rectangle 414637" width="13.76" height="9.133" transform="translate(46.155 24.356)" fill="#ef727a" stroke="#000" stroke-linecap="round" stroke-linejoin="round" stroke-width="2" stroke-dasharray="80 3"/>
        <path id="Path_1289246" data-name="Path 1289246" d="M56.334,10.864v6.089H16.755V6.359H53.168v4.505Z" transform="translate(3.46 1.313)" fill="#95a5a5" stroke="#000" stroke-linecap="round" stroke-linejoin="round" stroke-width="2" stroke-dasharray="80 3"/>
        <path id="Path_1289247" data-name="Path 1289247" d="M56.21,10.588v1.339H46.833V1.211l9.377,9.377" transform="translate(9.672 0.25)" fill="#afb9d2" stroke="#000" stroke-linecap="round" stroke-linejoin="round" stroke-width="2" stroke-dasharray="80 3"/>
        <path id="Path_1289248" data-name="Path 1289248" d="M63.735,71.608H28.785a1.583,1.583,0,1,1,0-3.166h33.49V11.569l-8.4-8.4H13.563V33.612a1.584,1.584,0,0,1-3.167,0V1.583A1.612,1.612,0,0,1,11.979,0H54.358a1.49,1.49,0,0,1,1.1.487l9.377,9.377a1.82,1.82,0,0,1,.486,1.1V70.146a1.6,1.6,0,0,1-1.583,1.461" transform="translate(2.147)" fill="#d7deed" stroke="#000" stroke-linecap="round" stroke-linejoin="round" stroke-width="1" stroke-dasharray="80 3"/>
        <path id="Path_1289249" data-name="Path 1289249" d="M36.877,22.041H17.026a1.584,1.584,0,0,1,0-3.167H36.877a1.612,1.612,0,0,1,1.582,1.584,1.7,1.7,0,0,1-1.582,1.583" transform="translate(3.189 3.898)" fill="#d7deed"/>
        <path id="Path_1289250" data-name="Path 1289250" d="M29.2,25.775H17.026a1.583,1.583,0,0,1,0-3.166H29.2a1.611,1.611,0,0,1,1.583,1.583A1.534,1.534,0,0,1,29.2,25.775" transform="translate(3.189 4.669)" fill="#d7deed"/>
        <path id="Path_1289251" data-name="Path 1289251" d="M35.564,29.611H23.385a1.583,1.583,0,0,1,0-3.166H35.564a1.611,1.611,0,0,1,1.582,1.583,1.7,1.7,0,0,1-1.582,1.583" transform="translate(4.503 5.462)" fill="#d7deed"/>
        <path id="Path_1289252" data-name="Path 1289252" d="M53.436,42.228H32.368a1.583,1.583,0,1,1,0-3.166H53.436a1.583,1.583,0,0,1,0,3.166" transform="translate(6.358 8.067)" fill="#d7deed"/>
        <path id="Path_1289253" data-name="Path 1289253" d="M47.591,45.962H32.368a1.583,1.583,0,1,1,0-3.166H47.591a1.613,1.613,0,0,1,1.583,1.583,1.535,1.535,0,0,1-1.583,1.583" transform="translate(6.358 8.839)" fill="#d7deed"/>
        <path id="Path_1289254" data-name="Path 1289254" d="M52.436,49.8H37.213a1.583,1.583,0,0,1,0-3.166H52.436a1.583,1.583,0,0,1,0,3.166" transform="translate(7.359 9.631)" fill="#d7deed"/>
        <path id="Path_1289255" data-name="Path 1289255" d="M53.436,53.533H32.368a1.584,1.584,0,0,1,0-3.167H53.436a1.613,1.613,0,0,1,1.583,1.584,1.535,1.535,0,0,1-1.583,1.583" transform="translate(6.358 10.402)" fill="#d7deed"/>
      </g>
    </g>
  </g>
</svg>
