<svg xmlns="http://www.w3.org/2000/svg" xmlns:xlink="http://www.w3.org/1999/xlink" width="95" height="95" viewBox="0 0 95 95">
  <defs>
    <clipPath id="clip-path">
      <rect id="Rectangle_414320" data-name="Rectangle 414320" width="94.913" height="94.907" fill="none"/>
    </clipPath>
  </defs>
  <g id="Group_1225288" data-name="Group 1225288" transform="translate(-10157.665 5889.733)">
    <rect id="Rectangle_414328" data-name="Rectangle 414328" width="95" height="95" transform="translate(10157.665 -5889.733)" fill="none"/>
    <g id="Group_1225185" data-name="Group 1225185" transform="translate(10157.752 -5889.64)">
      <g id="Group_1225184" data-name="Group 1225184" clip-path="url(#clip-path)">
        <path id="Path_1287283" data-name="Path 1287283" d="M293.484,70.766a1.068,1.068,0,0,1,1.806-.658c3.219,3.117,6.382,6.183,9.581,9.281a1.068,1.068,0,0,1-.172,1.671q-5.637,3.568-11.271,7.136a1.068,1.068,0,0,1-1.634-1.012l.281-2.74a24.7,24.7,0,0,0-19.88,17.911,24.365,24.365,0,0,0-.57,2.746.956.956,0,0,1-.947.819H262.9a.957.957,0,0,1-.951-1.06,34.206,34.206,0,0,1,31.136-30.217l.4-3.877Z" transform="translate(-211.816 -56.446)" fill="#ffe177" fill-rule="evenodd"/>
        <path id="Path_1287284" data-name="Path 1287284" d="M261.661,105.921h-.212a34.2,34.2,0,0,1,31.239-31.278l.4-3.877a1.068,1.068,0,0,1,1.806-.658c3.219,3.117,6.382,6.183,9.581,9.281a1.068,1.068,0,0,1-.172,1.671c-.015.01-.033.019-.048.031l-9.363-9.068a1.068,1.068,0,0,0-1.806.658l-.4,3.877a34.195,34.195,0,0,0-31.027,29.364Zm29.867-18.1a1.052,1.052,0,0,1-.13-.639l.082-.794c.067-.011.134-.023.2-.033l-.151,1.468Z" transform="translate(-211.419 -56.446)" fill="#ffd064" fill-rule="evenodd"/>
        <path id="Path_1287285" data-name="Path 1287285" d="M19.72,70.766a1.068,1.068,0,0,0-1.806-.658c-3.219,3.117-6.382,6.183-9.581,9.281A1.068,1.068,0,0,0,8.5,81.059q5.637,3.568,11.271,7.136a1.07,1.07,0,0,0,1.636-1.012l-.281-2.74A24.579,24.579,0,0,1,41.581,105.1a.956.956,0,0,0,.947.819h7.781a.957.957,0,0,0,.951-1.06,34.523,34.523,0,0,0-.953-5.01A34.3,34.3,0,0,0,20.124,74.641l-.4-3.877Z" transform="translate(-6.475 -56.446)" fill="#fe646f" fill-rule="evenodd"/>
        <path id="Path_1287286" data-name="Path 1287286" d="M51.137,105.922a34.1,34.1,0,0,0-.844-4.156A34.3,34.3,0,0,0,20.11,76.558l-.4-3.877a1.068,1.068,0,0,0-1.806-.658c-3.144,3.046-6.236,6.041-9.363,9.068-.015-.01-.033-.019-.048-.031a1.068,1.068,0,0,1-.172-1.671c3.2-3.1,6.365-6.164,9.581-9.281a1.068,1.068,0,0,1,1.806.658l.4,3.877a34.2,34.2,0,0,1,31.239,31.278h-.21ZM21.27,87.826l-.151-1.468c.067.01.134.021.2.033l.082.794a1.066,1.066,0,0,1-.13.639Z" transform="translate(-6.467 -56.447)" fill="#fd4755" fill-rule="evenodd"/>
        <path id="Path_1287287" data-name="Path 1287287" d="M204.883,8.232l-9.4,11.066a.683.683,0,0,0,.521,1.125h4.376V55.938h10.039V20.422H214.8a.683.683,0,0,0,.521-1.125l-9.4-11.066a.684.684,0,0,0-1.041,0Z" transform="translate(-157.946 -6.461)" fill="#6cf5c2" fill-rule="evenodd"/>
        <path id="Path_1287288" data-name="Path 1287288" d="M247.062,20.422h1.914V55.936h-1.914Zm4.376,0a.683.683,0,0,0,.52-1.125L243,8.745l.436-.515a.684.684,0,0,1,1.041,0l9.4,11.068a.683.683,0,0,1-.52,1.125h-1.914Z" transform="translate(-196.499 -6.461)" fill="#00e499" fill-rule="evenodd"/>
        <path id="Path_1287289" data-name="Path 1287289" d="M100.887,171.621a3.917,3.917,0,0,0,1.378,2.983c2.639,2.25,8.36,7.126,10.766,9.176a3.921,3.921,0,0,0,2.543.936h11.166a3.921,3.921,0,0,0,2.543-.936l10.766-9.176a3.917,3.917,0,0,0,1.378-2.983v-12.01a4.874,4.874,0,0,1,9.748,0v16.5a3.914,3.914,0,0,1-1.389,2.993l-14.407,12.18a2.615,2.615,0,0,0-.926,2v25.227H107.806V193.339a2.607,2.607,0,0,0-.919-1.988c-2.773-2.363-11.07-9.434-14.371-12.249a3.917,3.917,0,0,1-1.378-2.983V159.61a4.874,4.874,0,0,1,9.748,0v12.012Z" transform="translate(-73.699 -125.126)" fill="#8ac9fe" fill-rule="evenodd"/>
        <path id="Path_1287290" data-name="Path 1287290" d="M111.609,154.85a4.875,4.875,0,0,1,5.831,4.78v12.01a3.917,3.917,0,0,0,1.378,2.983l10.766,9.176a3.921,3.921,0,0,0,2.543.936h-1.914a3.921,3.921,0,0,1-2.543-.936L116.9,174.623a3.917,3.917,0,0,1-1.378-2.983V159.63a4.872,4.872,0,0,0-3.917-4.778Zm50.285,0a4.875,4.875,0,0,1,5.831,4.78v16.5a3.914,3.914,0,0,1-1.389,2.993L151.928,191.3a2.615,2.615,0,0,0-.926,2v25.227h-1.914V193.3a2.615,2.615,0,0,1,.926-2l14.407-12.18a3.923,3.923,0,0,0,1.389-2.993v-16.5a4.872,4.872,0,0,0-3.917-4.778Z" transform="translate(-90.252 -125.142)" fill="#60b7ff" fill-rule="evenodd"/>
        <path id="Path_1287291" data-name="Path 1287291" d="M208.262,176.516a9.709,9.709,0,1,1-9.4,9.7,9.557,9.557,0,0,1,9.4-9.7" transform="translate(-160.806 -142.738)" fill="#f6dccd"/>
        <path id="Path_1287292" data-name="Path 1287292" d="M242.991,176.556a9.287,9.287,0,0,1,.957-.05,9.709,9.709,0,0,1,0,19.408,9.286,9.286,0,0,1-.957-.05,9.74,9.74,0,0,0,0-19.308Z" transform="translate(-196.491 -142.73)" fill="#f1cbbc" fill-rule="evenodd"/>
        <path id="Path_1287293" data-name="Path 1287293" d="M17.527,30.23c-.375-.115-.756-.222-1.139-.318l.069.668a2.6,2.6,0,0,1-3.976,2.463L1.209,25.905a2.6,2.6,0,0,1-.417-4.063l9.581-9.281a2.6,2.6,0,0,1,4.394,1.6l.272,2.635A35.857,35.857,0,0,1,40.907,33.052V15.491H38.061a2.212,2.212,0,0,1-1.688-3.645L45.769.78a2.214,2.214,0,0,1,3.374,0l9.4,11.066a2.212,2.212,0,0,1-1.688,3.645H54.007V33.052A35.851,35.851,0,0,1,79.875,16.8l.272-2.635a2.6,2.6,0,0,1,4.394-1.6c3.219,3.117,6.382,6.183,9.581,9.281a2.6,2.6,0,0,1-.417,4.064q-5.637,3.568-11.271,7.136a2.6,2.6,0,0,1-3.976-2.463l.069-.668c-.383.1-.764.2-1.139.318A6.406,6.406,0,0,1,79,34.482v16.5a5.45,5.45,0,0,1-1.931,4.162L62.666,67.323a1.081,1.081,0,0,0-.385.827V93.376a1.53,1.53,0,0,1-1.531,1.531H34.106a1.53,1.53,0,0,1-1.531-1.531V68.209a1.086,1.086,0,0,0-.381-.825L17.823,55.135a5.452,5.452,0,0,1-1.915-4.149V34.478a6.4,6.4,0,0,1,1.617-4.254Zm21.664,5.9A32.766,32.766,0,0,0,13.519,19.724a1.532,1.532,0,0,1-1.4-1.368l-.3-2.93C8.977,18.18,6.171,20.9,3.341,23.638l9.97,6.313-.184-1.793a1.531,1.531,0,0,1,1.762-1.669,25.741,25.741,0,0,1,6.062,1.741,6.406,6.406,0,0,1,7.635,4.97A26.11,26.11,0,0,1,36.01,45.516q.321,1.2.528,2.43h.88A11.489,11.489,0,0,1,39.19,36.131Zm11.755-3.3V13.961a1.53,1.53,0,0,1,1.531-1.531h2.543L47.457,3.522,39.894,12.43h2.543a1.53,1.53,0,0,1,1.531,1.531V32.83a10.684,10.684,0,0,1,6.977,0Zm23.015-4.6a25.741,25.741,0,0,1,6.062-1.741,1.531,1.531,0,0,1,1.762,1.669L81.6,29.947l9.97-6.313-8.477-8.209-.3,2.93a1.53,1.53,0,0,1-1.4,1.368A32.771,32.771,0,0,0,55.722,36.128a11.489,11.489,0,0,1,1.772,11.814h.88q.207-1.229.528-2.43A26.1,26.1,0,0,1,66.325,33.2a6.41,6.41,0,0,1,7.635-4.97ZM28.719,37.817V46.5a2.383,2.383,0,0,0,.84,1.818l10.766,9.176a2.384,2.384,0,0,0,1.55.57H53.043a2.4,2.4,0,0,0,1.55-.57l10.766-9.176A2.392,2.392,0,0,0,66.2,46.5V37.817a22.877,22.877,0,0,0-4.97,11.832,1.53,1.53,0,0,1-1.521,1.357h-4.13a10.735,10.735,0,0,1-16.235,0h-4.13a1.532,1.532,0,0,1-1.521-1.357,23.25,23.25,0,0,0-.635-3.343,22.932,22.932,0,0,0-4.334-8.489ZM72.6,31.143h0a3.345,3.345,0,0,0-3.343,3.343V46.5a5.452,5.452,0,0,1-1.915,4.149L56.575,59.82a5.452,5.452,0,0,1-3.536,1.3H41.873a5.449,5.449,0,0,1-3.536-1.3L27.571,50.644A5.452,5.452,0,0,1,25.655,46.5V34.486a3.343,3.343,0,0,0-6.686,0V50.994a2.383,2.383,0,0,0,.84,1.818L34.18,65.061a4.142,4.142,0,0,1,1.456,3.154V91.851H59.22v-23.7a4.151,4.151,0,0,1,1.468-3.165L75.095,52.81a2.385,2.385,0,0,0,.846-1.824v-16.5A3.345,3.345,0,0,0,72.6,31.145ZM47.457,35.307a8.179,8.179,0,1,0,7.872,8.173,8.032,8.032,0,0,0-7.872-8.173Z" transform="translate(0 0)" fill-rule="evenodd"/>
      </g>
    </g>
  </g>
</svg>
