<svg xmlns="http://www.w3.org/2000/svg" xmlns:xlink="http://www.w3.org/1999/xlink" width="95" height="95" viewBox="0 0 95 95">
  <defs>
    <clipPath id="clip-path">
      <rect id="Rectangle_414324" data-name="Rectangle 414324" width="95" height="74.564" fill="none" stroke="#707070" stroke-width="2"/>
    </clipPath>
  </defs>
  <g id="Group_1225197" data-name="Group 1225197" transform="translate(2340.234 5372.733)">
    <rect id="Rectangle_414334" data-name="Rectangle 414334" width="95" height="95" transform="translate(-2340.234 -5372.733)" fill="none"/>
    <g id="Group_1225196" data-name="Group 1225196" transform="translate(-2340.234 -5362.515)">
      <g id="Group_1225190" data-name="Group 1225190" clip-path="url(#clip-path)">
        <path id="Path_1287325" data-name="Path 1287325" d="M418.094,76.785a4.307,4.307,0,1,1-4.307,4.307,4.307,4.307,0,0,1,4.307-4.307" transform="translate(-337.01 -62.538)" fill="#fff" stroke="#707070" stroke-width="2" fill-rule="evenodd"/>
        <path id="Path_1287326" data-name="Path 1287326" d="M384.062,51.367a4.307,4.307,0,1,1,4.307-4.307,4.307,4.307,0,0,1-4.307,4.307m12.061-4.307a12.061,12.061,0,1,0-24.121,0c0,4.545,3.653,9.87,7.3,14.317,1.713,2.088,3.426,3.982,4.759,5.511,1.333-1.529,3.045-3.423,4.759-5.511,3.649-4.447,7.3-9.772,7.3-14.317" transform="translate(-302.978 -28.505)" fill="#66e0f7" stroke="#707070" stroke-width="2" fill-rule="evenodd"/>
        <path id="Path_1287327" data-name="Path 1287327" d="M384.062,182.673c-1.333-1.529-3.045-3.423-4.759-5.511-4.43,1.139-7.3,3.75-7.3,6.637,0,3.989,5.4,7.223,12.061,7.223s12.061-3.234,12.061-7.223c0-2.888-2.872-5.5-7.3-6.637-1.713,2.088-3.426,3.982-4.759,5.511" transform="translate(-302.978 -144.29)" fill="#cbe558" stroke="#707070" stroke-width="2" fill-rule="evenodd"/>
        <path id="Path_1287328" data-name="Path 1287328" d="M56.093,216.786a4.307,4.307,0,1,1-4.307,4.307,4.307,4.307,0,0,1,4.307-4.307" transform="translate(-42.177 -176.562)" fill="#fff" stroke="#707070" stroke-width="2" fill-rule="evenodd"/>
        <path id="Path_1287329" data-name="Path 1287329" d="M26.368,187.061a4.307,4.307,0,1,1-4.307-4.307,4.307,4.307,0,0,1,4.307,4.307m7.753,0a12.061,12.061,0,0,0-24.121,0c0,4.545,3.653,9.87,7.3,14.317,1.713,2.088,3.426,3.982,4.759,5.511,1.333-1.529,3.045-3.423,4.759-5.511,3.649-4.447,7.3-9.772,7.3-14.317" transform="translate(-8.145 -142.529)" fill="#ff5d7d" stroke="#707070" stroke-width="2" fill-rule="evenodd"/>
        <path id="Path_1287330" data-name="Path 1287330" d="M26.819,317.162c-1.713,2.088-3.426,3.982-4.759,5.511-1.333-1.529-3.045-3.423-4.759-5.511-4.43,1.139-7.3,3.75-7.3,6.637,0,3.989,5.4,7.223,12.061,7.223s12.061-3.234,12.061-7.223c0-2.888-2.872-5.5-7.3-6.637" transform="translate(-8.145 -258.314)" fill="#cbe558" stroke="#707070" stroke-width="2" fill-rule="evenodd"/>
        <path id="Path_1287331" data-name="Path 1287331" d="M384.062,35a12.061,12.061,0,0,1,12.061,12.061c0,6.679-7.889,15.043-12.061,19.828C379.89,62.1,372,53.739,372,47.061A12.061,12.061,0,0,1,384.062,35Z" transform="translate(-302.978 -28.506)" fill="none" stroke="#000" stroke-linecap="round" stroke-linejoin="round" stroke-width="2"/>
        <path id="Path_1287332" data-name="Path 1287332" d="M414.094,79.452a4.307,4.307,0,1,1,2.364,5.614A4.307,4.307,0,0,1,414.094,79.452Z" transform="translate(-337 -62.524)" fill="none" stroke="#000" stroke-linecap="round" stroke-linejoin="round" stroke-width="2"/>
        <path id="Path_1287333" data-name="Path 1287333" d="M389.013,177.435c4.327,1.167,7.109,3.745,7.109,6.587,0,3.989-5.4,7.223-12.061,7.223S372,188.011,372,184.022c0-2.842,2.782-5.42,7.109-6.587" transform="translate(-302.978 -144.513)" fill="none" stroke="#000" stroke-linecap="round" stroke-linejoin="round" stroke-width="2"/>
        <path id="Path_1287334" data-name="Path 1287334" d="M22.061,175a12.061,12.061,0,0,1,12.061,12.061c0,6.679-7.889,15.043-12.061,19.828C17.889,202.1,10,193.739,10,187.061A12.061,12.061,0,0,1,22.061,175Z" transform="translate(-8.145 -142.529)" fill="none" stroke="#000" stroke-linecap="round" stroke-linejoin="round" stroke-width="2"/>
        <ellipse id="Ellipse_12886" data-name="Ellipse 12886" cx="4.307" cy="4.307" rx="4.307" ry="4.307" transform="translate(9.609 40.224)" fill="none" stroke="#000" stroke-linecap="round" stroke-linejoin="round" stroke-width="2"/>
        <path id="Path_1287335" data-name="Path 1287335" d="M27.012,317.436c4.327,1.167,7.109,3.745,7.109,6.587,0,3.989-5.4,7.223-12.061,7.223S10,328.012,10,324.023c0-2.842,2.782-5.42,7.109-6.587" transform="translate(-8.145 -258.537)" fill="none" stroke="#000" stroke-linecap="round" stroke-linejoin="round" stroke-width="2"/>
        <path id="Path_1287336" data-name="Path 1287336" d="M297,84.277l4.639-4.639L297,75" transform="translate(-241.894 -61.083)" fill="none" stroke="#000" stroke-linecap="round" stroke-linejoin="round" stroke-width="2"/>
        <path id="Path_1287337" data-name="Path 1287337" d="M79.639,84.277,75,79.638,79.639,75" transform="translate(-61.084 -61.083)" fill="none" stroke="#000" stroke-linecap="round" stroke-linejoin="round" stroke-width="2"/>
        <line id="Line_1145" data-name="Line 1145" x1="43.832" transform="translate(14.802 18.686)" fill="none" stroke="#000" stroke-linecap="round" stroke-linejoin="round" stroke-width="2"/>
        <path id="Path_1287338" data-name="Path 1287338" d="M173.5,19.277V10l4.639,4.639L182.778,10v9.277" transform="translate(-141.308 -8.145)" fill="none" stroke="#000" stroke-linecap="round" stroke-linejoin="round" stroke-width="2"/>
        <path id="Path_1287339" data-name="Path 1287339" d="M145,238.911h16.885A3.722,3.722,0,0,0,165.6,235.2v-.928m0-16.7v-.928a3.722,3.722,0,0,1,3.711-3.711h16.885" transform="translate(-118.096 -173.425)" fill="none" stroke="#000" stroke-linecap="round" stroke-linejoin="round" stroke-width="2"/>
        <line id="Line_1146" data-name="Line 1146" x2="0.001" transform="translate(47.499 52.497)" fill="none" stroke="#000" stroke-linecap="round" stroke-linejoin="round" stroke-width="2"/>
      </g>
    </g>
  </g>
</svg>
