<svg xmlns="http://www.w3.org/2000/svg" xmlns:xlink="http://www.w3.org/1999/xlink" width="90" height="90" viewBox="0 0 90 90">
  <defs>
    <clipPath id="clip-path">
      <rect id="Rectangle_414544" data-name="Rectangle 414544" width="90" height="90" transform="translate(805.781 2555)" fill="#fff" stroke="#707070" stroke-width="1"/>
    </clipPath>
  </defs>
  <g id="Mask_Group_1099335" data-name="Mask Group 1099335" transform="translate(-805.781 -2555)" clip-path="url(#clip-path)">
    <g id="Group_1227162" data-name="Group 1227162" transform="translate(0 572.946)">
      <g id="Rectangle_414543" data-name="Rectangle 414543" transform="translate(806.951 1984)" fill="#fd9826" stroke="#af6a1a" stroke-width="3">
        <rect width="70" height="70" rx="10" stroke="none"/>
        <rect x="1.5" y="1.5" width="67" height="67" rx="8.5" fill="none"/>
      </g>
      <g id="Group_1227312" data-name="Group 1227312" transform="translate(829.731 1998.041)">
        <path id="Path_1289222" data-name="Path 1289222" d="M49.528,37.246a1.611,1.611,0,0,1-1.583-1.583V6.8H41.856a1.614,1.614,0,0,1-1.583-1.584,1.612,1.612,0,0,1,1.583-1.583h7.672a1.612,1.612,0,0,1,1.583,1.583V35.663a1.612,1.612,0,0,1-1.583,1.583" transform="translate(8.318 0.751)" fill="#afb9d2" stroke="#000" stroke-linecap="round" stroke-linejoin="round" stroke-width="2" stroke-dasharray="80 3"/>
        <path id="Path_1289223" data-name="Path 1289223" d="M42.623,62.352H0V0H50.3V41.651a2.979,2.979,0,0,0-1.827-.609,2.943,2.943,0,0,0-2.07.852,1.167,1.167,0,0,1-1.1.244,1.707,1.707,0,0,0-1.1,0V11.327A5.2,5.2,0,0,1,38.97,6.089H11.448a5.2,5.2,0,0,1-5.236,5.238v39.7a5.2,5.2,0,0,1,5.236,5.236H38.726a2.987,2.987,0,0,0,2.192,2.558,1.2,1.2,0,0,1,.853.852,2.7,2.7,0,0,0,1.827,1.95l-.366.853Z" transform="translate(0 0)" fill="#d7deed" stroke="#000" stroke-linecap="round" stroke-linejoin="round" stroke-width="2" stroke-dasharray="80 3"/>
        <path id="Path_1289224" data-name="Path 1289224" d="M45.166,50.67l2.8,7.55-7.793-2.68V51.887a3.966,3.966,0,0,0,1.7-.487c.123-.122.244-.122.367-.244a1.167,1.167,0,0,1,1.094-.244,2.464,2.464,0,0,0,1.339,0c.122,0,.244,0,.244-.121.122,0,.245,0,.245-.122" transform="translate(8.297 10.465)" fill="#da5359" stroke="#000" stroke-linecap="round" stroke-linejoin="round" stroke-width="2" stroke-dasharray="80 3"/>
        <path id="Path_1289225" data-name="Path 1289225" d="M36.783,50.78h0a.379.379,0,0,1,.244.121,2.464,2.464,0,0,0,1.339,0,1.169,1.169,0,0,1,1.1.245l.121.121a3.787,3.787,0,0,0,1.219.609c.244,0,.486.123.731.123v3.652l-7.916,2.68c.122-.487-.853,2.192,2.922-7.55,0-.122.122,0,.244,0" transform="translate(6.937 10.476)" fill="#ef727a" stroke="#000" stroke-linecap="round" stroke-linejoin="round" stroke-width="2" stroke-dasharray="80 3"/>
        <path id="Path_1289226" data-name="Path 1289226" d="M52.13,42.778a1.167,1.167,0,0,1-.244-1.1,3.162,3.162,0,0,0-2.07-3.655,1.2,1.2,0,0,1-.853-.852,3.046,3.046,0,0,0-3.652-2.069,1.169,1.169,0,0,1-1.1-.245,3.174,3.174,0,0,0-4.261,0,1.169,1.169,0,0,1-1.1.245A3.159,3.159,0,0,0,35.2,37.176a1.2,1.2,0,0,1-.852.852,3.051,3.051,0,0,0-2.07,3.655,1.17,1.17,0,0,1-.244,1.1,3.175,3.175,0,0,0,0,4.263,1.17,1.17,0,0,1,.244,1.1,3.05,3.05,0,0,0,2.07,3.655,1.2,1.2,0,0,1,.852.852,3.529,3.529,0,0,0,1.461,1.827,2.059,2.059,0,0,0,.609.244,2.791,2.791,0,0,0,2.192-.244,3.191,3.191,0,0,1,.608.731,4.989,4.989,0,0,0,1.1.609,3.05,3.05,0,0,0,.974.121,3.469,3.469,0,0,0,1.584-.486c.243-.244.608-.487.73-.853a3.52,3.52,0,0,0,2.192.244c.122,0,0,0,.244-.122a3.208,3.208,0,0,0,1.827-1.949,1.206,1.206,0,0,1,.852-.853,3.048,3.048,0,0,0,2.07-3.653,1.167,1.167,0,0,1,.244-1.1,3.1,3.1,0,0,0,.244-4.385" transform="translate(6.447 7.03)" fill="#fcd884" stroke="#000" stroke-linecap="round" stroke-linejoin="round" stroke-width="2" stroke-dasharray="80 3"/>
        <path id="Path_1289227" data-name="Path 1289227" d="M41.131,38.456a5.6,5.6,0,1,1-5.6,5.6,5.589,5.589,0,0,1,5.6-5.6" transform="translate(7.338 7.942)" fill="#eabf6a" stroke="#000" stroke-linecap="round" stroke-linejoin="round" stroke-width="2" stroke-dasharray="80 3"/>
        <path id="Path_1289228" data-name="Path 1289228" d="M37.785,5.047a5.2,5.2,0,0,0,5.236,5.238v30.81a2.35,2.35,0,0,0-1.217.366,3.111,3.111,0,0,0-1.461,1.825,1.2,1.2,0,0,1-.853.853A3.192,3.192,0,0,0,37.3,47.793a1.169,1.169,0,0,1-.243,1.1,3.171,3.171,0,0,0,0,4.261,1.17,1.17,0,0,1,.243,1.1,1.71,1.71,0,0,0,0,1.1H10.384a5.2,5.2,0,0,0-5.236-5.238V10.285a5.2,5.2,0,0,0,5.236-5.238Z" transform="translate(1.063 1.042)" fill="#ecf0f1" stroke="#000" stroke-linecap="round" stroke-linejoin="round" stroke-width="2" stroke-dasharray="80 3"/>
        <path id="Path_1289229" data-name="Path 1289229" d="M25.065,13.159H12.888a1.583,1.583,0,0,1,0-3.166H25.065a1.583,1.583,0,1,1,0,3.166" transform="translate(2.335 2.064)" fill="#57606f"/>
        <path id="Path_1289230" data-name="Path 1289230" d="M25.856,16.894H16.723a1.583,1.583,0,0,1,0-3.166h9.133a1.612,1.612,0,0,1,1.583,1.584,1.7,1.7,0,0,1-1.583,1.582" transform="translate(3.127 2.835)" fill="#57606f"/>
        <path id="Path_1289231" data-name="Path 1289231" d="M31.073,16.894H28.029a1.583,1.583,0,1,1,0-3.166h3.044a1.583,1.583,0,0,1,0,3.166" transform="translate(5.462 2.835)" fill="#57606f"/>
        <path id="Path_1289232" data-name="Path 1289232" d="M27.42,23.253H9.153a1.584,1.584,0,0,1,0-3.167H27.42A1.612,1.612,0,0,1,29,21.67a1.7,1.7,0,0,1-1.583,1.583" transform="translate(1.563 4.148)" fill="#57606f"/>
        <path id="Path_1289233" data-name="Path 1289233" d="M27.84,26.987H14.2a1.583,1.583,0,1,1,0-3.166H27.962A1.611,1.611,0,0,1,29.545,25.4a1.818,1.818,0,0,1-1.7,1.583" transform="translate(2.606 4.92)" fill="#57606f"/>
        <path id="Path_1289234" data-name="Path 1289234" d="M33.929,30.822H14.2a1.583,1.583,0,0,1,0-3.166H34.051a1.612,1.612,0,0,1,1.583,1.584,1.817,1.817,0,0,1-1.7,1.582" transform="translate(2.606 5.712)" fill="#57606f"/>
        <path id="Path_1289235" data-name="Path 1289235" d="M14.992,35.869H10.365a1.583,1.583,0,1,1,0-3.166h4.627a1.583,1.583,0,1,1,0,3.166" transform="translate(1.814 6.754)" fill="#57606f"/>
        <path id="Path_1289236" data-name="Path 1289236" d="M27.068,35.869H17.935a1.583,1.583,0,1,1,0-3.166h9.133a1.583,1.583,0,0,1,0,3.166" transform="translate(3.377 6.754)" fill="#57606f"/>
      </g>
    </g>
  </g>
</svg>
