<svg xmlns="http://www.w3.org/2000/svg" xmlns:xlink="http://www.w3.org/1999/xlink" width="90" height="90" viewBox="0 0 90 90">
  <defs>
    <clipPath id="clip-path">
      <rect id="Rectangle_414507" data-name="Rectangle 414507" width="90" height="90" transform="translate(805.781 2555)" fill="#fff" stroke="#707070" stroke-width="1"/>
    </clipPath>
  </defs>
  <g id="Mask_Group_1099323" data-name="Mask Group 1099323" transform="translate(-805.781 -2555)" clip-path="url(#clip-path)">
    <g id="Group_1226116" data-name="Group 1226116" transform="translate(0 572.946)">
      <g id="Rectangle_414506" data-name="Rectangle 414506" transform="translate(806.951 1984)" fill="#fd9826" stroke="#af6a1a" stroke-width="3">
        <rect width="70" height="70" rx="10" stroke="none"/>
        <rect x="1.5" y="1.5" width="67" height="67" rx="8.5" fill="none"/>
      </g>
      <g id="Group_1227198" data-name="Group 1227198" transform="translate(-1012.219 12162.054)">
        <path id="Path_1289095" data-name="Path 1289095" d="M13.995,31.865a7.663,7.663,0,1,1-7.724,7.6,7.589,7.589,0,0,1,7.724-7.6" transform="translate(1834.479 -10162.36)" fill="#ffebbe" stroke="#000" stroke-linecap="round" stroke-linejoin="round" stroke-width="2" stroke-dasharray="80 10"/>
        <path id="Path_1289096" data-name="Path 1289096" d="M6.742,62.171H0V55.06a5.518,5.518,0,0,1,3.924-5.272L9.685,47.95l6.008,3.8,6.742-3.8,5.149,1.716a5.561,5.561,0,0,1,3.8,5.271v7.234H6.742Z" transform="translate(1833.15 -10158.952)" fill="#f6e58d" stroke="#000" stroke-linecap="round" stroke-linejoin="round" stroke-width="2" stroke-dasharray="80 10"/>
        <path id="Path_1289097" data-name="Path 1289097" d="M61.262,28.566a1.2,1.2,0,0,0-1.716-.367l-2.7,1.838V9.318a1.158,1.158,0,0,0-1.225-1.226H41.892a1.158,1.158,0,0,0-1.226,1.226,1.158,1.158,0,0,0,1.226,1.226H54.52V30.037l-2.7-1.838a1.241,1.241,0,1,0-1.348,2.083l4.657,3.065h1.1a.12.12,0,0,0,.122-.122l4.536-3.065a1.051,1.051,0,0,0,.367-1.594" transform="translate(1841.768 -10167.398)" fill="#34495e" stroke="#000" stroke-linecap="round" stroke-linejoin="round" stroke-width="1" stroke-dasharray="80 10"/>
        <path id="Path_1289098" data-name="Path 1289098" d="M21.148,8.093H7.293A1.158,1.158,0,0,0,6.069,9.319V30.037L3.371,28.2a1.207,1.207,0,0,0-1.717.368,1.206,1.206,0,0,0,.368,1.716l4.536,3.065a.119.119,0,0,1,.121.122H7.785l4.657-3.065A1.241,1.241,0,1,0,11.1,28.321l-2.7,1.84V10.545H21.024a1.157,1.157,0,0,0,1.226-1.225,1.132,1.132,0,0,0-1.1-1.226" transform="translate(1833.457 -10167.398)" fill="#34495e" stroke="#000" stroke-linecap="round" stroke-linejoin="round" stroke-width="1" stroke-dasharray="80 10"/>
        <path id="Path_1289099" data-name="Path 1289099" d="M39.534,39.791a1.159,1.159,0,0,0-1.225,1.226,6.5,6.5,0,1,1-6.5-6.5,1.226,1.226,0,1,0,0-2.452,8.949,8.949,0,1,0,8.95,8.95,1.158,1.158,0,0,0-1.226-1.226" transform="translate(1837.995 -10162.317)" fill="#34495e" stroke="#000" stroke-linecap="round" stroke-linejoin="round" stroke-width="1" stroke-dasharray="80 10"/>
        <path id="Path_1289100" data-name="Path 1289100" d="M28.89,38.308a1.214,1.214,0,0,0-1.716,1.717l3.065,3.064a1.321,1.321,0,0,0,.858.368,1.109,1.109,0,0,0,.858-.368l7.724-7.724a1.213,1.213,0,1,0-1.716-1.716l-6.742,6.743Z" transform="translate(1838.831 -10162.061)" fill="#34495e" stroke="#000" stroke-linecap="round" stroke-linejoin="round" stroke-width="1" stroke-dasharray="80 10"/>
        <path id="Path_1289101" data-name="Path 1289101" d="M49.4,31.865a7.663,7.663,0,1,1-7.724,7.6,7.588,7.588,0,0,1,7.724-7.6" transform="translate(1841.983 -10162.36)" fill="#ffebbe" stroke="#000" stroke-linecap="round" stroke-linejoin="round" stroke-width="2" stroke-dasharray="80 10"/>
        <path id="Path_1289102" data-name="Path 1289102" d="M40.833,62.171H34.09V55.06a5.517,5.517,0,0,1,3.923-5.272l5.763-1.838,6.008,3.8,6.742-3.8,5.149,1.716a5.561,5.561,0,0,1,3.8,5.271v7.234H40.833Z" transform="translate(1840.375 -10158.952)" fill="#f6e58d" stroke="#000" stroke-linecap="round" stroke-linejoin="round" stroke-width="2" stroke-dasharray="80 10"/>
        <path id="Path_1289103" data-name="Path 1289103" d="M40.07,55.132a1.16,1.16,0,0,0-1.226,1.226v4.29H41.3v-4.29a1.229,1.229,0,0,0-1.226-1.226" transform="translate(1841.382 -10157.43)" fill="#34495e"/>
        <path id="Path_1289104" data-name="Path 1289104" d="M56.471,56.256a1.157,1.157,0,0,0-1.226-1.225,1.23,1.23,0,0,0-1.226,1.225V60.67h2.453Z" transform="translate(1844.598 -10157.451)" fill="#34495e"/>
        <path id="Path_1289105" data-name="Path 1289105" d="M30.687,0a7.724,7.724,0,1,1-7.724,7.724A7.77,7.77,0,0,1,30.687,0" transform="translate(1838.016 -10169.113)" fill="#ffebbe" stroke="#000" stroke-linecap="round" stroke-linejoin="round" stroke-width="2" stroke-dasharray="80 10"/>
        <path id="Path_1289106" data-name="Path 1289106" d="M22.22,30.306H15.477V23.2A5.517,5.517,0,0,1,19.4,17.923l5.762-1.838,6.008,3.8,6.742-3.8L43.062,17.8a5.56,5.56,0,0,1,3.8,5.272v7.233H22.22Z" transform="translate(1836.43 -10165.705)" fill="#f6e58d" stroke="#000" stroke-linecap="round" stroke-linejoin="round" stroke-width="2" stroke-dasharray="80 10"/>
        <path id="Path_1289107" data-name="Path 1289107" d="M21.457,23.267a1.16,1.16,0,0,0-1.226,1.226v4.29h2.453v-4.29a1.229,1.229,0,0,0-1.226-1.226" transform="translate(1837.438 -10164.183)" fill="#34495e"/>
        <path id="Path_1289108" data-name="Path 1289108" d="M37.756,24.391a1.158,1.158,0,0,0-1.225-1.226,1.228,1.228,0,0,0-1.225,1.226v4.414h2.451Z" transform="translate(1840.632 -10164.204)" fill="#34495e"/>
        <path id="Path_1289109" data-name="Path 1289109" d="M22.28,56.256a1.158,1.158,0,0,0-1.226-1.225,1.228,1.228,0,0,0-1.225,1.225V60.67H22.28Z" transform="translate(1837.352 -10157.451)" fill="#34495e"/>
        <path id="Path_1289110" data-name="Path 1289110" d="M5.879,55.132a1.159,1.159,0,0,0-1.226,1.226v4.29H7.106v-4.29a1.159,1.159,0,0,0-1.226-1.226" transform="translate(1834.136 -10157.43)" fill="#34495e"/>
      </g>
    </g>
  </g>
</svg>
