<svg xmlns="http://www.w3.org/2000/svg" xmlns:xlink="http://www.w3.org/1999/xlink" width="95" height="95" viewBox="0 0 95 95">
  <defs>
    <clipPath id="clip-path">
      <rect id="Rectangle_414321" data-name="Rectangle 414321" width="91.045" height="91.045" fill="none"/>
    </clipPath>
  </defs>
  <g id="Group_1225287" data-name="Group 1225287" transform="translate(-10482.666 5889.733)">
    <rect id="Rectangle_414329" data-name="Rectangle 414329" width="95" height="95" transform="translate(10482.665 -5889.733)" fill="none"/>
    <g id="Group_1225187" data-name="Group 1225187" transform="translate(10484.478 -5887.278)">
      <g id="Group_1225186" data-name="Group 1225186" transform="translate(0.165 -0.477)" clip-path="url(#clip-path)">
        <path id="Path_1287294" data-name="Path 1287294" d="M159.837,41.29a2.934,2.934,0,1,1-2.934,2.934,2.934,2.934,0,0,1,2.934-2.934" transform="translate(-129.132 -33.646)" fill="#ef7385"/>
        <path id="Path_1287295" data-name="Path 1287295" d="M93.773,41.29a2.934,2.934,0,1,1-2.934,2.934,2.934,2.934,0,0,1,2.934-2.934" transform="translate(-74.806 -33.646)" fill="#ef7385"/>
        <path id="Path_1287296" data-name="Path 1287296" d="M27.708,41.29a2.934,2.934,0,1,1-2.934,2.934,2.934,2.934,0,0,1,2.934-2.934" transform="translate(-20.479 -33.646)" fill="#ef7385"/>
        <path id="Path_1287297" data-name="Path 1287297" d="M309.573,437.677a2.943,2.943,0,0,1,2.934,2.934,2.956,2.956,0,0,1-2.934,2.934H291.966a2.943,2.943,0,0,1-2.934-2.934,2.956,2.956,0,0,1,2.934-2.934Z" transform="translate(-237.786 -359.607)" fill="#fcd770"/>
        <path id="Path_1287298" data-name="Path 1287298" d="M309.573,371.613a2.943,2.943,0,0,1,2.934,2.934,2.956,2.956,0,0,1-2.934,2.934H291.966a2.943,2.943,0,0,1-2.934-2.934,2.956,2.956,0,0,1,2.934-2.934h17.607Z" transform="translate(-237.786 -305.281)" fill="#fcd770"/>
        <path id="Path_1287299" data-name="Path 1287299" d="M309.573,404.645a2.943,2.943,0,0,1,2.934,2.934,2.956,2.956,0,0,1-2.934,2.934H291.966a2.943,2.943,0,0,1-2.934-2.934,2.956,2.956,0,0,1,2.934-2.934Z" transform="translate(-237.786 -332.444)" fill="#fcd770"/>
        <path id="Path_1287300" data-name="Path 1287300" d="M313.806,470.71h14.672l-.044.176a7.575,7.575,0,0,1-2.67,4.108,7.521,7.521,0,0,1-11.914-4.108Z" transform="translate(-258.159 -386.771)" fill="#fcd770"/>
        <path id="Path_1287301" data-name="Path 1287301" d="M381.507,34.668a24.418,24.418,0,0,1-.176,2.934H372.7v1.467a4.4,4.4,0,0,1-8.8,0V37.6h-8.8V28.8h1.467a4.4,4.4,0,0,0,0-8.8H355.1V8.258a26.4,26.4,0,0,1,26.41,26.41Z" transform="translate(-292.113 -6.483)" fill="#b4dd7f"/>
        <path id="Path_1287302" data-name="Path 1287302" d="M345.54,173.419h8.627a23.511,23.511,0,0,1-4.005,10.432l-1.893,2.744a100.759,100.759,0,0,0-11.532,22.038h-8.8V191.026h-1.467a4.4,4.4,0,0,1,0-8.8h1.467v-8.8h8.8v1.467a4.4,4.4,0,0,0,8.8,0Z" transform="translate(-264.95 -142.3)" fill="#b4dd7f"/>
        <path id="Path_1287303" data-name="Path 1287303" d="M234.329,20a4.4,4.4,0,0,1,0,8.8h-1.467v8.8h-8.8V36.135a4.4,4.4,0,0,0-8.8,0V37.6h-8.8V34.668a26.4,26.4,0,0,1,26.41-26.41V20Z" transform="translate(-169.878 -6.483)" fill="#b4dd7f"/>
        <path id="Path_1287304" data-name="Path 1287304" d="M63.763,163.862a3.006,3.006,0,0,0-3.023,3.023v.543a3,3,0,0,0,.176,1.012l-.176-.176-2.934-3.771V146.256h8.8v-1.467a4.4,4.4,0,1,1,8.8,0v1.467h8.8v8.8H82.748a4.4,4.4,0,0,0,0,8.8h1.467v17.607H75.222a9.847,9.847,0,0,0,.191-1.981,10.341,10.341,0,0,0-2.553-6.808l-6.808-7.791A3.091,3.091,0,0,0,63.763,163.862Z" transform="translate(-47.642 -115.137)" fill="#fcd770"/>
        <path id="Path_1287305" data-name="Path 1287305" d="M57.429,412.9l2.934,16.139H41.29L44.224,412.9Z" transform="translate(-34.06 -339.235)" fill="#656d78"/>
        <path id="Path_1287306" data-name="Path 1287306" d="M20.173,236.349A3,3,0,0,1,20,235.336v-.543a3.006,3.006,0,0,1,3.023-3.022,3.091,3.091,0,0,1,2.289,1.027l6.808,7.791a10.341,10.341,0,0,1,2.553,6.808,9.86,9.86,0,0,1-.191,1.981A10.353,10.353,0,0,1,32.6,253.6l-2.333,3.11h-13.2L14.054,250.7a54.8,54.8,0,0,1-5.8-24.546,3.206,3.206,0,0,1,3.184-3.184,3.179,3.179,0,0,1,3.125,2.656,19.756,19.756,0,0,0,2.494,6.778L20,236.173Z" transform="translate(-6.898 -183.046)" fill="#f5e0cd"/>
        <path id="Path_1287307" data-name="Path 1287307" d="M63.09,0A27.908,27.908,0,0,0,35.213,27.877v1.467H29.344a5.869,5.869,0,0,0-11.738,0H8.8V40.756A4.635,4.635,0,0,0,0,42.792,56.632,56.632,0,0,0,5.952,68L8.74,73.579,5.578,90.967H28.167l-3.134-17.24,1.947-2.6A11.828,11.828,0,0,0,28.8,67.492h9.345V46.951H35.213a2.934,2.934,0,0,1,0-5.869h2.934v-8.8h8.8V29.344a2.934,2.934,0,0,1,5.869,0v2.934h8.8v5.869a5.869,5.869,0,0,0,0,11.738V64.557H54.287a4.383,4.383,0,0,0-3.257,7.336,4.334,4.334,0,0,0,0,5.869A4.383,4.383,0,0,0,54.287,85.1h.408a8.94,8.94,0,0,0,16.792,0h.407a4.383,4.383,0,0,0,3.257-7.336,4.334,4.334,0,0,0,0-5.869,4.355,4.355,0,0,0-1.294-6.853A99.656,99.656,0,0,1,84.637,44.814l1.894-2.736a24.847,24.847,0,0,0,4.436-14.2A27.908,27.908,0,0,0,63.09,0m-54,88.032,2.4-13.2H22.25l2.4,13.2ZM24.634,69.369l-1.893,2.524H11.177l-2.6-5.2a53.719,53.719,0,0,1-5.641-23.9,1.71,1.71,0,0,1,3.4-.282,20.8,20.8,0,0,0,5.841,11.352l.035.035a4.208,4.208,0,0,0,.17.4l3.97,6.617,2.516-1.51-3.97-6.616a1.588,1.588,0,0,1-.222-.806v-.535a1.56,1.56,0,0,1,2.733-1.027L24.212,58.2a8.878,8.878,0,0,1,.422,11.174M35.213,38.147a5.869,5.869,0,0,0,0,11.738V64.557H29.3c.009-.172.043-.342.043-.515a11.817,11.817,0,0,0-2.923-7.779l-6.806-7.778a4.474,4.474,0,0,0-7.364.917c-.176-.251-.351-.5-.513-.764V32.278h8.8V29.344a2.934,2.934,0,0,1,5.869,0v2.934h8.8Zm20.541-8.8a5.869,5.869,0,0,0-11.738,0H38.147V27.877A24.952,24.952,0,0,1,61.623,3.009V14.672h2.934a2.934,2.934,0,0,1,0,5.869H61.623v8.8ZM54.287,67.492H71.893a1.467,1.467,0,1,1,0,2.934H54.287a1.467,1.467,0,0,1,0-2.934M73.36,74.827a1.469,1.469,0,0,1-1.467,1.467H54.287a1.467,1.467,0,0,1,0-2.934H71.893a1.469,1.469,0,0,1,1.467,1.467M63.09,88.032A6.023,6.023,0,0,1,57.921,85.1H68.26A6.029,6.029,0,0,1,63.09,88.032Zm8.8-5.869H54.287a1.467,1.467,0,0,1,0-2.934H71.893a1.467,1.467,0,1,1,0,2.934M84.118,40.41l-1.894,2.735A102.722,102.722,0,0,0,70.892,64.557H64.557V46.951H61.623a2.934,2.934,0,1,1,0-5.869h2.934v-8.8h5.869a5.869,5.869,0,1,0,11.738,0h5.427a21.93,21.93,0,0,1-3.473,8.131M79.229,29.344v2.934a2.934,2.934,0,0,1-5.869,0V29.344h-8.8V23.475a5.869,5.869,0,1,0,0-11.738V3.009A24.952,24.952,0,0,1,88.032,27.877q0,.737-.048,1.467Z" transform="translate(-0.106 0.308)"/>
        <path id="Path_1287308" data-name="Path 1287308" d="M20.918,41.835a4.4,4.4,0,1,0-4.4-4.4,4.407,4.407,0,0,0,4.4,4.4m0-5.869a1.467,1.467,0,1,1-1.467,1.467,1.469,1.469,0,0,1,1.467-1.467" transform="translate(-13.688 -26.855)"/>
        <path id="Path_1287309" data-name="Path 1287309" d="M86.983,41.835a4.4,4.4,0,1,0-4.4-4.4,4.407,4.407,0,0,0,4.4,4.4m0-5.869a1.467,1.467,0,1,1-1.467,1.467,1.469,1.469,0,0,1,1.467-1.467" transform="translate(-68.015 -26.855)"/>
        <path id="Path_1287310" data-name="Path 1287310" d="M153.047,41.835a4.4,4.4,0,1,0-4.4-4.4,4.407,4.407,0,0,0,4.4,4.4m0-5.869a1.467,1.467,0,1,1-1.467,1.467,1.469,1.469,0,0,1,1.467-1.467" transform="translate(-122.342 -26.855)"/>
      </g>
    </g>
  </g>
</svg>
