<svg xmlns="http://www.w3.org/2000/svg" xmlns:xlink="http://www.w3.org/1999/xlink" width="95" height="95" viewBox="0 0 95 95">
  <defs>
    <clipPath id="clip-path">
      <rect id="Rectangle_414319" data-name="Rectangle 414319" width="95" height="94.907" fill="none"/>
    </clipPath>
  </defs>
  <g id="Group_1225289" data-name="Group 1225289" transform="translate(-9850.665 5889.733)">
    <rect id="Rectangle_414327" data-name="Rectangle 414327" width="95" height="95" transform="translate(9850.665 -5889.733)" fill="none"/>
    <g id="Group_1225183" data-name="Group 1225183" transform="translate(9850.665 -5889.64)">
      <g id="Group_1225182" data-name="Group 1225182" clip-path="url(#clip-path)">
        <path id="Path_1287263" data-name="Path 1287263" d="M75.592,53.52v16.6a9.793,9.793,0,0,0,9.791,9.789H105.42a9.789,9.789,0,0,0,9.789-9.791v-16.6a19.81,19.81,0,0,0-39.619,0Z" transform="translate(-61.565 -27.455)" fill="#fcdd2e"/>
        <path id="Path_1287264" data-name="Path 1287264" d="M104.325,230.583a5.344,5.344,0,0,1-3.928-5.145l-.009-11.268-16.139.013.009,11.268a5.34,5.34,0,0,1-3.917,5.153l-8.552,2.364c0,7.179,11.762,14.836,20.512,14.836s20.54-8.414,20.54-14.882l-8.515-2.338Z" transform="translate(-58.47 -174.432)" fill="#ffece3"/>
        <path id="Path_1287265" data-name="Path 1287265" d="M184.169,229.23a5.34,5.34,0,0,0,3.928,5.145l12.66,3.475a10.642,10.642,0,0,1,1.356.473,9.231,9.231,0,0,0,2.245-5.412l-8.515-2.338a5.344,5.344,0,0,1-3.928-5.145l-.009-11.268-7.746.007.007,15.062Z" transform="translate(-149.99 -174.424)" fill="#ffddce"/>
        <rect id="Rectangle_414317" data-name="Rectangle 414317" width="13.584" height="10.945" transform="translate(40.063 24.039)" fill="#7c8b96"/>
        <rect id="Rectangle_414318" data-name="Rectangle 414318" width="12.37" height="10.945" transform="translate(14.027 24.039)" fill="#7c8b96"/>
        <path id="Path_1287266" data-name="Path 1287266" d="M104.944,91.885l.054,9.821c.007,9.517,10,14.821,14.326,14.91,4.325-.1,14.309-5.42,14.3-14.934l.03-18.382-21.009.019v.848a7.712,7.712,0,0,1-7.7,7.719Z" transform="translate(-85.469 -67.844)" fill="#ffece3"/>
        <path id="Path_1287267" data-name="Path 1287267" d="M173.014,83.306l-.03,18.374c.006,7.32-5.9,12.157-10.595,14.046a11.215,11.215,0,0,0,3.724.891c4.325-.1,14.309-5.42,14.3-14.934l.03-18.382Z" transform="translate(-132.26 -67.844)" fill="#ffddce"/>
        <path id="Path_1287268" data-name="Path 1287268" d="M147.128,33.71a19.77,19.77,0,0,0-7.288,1.384,4.823,4.823,0,0,0-.74,2.583c.006,7.3,5.93,13.213,13.229,13.83l14.506-.011a19.811,19.811,0,0,0-19.707-17.784Z" transform="translate(-113.291 -27.455)" fill="#fbd307"/>
        <path id="Path_1287269" data-name="Path 1287269" d="M54.695,41.091V32.174a19.809,19.809,0,1,1,39.617,0v8.921a4.764,4.764,0,0,0,4.765-4.765V32.071a24.573,24.573,0,1,0-49.147,0v4.251a4.765,4.765,0,0,0,4.765,4.765" transform="translate(-40.666 -6.108)" fill="#8c9ba6"/>
        <path id="Path_1287270" data-name="Path 1287270" d="M72.471,326.641a10.665,10.665,0,0,0-7.839-10.274l-4.145-1.137a23.749,23.749,0,0,1-41.051.046l-4.1,1.134A10.659,10.659,0,0,0,7.51,326.7l.017,20.232a3.329,3.329,0,0,0,3.334,3.327l58.3-.05a3.329,3.329,0,0,0,3.327-3.332Z" transform="translate(-6.117 -256.741)" fill="#80b4fb"/>
        <path id="Path_1287271" data-name="Path 1287271" d="M288.456,326.641a10.665,10.665,0,0,0-7.839-10.274l-4.145-1.137a23.855,23.855,0,0,1-3.772,4.891l.171.046a10.663,10.663,0,0,1,7.839,10.274l.017,19.768,4.422,0a3.329,3.329,0,0,0,3.327-3.332l-.017-20.232Z" transform="translate(-222.102 -256.741)" fill="#61a2f9"/>
        <path id="Path_1287272" data-name="Path 1287272" d="M231.219,376.94H189.36V352.665a2.576,2.576,0,0,1,2.575-2.575h36.71a2.576,2.576,0,0,1,2.575,2.575V376.94Z" transform="translate(-154.226 -285.133)" fill="#f4f8f8"/>
        <path id="Path_1287273" data-name="Path 1287273" d="M368.072,350.09H360.55a2.576,2.576,0,0,1,2.575,2.575V376.94h7.522V352.665a2.576,2.576,0,0,0-2.575-2.575" transform="translate(-293.652 -285.133)" fill="#e5ecf1"/>
        <path id="Path_1287274" data-name="Path 1287274" d="M216.29,480.869H172.445a2.635,2.635,0,1,1,0-5.269H216.29a2.635,2.635,0,1,1,0,5.269" transform="translate(-138.303 -387.356)" fill="#e5ecf1"/>
        <path id="Path_1287275" data-name="Path 1287275" d="M360.954,7.5H342.73a6.5,6.5,0,0,0-6.5,6.5v7.808a6.5,6.5,0,0,0,5.006,6.327,1.954,1.954,0,0,1,1.488,1.909v5.709a.592.592,0,0,0,1.071.349l5.078-6.984a1.969,1.969,0,0,1,1.594-.811h10.487a6.5,6.5,0,0,0,6.5-6.5V14A6.5,6.5,0,0,0,360.954,7.5Z" transform="translate(-273.845 -6.108)" fill="#a1e42c"/>
        <path id="Path_1287276" data-name="Path 1287276" d="M366.82,119.784a1.975,1.975,0,0,1,.818,1.6V127.1a.592.592,0,0,0,1.071.349l5.078-6.984a1.969,1.969,0,0,1,1.594-.811h-8.463Z" transform="translate(-298.759 -97.45)" fill="#95d528"/>
        <path id="Path_1287277" data-name="Path 1287277" d="M450.764,7.5H446.5a3.3,3.3,0,0,1,3.3,3.3v14.2a3.3,3.3,0,0,1-3.3,3.3h4.264a6.5,6.5,0,0,0,6.5-6.5V14a6.5,6.5,0,0,0-6.5-6.5Z" transform="translate(-363.655 -6.108)" fill="#95d528"/>
        <path id="Path_1287278" data-name="Path 1287278" d="M116.051,215.974h-5.564a2.607,2.607,0,0,1,0-5.214h5.564a2.607,2.607,0,1,1,0,5.214" transform="translate(-87.864 -171.655)" fill="#fc5692"/>
        <path id="Path_1287279" data-name="Path 1287279" d="M387.3,39.48H371.392a1.392,1.392,0,0,0,0,2.783H387.3a1.392,1.392,0,0,0,0-2.783" transform="translate(-301.349 -32.155)"/>
        <path id="Path_1287280" data-name="Path 1287280" d="M387.3,72.49H371.392a1.392,1.392,0,1,0,0,2.783H387.3a1.392,1.392,0,1,0,0-2.783" transform="translate(-301.349 -59.04)"/>
        <path id="Path_1287281" data-name="Path 1287281" d="M354.837,0h-9.112a1.392,1.392,0,1,0,0,2.783h9.112a5.114,5.114,0,0,1,5.108,5.108V15.7a5.114,5.114,0,0,1-5.108,5.108H344.35a3.369,3.369,0,0,0-2.718,1.384L338,27.186V23.935a3.329,3.329,0,0,0-2.562-3.264A5.088,5.088,0,0,1,331.5,15.7V7.891a5.114,5.114,0,0,1,5.108-5.108H339.3A1.392,1.392,0,1,0,339.3,0h-2.687a7.9,7.9,0,0,0-7.891,7.891V15.7A7.858,7.858,0,0,0,334.8,23.38a.564.564,0,0,1,.416.555v5.709a1.984,1.984,0,0,0,3.588,1.167l5.08-6.984a.581.581,0,0,1,.468-.237h10.487a7.9,7.9,0,0,0,7.891-7.891V7.891A7.9,7.9,0,0,0,354.837,0Z" transform="translate(-267.728)"/>
        <path id="Path_1287282" data-name="Path 1287282" d="M78.385,86.889V67.548a3.971,3.971,0,0,0-3.967-3.967H65.935A12.1,12.1,0,0,0,58.882,58.3l-12.66-3.475a3.921,3.921,0,0,1-1.707-.982,11.174,11.174,0,0,0,10.522-11.16V36.234a6.157,6.157,0,0,0,4.765-6V25.983a25.965,25.965,0,1,0-51.93,0V39.342a3.685,3.685,0,0,0,3.681,3.681h1.093A11.2,11.2,0,0,0,23.217,53.85a3.93,3.93,0,0,1-1.718,1l-12.656,3.5A12.087,12.087,0,0,0,0,69.974L.017,90.205a4.729,4.729,0,0,0,4.722,4.718h0c50.657,0-60.081-.013,73.241,0a4.026,4.026,0,0,0,.4-8.032ZM62.446,63.582h-10.1a25.147,25.147,0,0,0,2.67-3.459l3.136.861A9.292,9.292,0,0,1,62.446,63.582ZM15.42,40.238V36.39h2.935a14.435,14.435,0,0,0,.931,3.134,3.964,3.964,0,0,0-.375.714H15.42ZM49.562,25.451h2.681c.022.674.007.373.013,8.156H49.549ZM39.1,22.675c-6.67-.592-11.891-6.045-11.9-12.439a3.473,3.473,0,0,1,.327-1.468,18.442,18.442,0,0,1,24.408,13.9L39.1,22.675M24.417,10.247a14.693,14.693,0,0,0,1.369,6.169,6.327,6.327,0,0,1-6.264,6.247H15.738a18.444,18.444,0,0,1,8.682-12.417Zm-9,23.36V26.081c0-.213,0-.425.011-.636H18.09l.046,8.162H15.42Zm7.2,6.9h5.564a1.215,1.215,0,0,1,0,2.431H22.623a1.215,1.215,0,1,1,0-2.431m9.563,1.215a4,4,0,0,0-4-4H22.623a3.952,3.952,0,0,0-1,.132,11.592,11.592,0,0,1-.7-3.989l-.048-8.531a9.128,9.128,0,0,0,7.034-5.587c.25.3.508.592.783.876a16.128,16.128,0,0,0,10.231,4.826q.058.006.117.006l7.741-.006-.013,8.4a13.144,13.144,0,0,1-5.555,10.366c-.021.013-3.93,3.076-7.355,3.175a12.467,12.467,0,0,1-5.119-1.713,4,4,0,0,0,3.453-3.956Zm11.671,9.355h-.536c0-.02,0-.041,0-.061l0-4.932a16.255,16.255,0,0,0,6.008-9.7h2.932v6.292A8.392,8.392,0,0,1,43.857,51.082ZM33.836,2.8a23.207,23.207,0,0,1,23.182,23.18v4.255a3.352,3.352,0,0,1-.987,2.384,3.413,3.413,0,0,1-.993.687V26.078a21.2,21.2,0,0,0-.109-2.154.143.143,0,0,0,0-.028A21.2,21.2,0,0,0,12.635,26.08V33.3a3.377,3.377,0,0,1-1.982-3.069V25.981A23.168,23.168,0,0,1,33.834,2.8ZM10.656,39.34V35.381a6.128,6.128,0,0,0,1.982.85v4.008H11.554a.9.9,0,0,1-.9-.9ZM23.82,51.082a8.409,8.409,0,0,1-8.39-8.06h3.414a4,4,0,0,0,3.78,2.7h1.314c.15.128.3.256.456.38l0,4.93v.045h-.575Zm-1.579,6.448a6.748,6.748,0,0,0,4.937-6.5V48a14.981,14.981,0,0,0,6.646,2.176h.059a15.179,15.179,0,0,0,6.646-2.184V51.02a6.757,6.757,0,0,0,4.954,6.487l6.694,1.837a22.37,22.37,0,0,1-3.843,4.236H37.71a3.971,3.971,0,0,0-3.967,3.967v1.39a22.45,22.45,0,0,1-18.231-9.548l6.73-1.861ZM4.742,92.139h0A1.94,1.94,0,0,1,2.8,90.2L2.787,69.97a9.294,9.294,0,0,1,6.8-8.943l3.095-.855a25.117,25.117,0,0,0,21.063,11.55V75.15a1.392,1.392,0,0,0,2.783,0v-7.6a1.185,1.185,0,0,1,1.184-1.184h36.71a1.185,1.185,0,0,1,1.184,1.184V86.873H36.53V81.65a1.392,1.392,0,1,0-2.783,0v5.242a4.027,4.027,0,0,0-3.438,5.227L13.8,92.133v-7.78a1.392,1.392,0,1,0-2.783,0v7.782l-6.266.006Zm73.245,0H34.142c-.043,0-.085,0-.126-.006s-.05-.009-.076-.011a1.242,1.242,0,0,1,.2-2.468H77.989a1.243,1.243,0,0,1,0,2.486Z" transform="translate(0 -0.016)"/>
      </g>
    </g>
  </g>
</svg>
