<svg xmlns="http://www.w3.org/2000/svg" xmlns:xlink="http://www.w3.org/1999/xlink" width="90" height="90" viewBox="0 0 90 90">
  <defs>
    <clipPath id="clip-path">
      <rect id="Rectangle_414541" data-name="Rectangle 414541" width="90" height="90" transform="translate(805.781 2555)" fill="#fff" stroke="#707070" stroke-width="1"/>
    </clipPath>
  </defs>
  <g id="Mask_Group_1099334" data-name="Mask Group 1099334" transform="translate(-805.781 -2555)" clip-path="url(#clip-path)">
    <g id="Group_1227075" data-name="Group 1227075" transform="translate(0 572.946)">
      <g id="Rectangle_414540" data-name="Rectangle 414540" transform="translate(806.951 1984)" fill="#fd9826" stroke="#af6a1a" stroke-width="3">
        <rect width="70" height="70" rx="10" stroke="none"/>
        <rect x="1.5" y="1.5" width="67" height="67" rx="8.5" fill="none"/>
      </g>
      <g id="Group_1227311" data-name="Group 1227311" transform="translate(825.782 1996.835)">
        <path id="Path_1289212" data-name="Path 1289212" d="M31.763,63.26a1.611,1.611,0,0,1-1.583-1.583V36.1a1.583,1.583,0,1,1,3.166,0V61.677a1.535,1.535,0,0,1-1.583,1.583" transform="translate(6.233 7.129)" fill="#57606f"/>
        <path id="Path_1289213" data-name="Path 1289213" d="M24.092,63.26a1.611,1.611,0,0,1-1.583-1.583V36.1a1.583,1.583,0,1,1,3.166,0V61.677a1.608,1.608,0,0,1-1.583,1.583" transform="translate(4.649 7.129)" fill="#57606f"/>
        <path id="Path_1289214" data-name="Path 1289214" d="M58.807,58.882H4.006a1.583,1.583,0,1,1,0-3.166h54.8A1.611,1.611,0,0,1,60.39,57.3a1.534,1.534,0,0,1-1.583,1.583" transform="translate(0.5 11.507)" fill="#414a56"/>
        <path id="Path_1289215" data-name="Path 1289215" d="M3.044,30.584a3.045,3.045,0,0,1,0,6.089A3.015,3.015,0,0,1,0,33.628a3.093,3.093,0,0,1,3.044-3.044" transform="translate(0 6.317)" fill="#ecf0f1" stroke="#000" stroke-linecap="round" stroke-linejoin="round" stroke-width="1" stroke-dasharray="80 3"/>
        <path id="Path_1289216" data-name="Path 1289216" d="M53.512,1.615a3.014,3.014,0,0,1,3.044,3.044,3.044,3.044,0,1,1-6.088,0,3.014,3.014,0,0,1,3.044-3.044" transform="translate(10.423 0.334)" fill="#ecf0f1" stroke="#000" stroke-linecap="round" stroke-linejoin="round" stroke-width="1" stroke-dasharray="80 3"/>
        <path id="Path_1289217" data-name="Path 1289217" d="M66.739,36.557l-1.583-6.088a1.532,1.532,0,0,0-1.461-1.1H57.605a1.583,1.583,0,1,0,0,3.166h3.166l-12.91,17.9L13.885,40.088a1.4,1.4,0,0,0-1.7.609L1.463,55.92a1.421,1.421,0,0,0,.366,2.07,1.164,1.164,0,0,0,.853.243A1.5,1.5,0,0,0,3.9,57.625l9.985-14.37L47.861,53.606A1.4,1.4,0,0,0,49.567,53L62.842,34.365l.73,2.923a1.493,1.493,0,0,0,1.828,1.1,1.547,1.547,0,0,0,1.339-1.827" transform="translate(0.242 6.066)" fill="#a0cecb" stroke="#000" stroke-linecap="round" stroke-linejoin="round" stroke-width="1" stroke-dasharray="80 3"/>
        <path id="Path_1289218" data-name="Path 1289218" d="M31.408,0A21.906,21.906,0,0,0,9.488,21.921a21.848,21.848,0,0,0,17.17,21.433,20.974,20.974,0,0,0,4.75.487,19.251,19.251,0,0,0,4.628-.487A21.8,21.8,0,0,0,53.328,21.921,21.752,21.752,0,0,0,31.408,0" transform="translate(1.96)" fill="#ecf0f1" stroke="#000" stroke-linecap="round" stroke-linejoin="round" stroke-width="2" stroke-dasharray="80 3"/>
        <path id="Path_1289219" data-name="Path 1289219" d="M31.19,19.481h1.339a8.206,8.206,0,0,1,1.7.244,22.087,22.087,0,0,1,15.1,9.865A21.544,21.544,0,0,1,35.453,39.21a19.306,19.306,0,0,1-4.628.486,21.024,21.024,0,0,1-4.749-.486,22.053,22.053,0,0,1-13.762-9.621,21.688,21.688,0,0,1,15.224-9.865,16.467,16.467,0,0,1,2.435-.244H31.19Z" transform="translate(2.543 4.023)" fill="#86dcfd" stroke="#000" stroke-linecap="round" stroke-linejoin="round" stroke-width="1" stroke-dasharray="80 3"/>
        <path id="Path_1289220" data-name="Path 1289220" d="M34.847,12.751v4.627a6.142,6.142,0,0,1-2.8,5.116c-.609-.122-1.1-.122-1.7-.244H28.028a15,15,0,0,0-2.436.244,6.175,6.175,0,0,1-2.68-5.116V12.751A5.979,5.979,0,0,1,24.74,8.488,6.2,6.2,0,0,1,29,6.663a5.98,5.98,0,0,1,5.846,6.088" transform="translate(4.732 1.376)" fill="#ffd8a8" stroke="#000" stroke-linecap="round" stroke-linejoin="round" stroke-width="1" stroke-dasharray="80 3"/>
        <path id="Path_1289221" data-name="Path 1289221" d="M27.906,31.044a1.611,1.611,0,0,0,1.583-1.583V19.6a12.708,12.708,0,0,0-3.044,0v9.986a1.571,1.571,0,0,0,1.461,1.461" transform="translate(5.462 4.028)" fill="#6fbfd8" stroke="#000" stroke-linecap="round" stroke-linejoin="round" stroke-width="1" stroke-dasharray="80 3"/>
      </g>
    </g>
  </g>
</svg>
