<svg xmlns="http://www.w3.org/2000/svg" xmlns:xlink="http://www.w3.org/1999/xlink" width="95.001" height="95" viewBox="0 0 95.001 95">
  <defs>
    <clipPath id="clip-path">
      <rect id="Rectangle_414323" data-name="Rectangle 414323" width="94.307" height="95" fill="none"/>
    </clipPath>
  </defs>
  <g id="Group_1225286" data-name="Group 1225286" transform="translate(-10798.665 5889.733)">
    <rect id="Rectangle_414330" data-name="Rectangle 414330" width="95" height="95" transform="translate(10798.665 -5889.733)" fill="none"/>
    <g id="Group_1225189" data-name="Group 1225189" transform="translate(10798.676 -5889.523)">
      <g id="Group_1225188" data-name="Group 1225188" transform="translate(-0.011 -0.21)" clip-path="url(#clip-path)">
        <path id="Path_1287311" data-name="Path 1287311" d="M267.9,15.632V46.16a7.632,7.632,0,0,1-7.632,7.632H232.79l-9.158,9.158V53.792A7.632,7.632,0,0,1,216,46.16V15.632A7.632,7.632,0,0,1,223.632,8h36.634a7.632,7.632,0,0,1,7.632,7.632" transform="translate(-174.78 -6.328)" fill="#75c5b4"/>
        <path id="Path_1287312" data-name="Path 1287312" d="M32,200.845V167.264a15.264,15.264,0,0,1,30.528,0v35.107" transform="translate(-25.887 -122.853)" fill="#ffe177"/>
        <path id="Path_1287313" data-name="Path 1287313" d="M32.422,376l10.467,3.041a7.629,7.629,0,0,1,4.8,7.086V397.37H8V386.128a7.634,7.634,0,0,1,4.8-7.086L23.264,376" transform="translate(-6.466 -304.114)" fill="#fd8087"/>
        <path id="Path_1287314" data-name="Path 1287314" d="M77.37,230.106v7.632a10.685,10.685,0,0,1-21.37,0v-9.158S69.738,230.106,77.37,224Z" transform="translate(-45.307 -181.115)" fill="#ffd3b6"/>
        <path id="Path_1287315" data-name="Path 1287315" d="M27.816,264h2.29v9.158h-2.29A3.815,3.815,0,0,1,24,269.342v-1.526A3.815,3.815,0,0,1,27.816,264" transform="translate(-19.413 -213.483)" fill="#ffd3b6"/>
        <path id="Path_1287316" data-name="Path 1287316" d="M170.29,273.158H168V264h2.29a3.815,3.815,0,0,1,3.816,3.816v1.526a3.815,3.815,0,0,1-3.816,3.816" transform="translate(-135.938 -213.483)" fill="#ffd3b6"/>
        <path id="Path_1287317" data-name="Path 1287317" d="M88,352v3.053c0,2.53,4.579,6.106,4.579,6.106s4.579-3.576,4.579-6.106V352" transform="translate(-71.202 -284.693)" fill="#ffd3b6"/>
        <path id="Path_1287318" data-name="Path 1287318" d="M323.475,52.211a3.053,3.053,0,0,0,0-6.106h-3.053a3.053,3.053,0,0,0,0-6.106h-16.79l-3.053,3.053H296V61.37h4.579l3.053,3.053,1.526,5.342a3.816,3.816,0,0,0,7.632,0V64.422h10.685a3.053,3.053,0,1,0,0-6.106,3.053,3.053,0,0,0,0-6.106" transform="translate(-239.515 -32.223)" fill="#ffd3b6"/>
        <rect id="Rectangle_414322" data-name="Rectangle 414322" width="5.547" height="24.27" transform="translate(50.62 7.628)" fill="#fd8087"/>
        <path id="Path_1287319" data-name="Path 1287319" d="M81.526,268.579a1.526,1.526,0,0,0,1.526-1.526v-1.526a1.526,1.526,0,1,0-3.053,0v1.526a1.526,1.526,0,0,0,1.526,1.526" transform="translate(-64.728 -213.483)"/>
        <path id="Path_1287320" data-name="Path 1287320" d="M129.526,268.579a1.526,1.526,0,0,0,1.526-1.526v-1.526a1.526,1.526,0,1,0-3.053,0v1.526a1.526,1.526,0,0,0,1.526,1.526" transform="translate(-103.57 -213.483)"/>
        <path id="Path_1287321" data-name="Path 1287321" d="M38.16,190.462V175.972a5.327,5.327,0,0,0,1.526-3.734v-1.526a5.328,5.328,0,0,0-1.53-3.738c0-.027,0-.051,0-.078V160.79a16.79,16.79,0,1,0-33.581,0V166.9c0,.027,0,.052,0,.078a5.32,5.32,0,0,0-1.53,3.738v1.526a5.332,5.332,0,0,0,1.608,3.816H4.579v14.407A9.107,9.107,0,0,0,0,198.393v11.242a1.526,1.526,0,0,0,1.526,1.526H41.213a1.526,1.526,0,0,0,1.526-1.526V198.393a9.107,9.107,0,0,0-4.579-7.932m-1.526-19.75v1.526a2.293,2.293,0,0,1-2.29,2.29h-.763v-6.106h.763a2.293,2.293,0,0,1,2.29,2.29m-9.361,12.974a12.273,12.273,0,0,0,5.413-6.106h1.658a5.364,5.364,0,0,0,.763-.055v11.812l-7.655-2.225a3.483,3.483,0,0,0,.023-.374v-3.053Zm-5.9-1.526A9.168,9.168,0,0,1,12.211,173v-7.514c3.558.181,11.94.16,18.317-3.379V173a9.168,9.168,0,0,1-9.158,9.158m3.053,2.665v1.914c0,.74-1.193,2.459-3.053,4.117-1.86-1.66-3.053-3.377-3.053-4.117v-1.914a12.21,12.21,0,0,0,6.106,0m-9.135,2.288-7.655,2.225V177.525a5.364,5.364,0,0,0,.763.055h1.658a12.273,12.273,0,0,0,5.413,6.106h-.2v3.053a3.513,3.513,0,0,0,.023.374M7.632,160.79a13.738,13.738,0,1,1,27.475,0v4.579H33.581v-6.106a1.525,1.525,0,0,0-2.48-1.193c-7.039,5.632-20.116,4.268-20.248,4.255a1.523,1.523,0,0,0-1.685,1.345c-.006.057-.01.114-.01.172v1.526H7.632Zm-1.526,9.922a2.293,2.293,0,0,1,2.29-2.29h.763v6.106H8.395a2.293,2.293,0,0,1-2.29-2.29Zm33.581,37.4H36.633V202a1.526,1.526,0,0,0-3.053,0v6.106H9.158V202a1.526,1.526,0,0,0-3.053,0v6.106H3.053v-9.716a6.077,6.077,0,0,1,3.772-5.642l9.641-2.8a20.189,20.189,0,0,0,3.965,4.1,1.519,1.519,0,0,0,1.877,0,20.189,20.189,0,0,0,3.965-4.1l9.641,2.8a6.077,6.077,0,0,1,3.772,5.642Z" transform="translate(0.008 -116.379)"/>
        <path id="Path_1287322" data-name="Path 1287322" d="M88.438,308.141a1.527,1.527,0,0,0,2.158,0c1.439-1.439,2.509-1.439,3.948,0a1.526,1.526,0,0,0,2.158-2.158,5.315,5.315,0,0,0-8.265,0,1.527,1.527,0,0,0,0,2.158" transform="translate(-71.194 -245.859)"/>
        <path id="Path_1287323" data-name="Path 1287323" d="M253.792,0H217.158A9.168,9.168,0,0,0,208,9.158V39.686a9.172,9.172,0,0,0,7.632,9.031v7.76a1.526,1.526,0,0,0,2.606,1.08l8.71-8.712h26.844a9.168,9.168,0,0,0,9.158-9.158V9.158A9.168,9.168,0,0,0,253.792,0M259.9,39.686a6.111,6.111,0,0,1-6.106,6.106H226.317a1.528,1.528,0,0,0-1.08.446l-6.552,6.554V47.318a1.526,1.526,0,0,0-1.526-1.526,6.111,6.111,0,0,1-6.106-6.106V9.158a6.111,6.111,0,0,1,6.106-6.106h36.634A6.111,6.111,0,0,1,259.9,9.158Z" transform="translate(-168.306 0.145)"/>
        <path id="Path_1287324" data-name="Path 1287324" d="M294.521,45.74a4.581,4.581,0,0,0-2.209-7.474A4.578,4.578,0,0,0,288.054,32h-16.79a1.528,1.528,0,0,0-1.08.446l-2.6,2.606h-2.421V33.526A1.526,1.526,0,0,0,263.632,32h-6.106A1.526,1.526,0,0,0,256,33.526V57.949a1.526,1.526,0,0,0,1.526,1.526h6.106a1.526,1.526,0,0,0,1.526-1.526V56.422h2.421l2.326,2.326,1.364,4.774a5.342,5.342,0,0,0,10.679-.231V59.475h9.158a4.578,4.578,0,0,0,3.413-7.63,4.579,4.579,0,0,0,0-6.106M262.106,56.422h-3.053V35.053h3.053Zm24.422-9.158h4.579A1.525,1.525,0,0,1,291.7,50.2a1.507,1.507,0,0,1-.593.12h-4.579a1.526,1.526,0,0,0,0,3.053h4.579a1.526,1.526,0,1,1,0,3.053H280.422a1.526,1.526,0,0,0-1.526,1.526v5.342a2.29,2.29,0,0,1-4.579,0,1.488,1.488,0,0,0-.059-.42l-1.526-5.342a1.517,1.517,0,0,0-.387-.66l-3.053-3.053a1.528,1.528,0,0,0-1.08-.446h-3.053V38.106h3.053a1.528,1.528,0,0,0,1.08-.446l2.6-2.606h16.159a1.526,1.526,0,0,1,0,3.053h-1.526a1.526,1.526,0,0,0,0,3.053h4.579a1.526,1.526,0,1,1,0,3.053h-4.579a1.526,1.526,0,0,0,0,3.053" transform="translate(-207.147 -25.749)"/>
      </g>
    </g>
  </g>
</svg>
