<svg xmlns="http://www.w3.org/2000/svg" xmlns:xlink="http://www.w3.org/1999/xlink" width="90" height="90" viewBox="0 0 90 90">
  <defs>
    <clipPath id="clip-path">
      <rect id="Rectangle_414511" data-name="Rectangle 414511" width="90" height="90" transform="translate(805.781 2555)" fill="#fff" stroke="#707070" stroke-width="1"/>
    </clipPath>
  </defs>
  <g id="Mask_Group_1099324" data-name="Mask Group 1099324" transform="translate(-805.781 -2555)" clip-path="url(#clip-path)">
    <g id="Group_1226203" data-name="Group 1226203" transform="translate(0 572.946)">
      <g id="Rectangle_414510" data-name="Rectangle 414510" transform="translate(806.951 1984)" fill="#fd9826" stroke="#af6a1a" stroke-width="3">
        <rect width="70" height="70" rx="10" stroke="none"/>
        <rect x="1.5" y="1.5" width="67" height="67" rx="8.5" fill="none"/>
      </g>
      <g id="Group_1227197" data-name="Group 1227197" transform="translate(-1332.219 12162.054)">
        <rect id="Rectangle_414574" data-name="Rectangle 414574" width="18.39" height="18.39" transform="translate(2164.28 -10121.645)" fill="#a8cfff" stroke="#000" stroke-linecap="round" stroke-linejoin="round" stroke-width="2" stroke-dasharray="80 10"/>
        <rect id="Rectangle_414575" data-name="Rectangle 414575" width="18.39" height="18.39" transform="translate(2201.058 -10159.896)" fill="#fdcc31" stroke="#000" stroke-linecap="round" stroke-linejoin="round" stroke-width="2" stroke-dasharray="80 10"/>
        <rect id="Rectangle_414576" data-name="Rectangle 414576" width="18.39" height="18.39" transform="translate(2201.058 -10121.645)" fill="#f7d794" stroke="#000" stroke-linecap="round" stroke-linejoin="round" stroke-width="2" stroke-dasharray="80 10"/>
        <rect id="Rectangle_414577" data-name="Rectangle 414577" width="18.39" height="18.39" transform="translate(2164.28 -10159.896)" fill="#eb8686" stroke="#000" stroke-linecap="round" stroke-linejoin="round" stroke-width="2" stroke-dasharray="80 10"/>
        <path id="Path_1289111" data-name="Path 1289111" d="M29.044,71.351a1.158,1.158,0,0,1-1.226-1.225V1.225a1.226,1.226,0,0,1,2.453,0V70.248a1.209,1.209,0,0,1-1.226,1.1" transform="translate(2162.819 -10167.252)" fill="#747371" stroke="#000" stroke-linecap="round" stroke-linejoin="round" stroke-width="1" stroke-dasharray="80 10"/>
        <path id="Path_1289112" data-name="Path 1289112" d="M63.2,31.485H4.968a1.226,1.226,0,0,1,0-2.452H63.2a1.226,1.226,0,1,1,0,2.452" transform="translate(2157.716 -10161.099)" fill="#747371" stroke="#000" stroke-linecap="round" stroke-linejoin="round" stroke-width="1" stroke-dasharray="80 10"/>
        <path id="Path_1289113" data-name="Path 1289113" d="M56.885,31.485h0a1.261,1.261,0,0,1-1.349-1.226,1.158,1.158,0,0,1,1.225-1.225h.124a1.226,1.226,0,0,1,0,2.452" transform="translate(2168.693 -10161.099)" fill="#747371" stroke="#000" stroke-linecap="round" stroke-linejoin="round" stroke-width="1" stroke-dasharray="80 10"/>
        <path id="Path_1289114" data-name="Path 1289114" d="M1.349,31.485h0A1.261,1.261,0,0,1,0,30.258a1.158,1.158,0,0,1,1.226-1.225h.122a1.158,1.158,0,0,1,1.226,1.225,1.229,1.229,0,0,1-1.226,1.226" transform="translate(2156.923 -10161.099)" fill="#747371" stroke="#000" stroke-linecap="round" stroke-linejoin="round" stroke-width="1" stroke-dasharray="80 10"/>
        <path id="Path_1289115" data-name="Path 1289115" d="M13.092,18.7a1.109,1.109,0,0,1-.858-.368L9.169,15.264a1.213,1.213,0,0,1,1.716-1.716l2.207,2.207,5.272-5.272A1.214,1.214,0,1,1,20.08,12.2l-6.13,6.129a1.111,1.111,0,0,1-.858.368" transform="translate(2158.788 -10165.107)" fill="#b76969"/>
        <path id="Path_1289116" data-name="Path 1289116" d="M43.439,18.7a1.113,1.113,0,0,1-.859-.368l-3.064-3.065a1.213,1.213,0,1,1,1.716-1.716l2.207,2.207,5.272-5.272A1.214,1.214,0,1,1,50.427,12.2L44.3,18.329a1.111,1.111,0,0,1-.858.368" transform="translate(2165.22 -10165.107)" fill="#bc962b"/>
        <path id="Path_1289117" data-name="Path 1289117" d="M16.381,46.226l3.678-3.678a1.213,1.213,0,0,0-1.716-1.716l-3.678,3.677-3.678-3.677A1.213,1.213,0,1,0,9.27,42.547l3.678,3.678L9.27,49.9a1.186,1.186,0,0,0,0,1.716,1.328,1.328,0,0,0,.858.367,1.112,1.112,0,0,0,.858-.367l3.678-3.678,3.678,3.678a1.325,1.325,0,0,0,.858.367,1.114,1.114,0,0,0,.858-.367,1.184,1.184,0,0,0,0-1.716Z" transform="translate(2158.81 -10158.677)" fill="#7797b7"/>
      </g>
    </g>
  </g>
</svg>
