<svg xmlns="http://www.w3.org/2000/svg" xmlns:xlink="http://www.w3.org/1999/xlink" width="95" height="95" viewBox="0 0 95 95">
  <defs>
    <clipPath id="clip-path">
      <rect id="Rectangle_414412" data-name="Rectangle 414412" width="88.677" height="93.18" fill="none"/>
    </clipPath>
  </defs>
  <g id="Group_1225314" data-name="Group 1225314" transform="translate(9215.112 4697)">
    <rect id="Rectangle_414432" data-name="Rectangle 414432" width="95" height="95" transform="translate(-9215.112 -4697)" fill="none"/>
    <g id="Group_1225304" data-name="Group 1225304" transform="translate(-9211.119 -4697)">
      <g id="Group_1225303" data-name="Group 1225303" clip-path="url(#clip-path)">
        <path id="Path_1287481" data-name="Path 1287481" d="M84.337,40.973,56.376,38.946a12.207,12.207,0,0,0-9.515,3.543L17.742,71.608a12.209,12.209,0,0,0,0,17.264l29.989,29.989a12.209,12.209,0,0,0,17.264,0L94.114,89.742a12.207,12.207,0,0,0,3.543-9.515L95.63,52.266A12.211,12.211,0,0,0,84.337,40.973Z" transform="translate(-11.589 -31.832)" fill="#29ce69"/>
        <path id="Path_1287482" data-name="Path 1287482" d="M44.774,113.414a14.689,14.689,0,0,1-10.455-4.331L4.331,79.1a14.785,14.785,0,0,1,0-20.911L33.45,29.066a14.774,14.774,0,0,1,11.524-4.291L72.933,26.8A14.784,14.784,0,0,1,86.61,40.481l2.027,27.961a14.774,14.774,0,0,1-4.291,11.524L55.227,109.085a14.687,14.687,0,0,1-10.454,4.33M43.9,29.894A9.62,9.62,0,0,0,37.1,32.715L7.977,61.834a9.639,9.639,0,0,0,0,13.617l29.989,29.989a9.631,9.631,0,0,0,13.617,0L80.7,76.321a9.623,9.623,0,0,0,2.8-7.5L81.467,40.854a9.683,9.683,0,0,0-8.907-8.907L44.6,29.92C44.366,29.9,44.133,29.894,43.9,29.894Z" transform="translate(0 -20.234)"/>
        <path id="Path_1287483" data-name="Path 1287483" d="M362.146,86.66a6.326,6.326,0,1,1-6.326,6.326,6.326,6.326,0,0,1,6.326-6.326" transform="translate(-291.063 -70.889)" fill="#ffde50"/>
        <path id="Path_1287484" data-name="Path 1287484" d="M350.571,90.3a8.9,8.9,0,1,1,6.3-2.608,8.848,8.848,0,0,1-6.3,2.608m0-12.652a3.747,3.747,0,1,0,2.65,1.1,3.722,3.722,0,0,0-2.65-1.1" transform="translate(-279.489 -59.297)"/>
        <path id="Path_1287485" data-name="Path 1287485" d="M378.989,24.676A2.578,2.578,0,0,1,376.41,22.1V2.579a2.579,2.579,0,1,1,5.158,0V22.1a2.578,2.578,0,0,1-2.579,2.579" transform="translate(-307.906)"/>
        <path id="Path_1287486" data-name="Path 1287486" d="M152.16,210.722a10.261,10.261,0,0,1-7.28-3.01l-5.114-5.114a10.316,10.316,0,0,1,0-14.559,2.579,2.579,0,0,1,3.647,3.647,5.142,5.142,0,0,0,0,7.265l5.114,5.114a5.137,5.137,0,1,0,7.265-7.265l-5.114-5.114a10.3,10.3,0,0,1,14.559-14.559l5.114,5.114a10.305,10.305,0,0,1,0,14.559,2.579,2.579,0,0,1-3.647-3.647,5.142,5.142,0,0,0,0-7.265l-5.114-5.114a5.137,5.137,0,0,0-7.265,7.265l5.114,5.114a10.29,10.29,0,0,1-7.28,17.57Z" transform="translate(-111.871 -142.427)"/>
        <path id="Path_1287487" data-name="Path 1287487" d="M145.621,214.743a2.579,2.579,0,0,1-1.824-4.4l29.153-29.153a2.579,2.579,0,0,1,3.647,3.647l-29.153,29.153a2.568,2.568,0,0,1-1.824.755" transform="translate(-117.01 -147.595)"/>
      </g>
    </g>
  </g>
</svg>
