<svg xmlns="http://www.w3.org/2000/svg" xmlns:xlink="http://www.w3.org/1999/xlink" width="95" height="95" viewBox="0 0 95 95">
  <defs>
    <clipPath id="clip-path">
      <rect id="Rectangle_414326" data-name="Rectangle 414326" width="87.593" height="95" fill="none"/>
    </clipPath>
  </defs>
  <g id="Group_1225290" data-name="Group 1225290" transform="translate(-11320.06 5889.733)">
    <g id="Group_1225284" data-name="Group 1225284">
      <rect id="Rectangle_414332" data-name="Rectangle 414332" width="95" height="95" transform="translate(11320.061 -5889.733)" fill="none"/>
      <g id="Group_1225194" data-name="Group 1225194" transform="translate(11323.764 -5889.733)">
        <path id="Path_1287340" data-name="Path 1287340" d="M260.795,156.53l-14.222-8.212-14.222-8.212,14.222-8.206,28.439,16.418Z" transform="translate(-188.557 -107.04)" fill="#d6853a" fill-rule="evenodd"/>
        <path id="Path_1287341" data-name="Path 1287341" d="M20.232,156.53l14.222-8.212,14.217-8.212L34.455,131.9,6.01,148.318Z" transform="translate(-4.877 -107.04)" fill="#d6853a" fill-rule="evenodd"/>
        <path id="Path_1287342" data-name="Path 1287342" d="M109.909,175.44l14.222,8.212,14.222,8.212v27.953l-14.222,8.212-14.222,8.212-14.217-8.212L81.47,219.817V191.864l14.222-8.212Z" transform="translate(-66.115 -142.374)" fill="#c97629" fill-rule="evenodd"/>
        <path id="Path_1287343" data-name="Path 1287343" d="M232.36,175.44l14.222,8.212,14.223,8.212v27.953l-14.223,8.212-14.222,8.212v-60.8Z" transform="translate(-188.565 -142.374)" fill="#b06328" fill-rule="evenodd"/>
        <path id="Path_1287344" data-name="Path 1287344" d="M109.909,175.44l14.222,8.212,14.222,8.212-14.222,8.212-14.222,8.206-14.217-8.206L81.47,191.864l14.222-8.212Z" transform="translate(-66.115 -142.374)" fill="#b06328" fill-rule="evenodd"/>
        <path id="Path_1287345" data-name="Path 1287345" d="M20.232,262.58l14.222,8.212L48.672,279,34.455,287.21,6.01,270.792Z" transform="translate(-4.877 -213.09)" fill="#d6853a" fill-rule="evenodd"/>
        <path id="Path_1287346" data-name="Path 1287346" d="M260.795,262.58l-14.222,8.212L232.35,279l14.222,8.212,28.439-16.418Z" transform="translate(-188.557 -213.09)" fill="#d6853a" fill-rule="evenodd"/>
        <g id="Group_1225193" data-name="Group 1225193">
          <g id="Group_1225192" data-name="Group 1225192" clip-path="url(#clip-path)">
            <path id="Path_1287347" data-name="Path 1287347" d="M191.03,136.983h19.377a2.715,2.715,0,0,0,2.708-2.708,2.684,2.684,0,0,0-.748-1.864,1.235,1.235,0,0,1,0-1.694,2.7,2.7,0,0,0,0-3.728,1.235,1.235,0,0,1,0-1.694,2.7,2.7,0,0,0,0-3.728,1.235,1.235,0,0,1,0-1.694,2.687,2.687,0,0,0,.748-1.864,2.715,2.715,0,0,0-2.708-2.708h-5.551a1.864,1.864,0,0,1-1.806-2.33l1.383-5.343a3.245,3.245,0,0,0-2.286-3.969l-.332-.085a3.25,3.25,0,0,0-3.96,2.254l-1.945,6.9c-.384,1.363-1.153,2.569-2.569,2.569H191.03Z" transform="translate(-155.025 -83.961)" fill="#efc9ae" fill-rule="evenodd"/>
            <path id="Path_1287348" data-name="Path 1287348" d="M282.646,202.125a1.894,1.894,0,0,0-.236-.283,1.235,1.235,0,0,1,0-1.694,2.974,2.974,0,0,0,.236-.283h-4.173a1.13,1.13,0,1,0,0,2.26Zm0-5.423a2.233,2.233,0,0,0-.236-.283,1.235,1.235,0,0,1,0-1.694,2.4,2.4,0,0,0,.236-.283h-4.173a1.13,1.13,0,1,0,0,2.26Zm0-5.422a2.711,2.711,0,0,0-.236-.283,1.235,1.235,0,0,1,0-1.694,2.016,2.016,0,0,0,.236-.283h-4.173a1.13,1.13,0,1,0,0,2.26Z" transform="translate(-225.068 -153.394)" fill="#e2b698" fill-rule="evenodd"/>
            <rect id="Rectangle_414325" data-name="Rectangle 414325" width="6.502" height="21.686" transform="translate(29.502 31.336)" fill="#3589c9"/>
            <path id="Path_1287349" data-name="Path 1287349" d="M86.55,33.51,88.623,38.3l5.193.486L89.9,42.24l1.144,5.091L86.55,44.67l-4.488,2.661L83.2,42.24,79.29,38.789l5.193-.486Z" transform="translate(-64.346 -27.194)" fill="#ffcb5b" fill-rule="evenodd"/>
            <path id="Path_1287350" data-name="Path 1287350" d="M318.366,32.77l2.073,4.793,5.193.486L321.715,41.5l1.138,5.091-4.488-2.661-4.488,2.661,1.138-5.091L311.1,38.049l5.193-.486Z" transform="translate(-252.465 -26.594)" fill="#ffcb5b" fill-rule="evenodd"/>
            <path id="Path_1287351" data-name="Path 1287351" d="M201.1,6.02l2.073,4.793,5.193.486-3.917,3.451,1.144,5.093L201.1,17.182l-4.488,2.661,1.138-5.091L193.84,11.3l5.193-.486L201.1,6.022Z" transform="translate(-157.306 -4.886)" fill="#ffcb5b" fill-rule="evenodd"/>
            <path id="Path_1287352" data-name="Path 1287352" d="M41.833,7.049a1.138,1.138,0,0,0,.935-.679L43.8,3.988l1.031,2.382a1.129,1.129,0,0,0,.929.679l2.586.245L46.394,9.009a1.134,1.134,0,0,0-.358,1.1l.571,2.537-2.239-1.319a1.118,1.118,0,0,0-1.153,0l-2.233,1.319.567-2.537a1.119,1.119,0,0,0-.358-1.1L39.245,7.294l2.586-.245Zm-2.639,3.215L38.206,14.7a1.126,1.126,0,0,0,1.677,1.218l3.911-2.313,3.911,2.313A1.128,1.128,0,0,0,49.387,14.7L48.4,10.264l3.408-3a1.131,1.131,0,0,0-.641-1.977l-4.525-.428L44.835.684A1.133,1.133,0,0,0,43.793,0a1.122,1.122,0,0,0-1.037.684l-1.8,4.173-4.537.428a1.135,1.135,0,0,0-.641,1.977l3.413,3Zm24.741,1.826a1.138,1.138,0,0,0,.935-.679L65.9,9.03l1.031,2.382a1.122,1.122,0,0,0,.929.679l2.592.245L68.5,14.051a1.129,1.129,0,0,0-.352,1.1l.567,2.537-2.239-1.319a1.121,1.121,0,0,0-1.153,0l-2.233,1.319.567-2.537a1.129,1.129,0,0,0-.352-1.1l-1.951-1.715ZM61.3,15.308l-1,4.441a1.135,1.135,0,0,0,1.683,1.223L65.9,18.654l3.911,2.318a1.152,1.152,0,0,0,1.244-.058,1.134,1.134,0,0,0,.437-1.165L70.5,15.308l3.413-3a1.134,1.134,0,0,0-.646-1.977L68.743,9.9l-1.8-4.173A1.115,1.115,0,0,0,65.9,5.044a1.128,1.128,0,0,0-1.037.684L63.059,9.9l-4.531.428a1.135,1.135,0,0,0-.641,1.977l3.413,3ZM20.242,12.23a1.138,1.138,0,0,0,.935-.679L22.2,9.169l1.037,2.382a1.122,1.122,0,0,0,.929.679l2.586.245L24.8,14.19a1.146,1.146,0,0,0-.358,1.1l.567,2.537L22.779,16.5a1.121,1.121,0,0,0-1.153,0l-2.233,1.319.567-2.537a1.133,1.133,0,0,0-.358-1.1l-1.945-1.715,2.586-.245M17.6,15.448l-.993,4.441a1.141,1.141,0,0,0,.443,1.165,1.125,1.125,0,0,0,.667.213,1.091,1.091,0,0,0,.571-.16L22.2,18.793l3.917,2.313a1.125,1.125,0,0,0,1.24-.053,1.145,1.145,0,0,0,.437-1.165l-.988-4.441,3.413-3a1.134,1.134,0,0,0-.646-1.977l-4.525-.428L23.245,5.867A1.133,1.133,0,0,0,22.2,5.183a1.122,1.122,0,0,0-1.037.684L19.36,10.04l-4.531.428a1.135,1.135,0,0,0-.641,1.977l3.413,3ZM58.015,72.811l-11.957-6.9L72.232,50.795l11.957,6.9ZM71.1,76.791,44.925,91.905V67.869L57.448,75.1a1.155,1.155,0,0,0,1.135,0L71.1,67.874v8.917ZM16.488,67.874,29.007,75.1a1.134,1.134,0,0,0,.571.149,1.109,1.109,0,0,0,.562-.149l12.522-7.234V91.905L16.488,76.791Zm-1.127-17.08L41.529,65.909l-11.951,6.9L3.4,57.7Zm14.217-24.63L36.566,30.2H29.5a1.133,1.133,0,0,0-1.133,1.133v9.328L15.363,48.177,3.4,41.278,29.58,26.164Zm12.394,2.912,1.956-6.9a2.115,2.115,0,0,1,2.56-1.48l.341.1a2.111,2.111,0,0,1,1.485,2.586l-1.383,5.349a2.991,2.991,0,0,0,2.9,3.745h5.545a1.58,1.58,0,0,1,1.148,2.659,2.424,2.424,0,0,0-.364.492H53.405a1.133,1.133,0,1,0,0,2.265h2.757a2.172,2.172,0,0,0,.364.5,1.588,1.588,0,0,1,0,2.169,2.425,2.425,0,0,0-.364.492H53.405a1.133,1.133,0,1,0,0,2.265h2.757a2.3,2.3,0,0,0,.364.5,1.58,1.58,0,0,1,0,2.164,2.262,2.262,0,0,0-.364.5H53.405a1.133,1.133,0,1,0,0,2.265h2.757a2.478,2.478,0,0,0,.364.492,1.583,1.583,0,0,1-1.148,2.665H37.139V32.473h1.18c1.016,0,2.837-.437,3.655-3.393Zm-7.1,22.813H30.641V32.469h4.231ZM43.795,64.6,17.621,49.485l10.749-6.2v9.741A1.133,1.133,0,0,0,29.5,54.155H55.376a3.851,3.851,0,0,0,2.789-6.491.093.093,0,0,1,0-.134,3.834,3.834,0,0,0,.545-4.54l11.258,6.5L43.795,64.6ZM58.017,26.164,84.191,41.278l-11.957,6.9-13.175-7.6a3.857,3.857,0,0,0-.892-3.751.093.093,0,0,1,0-.134A3.844,3.844,0,0,0,55.378,30.2H51.025l6.994-4.039Zm29,30.554L74.5,49.485l12.522-7.222a1.133,1.133,0,0,0,.567-.984,1.113,1.113,0,0,0-.567-.978L58.582,23.873a1.155,1.155,0,0,0-1.133,0l-8.142,4.706,1.2-4.627A4.372,4.372,0,0,0,47.423,18.6l-.337-.1a4.406,4.406,0,0,0-5.343,3.046l-1.951,6.908a4.534,4.534,0,0,1-.3.818l-9.354-5.407a1.155,1.155,0,0,0-1.133,0L.567,40.3A1.128,1.128,0,0,0,0,41.278a1.141,1.141,0,0,0,.567.984L13.09,49.485.567,56.718A1.128,1.128,0,0,0,0,57.7a1.141,1.141,0,0,0,.567.984l13.661,7.886V77.443a1.138,1.138,0,0,0,.562.984L43.229,94.851a1.155,1.155,0,0,0,1.135,0L72.8,78.427a1.133,1.133,0,0,0,.567-.984V66.566l13.655-7.886a1.133,1.133,0,0,0,.567-.984,1.113,1.113,0,0,0-.567-.978Z" transform="translate(0 0)" fill="#070202"/>
          </g>
        </g>
      </g>
    </g>
  </g>
</svg>
