<svg xmlns="http://www.w3.org/2000/svg" xmlns:xlink="http://www.w3.org/1999/xlink" width="90" height="90" viewBox="0 0 90 90">
  <defs>
    <clipPath id="clip-path">
      <rect id="Rectangle_414505" data-name="Rectangle 414505" width="90" height="90" transform="translate(805.781 2555)" fill="#fff" stroke="#707070" stroke-width="1"/>
    </clipPath>
  </defs>
  <g id="Mask_Group_1099322" data-name="Mask Group 1099322" transform="translate(-805.781 -2555)" clip-path="url(#clip-path)">
    <g id="Group_1226029" data-name="Group 1226029" transform="translate(0 572.946)">
      <g id="Rectangle_414504" data-name="Rectangle 414504" transform="translate(806.951 1984)" fill="#fd9826" stroke="#af6a1a" stroke-width="3">
        <rect width="70" height="70" rx="10" stroke="none"/>
        <rect x="1.5" y="1.5" width="67" height="67" rx="8.5" fill="none"/>
      </g>
      <g id="Group_1227199" data-name="Group 1227199" transform="translate(-654.382 12166.054)">
        <path id="Path_1289141" data-name="Path 1289141" d="M3.54,0V15.325H18.866V0Z" transform="translate(1474.373 -10164.576)" fill="#79ccd0" stroke="#000" stroke-linecap="round" stroke-linejoin="round" stroke-width="2" stroke-dasharray="80 10"/>
        <path id="Path_1289142" data-name="Path 1289142" d="M51.927,37.935a5.394,5.394,0,1,1-5.394,5.394,5.395,5.395,0,0,1,5.394-5.394" transform="translate(1483.485 -10156.536)" fill="#79ccd0" stroke="#000" stroke-linecap="round" stroke-linejoin="round" stroke-width="2" stroke-dasharray="80 10"/>
        <path id="Path_1289143" data-name="Path 1289143" d="M39.282,37.935a5.394,5.394,0,1,1-5.393,5.394,5.394,5.394,0,0,1,5.393-5.394" transform="translate(1480.805 -10156.536)" fill="#ff7979" stroke="#000" stroke-linecap="round" stroke-linejoin="round" stroke-width="2" stroke-dasharray="80 10"/>
        <path id="Path_1289144" data-name="Path 1289144" d="M26.637,37.935a5.394,5.394,0,1,1-5.394,5.394,5.395,5.395,0,0,1,5.394-5.394" transform="translate(1478.125 -10156.536)" fill="#79ccd0" stroke="#000" stroke-linecap="round" stroke-linejoin="round" stroke-width="2" stroke-dasharray="80 10"/>
        <rect id="Rectangle_414585" data-name="Rectangle 414585" width="15.326" height="15.325" transform="translate(1497.897 -10164.576)" fill="#ff7979" stroke="#000" stroke-linecap="round" stroke-linejoin="round" stroke-width="2" stroke-dasharray="80 10"/>
        <path id="Path_1289145" data-name="Path 1289145" d="M13.993,37.935A5.394,5.394,0,1,1,8.6,43.329a5.395,5.395,0,0,1,5.394-5.394" transform="translate(1475.446 -10156.536)" fill="#ff7979" stroke="#000" stroke-linecap="round" stroke-linejoin="round" stroke-width="2" stroke-dasharray="80 10"/>
        <rect id="Rectangle_414586" data-name="Rectangle 414586" width="15.325" height="15.325" transform="translate(1477.915 -10144.717)" fill="#ff7979" stroke="#000" stroke-linecap="round" stroke-linejoin="round" stroke-width="2" stroke-dasharray="80 10"/>
        <path id="Path_1289146" data-name="Path 1289146" d="M61.789,57.264H1.225a1.226,1.226,0,0,1,0-2.452H61.789a10.469,10.469,0,0,0,10.3-10.3,10.36,10.36,0,0,0-10.3-10.3H1.225a1.226,1.226,0,0,1,0-2.452H61.789A12.82,12.82,0,0,1,74.54,44.513,12.769,12.769,0,0,1,61.789,57.264" transform="translate(1473.623 -10157.845)" fill="#3e3e3f" stroke="#000" stroke-linecap="round" stroke-linejoin="round" stroke-width="1" stroke-dasharray="80 10"/>
        <path id="Path_1289147" data-name="Path 1289147" d="M42.548,16.388H36.417V31.712H51.743V16.388Z" transform="translate(1481.341 -10161.103)" fill="#8991c0" stroke="#000" stroke-linecap="round" stroke-linejoin="round" stroke-width="2" stroke-dasharray="80 10"/>
        <path id="Path_1289148" data-name="Path 1289148" d="M51.743,24.278H36.417v2.451H51.743V24.278Z" transform="translate(1481.341 -10159.431)" fill="#5e657f"/>
        <path id="Path_1289149" data-name="Path 1289149" d="M29.224,16.388h6.131V31.712H20.029V16.388Z" transform="translate(1477.868 -10161.103)" fill="#79ccd0" stroke="#000" stroke-linecap="round" stroke-linejoin="round" stroke-width="2" stroke-dasharray="80 10"/>
        <path id="Path_1289150" data-name="Path 1289150" d="M27.83,28.4a1.158,1.158,0,0,0,1.226-1.225V16.388H26.6V27.177A1.23,1.23,0,0,0,27.83,28.4" transform="translate(1479.261 -10161.103)" fill="#497a7a"/>
        <path id="Path_1289151" data-name="Path 1289151" d="M18.866,7.789H3.539v2.452H18.866V7.789Z" transform="translate(1474.373 -10162.925)" fill="#497a7a"/>
        <path id="Path_1289152" data-name="Path 1289152" d="M8.813,7.355A1.159,1.159,0,0,0,10.04,6.129V0H7.587V6.129A1.319,1.319,0,0,0,8.813,7.355" transform="translate(1475.231 -10164.576)" fill="#497a7a"/>
        <rect id="Rectangle_414587" data-name="Rectangle 414587" width="3.065" height="3.065" transform="translate(1507.092 -10156.975)" fill="#9e4c4c"/>
        <rect id="Rectangle_414588" data-name="Rectangle 414588" width="3.065" height="3.065" transform="translate(1507.092 -10161.511)" fill="#9e4c4c"/>
        <rect id="Rectangle_414589" data-name="Rectangle 414589" width="3.065" height="3.064" transform="translate(1480.978 -10141.65)" fill="#9e4c4c"/>
      </g>
    </g>
  </g>
</svg>
