<svg xmlns="http://www.w3.org/2000/svg" xmlns:xlink="http://www.w3.org/1999/xlink" width="90" height="90" viewBox="0 0 90 90">
  <defs>
    <clipPath id="clip-path">
      <rect id="Rectangle_414530" data-name="Rectangle 414530" width="90" height="90" transform="translate(805.781 2555)" fill="#fff" stroke="#707070" stroke-width="1"/>
    </clipPath>
  </defs>
  <g id="Mask_Group_1099330" data-name="Mask Group 1099330" transform="translate(-805.781 -2555)" clip-path="url(#clip-path)">
    <g id="Group_1226727" data-name="Group 1226727" transform="translate(0 572.946)">
      <g id="Rectangle_414529" data-name="Rectangle 414529" transform="translate(806.951 1984)" fill="#fd9826" stroke="#af6a1a" stroke-width="3">
        <rect width="70" height="70" rx="10" stroke="none"/>
        <rect x="1.5" y="1.5" width="67" height="67" rx="8.5" fill="none"/>
      </g>
      <g id="Group_1227307" data-name="Group 1227307" transform="translate(824.735 1998.041)">
        <path id="Path_1289178" data-name="Path 1289178" d="M48.988,57.783a13.7,13.7,0,1,1,.244-27.4A14.48,14.48,0,0,1,55.2,31.966a13.661,13.661,0,0,1-6.21,25.817" transform="translate(7.275 6.274)" fill="#80af52" stroke="#000" stroke-linecap="round" stroke-linejoin="round" stroke-width="2" stroke-dasharray="80 3"/>
        <path id="Path_1289179" data-name="Path 1289179" d="M58.577,6.157H4.019A4.054,4.054,0,0,0,0,10.176V51.094a4.054,4.054,0,0,0,4.019,4.019H44.084a14.343,14.343,0,0,1-1.1-2.923c-.122-.364-.244-1.461-.366-2.069A13.78,13.78,0,0,1,57.358,35.263a12.4,12.4,0,0,1,5.236,1.461V10.3a4.081,4.081,0,0,0-4.018-4.141" transform="translate(0 1.272)" fill="#ecf0f1" stroke="#000" stroke-linecap="round" stroke-linejoin="round" stroke-width="2" stroke-dasharray="80 3"/>
        <rect id="Rectangle_414618" data-name="Rectangle 414618" width="6.089" height="6.089" transform="translate(30.444 38.117)" fill="#3c3b3d" stroke="#000" stroke-linecap="round" stroke-linejoin="round" stroke-width="1" stroke-dasharray="80 3"/>
        <rect id="Rectangle_414619" data-name="Rectangle 414619" width="6.089" height="6.089" transform="translate(18.267 38.117)" fill="#3c3b3d" stroke="#000" stroke-linecap="round" stroke-linejoin="round" stroke-width="1" stroke-dasharray="80 3"/>
        <rect id="Rectangle_414620" data-name="Rectangle 414620" width="6.089" height="6.089" transform="translate(6.089 38.117)" fill="#ea8686" stroke="#000" stroke-linecap="round" stroke-linejoin="round" stroke-width="1" stroke-dasharray="80 3"/>
        <rect id="Rectangle_414621" data-name="Rectangle 414621" width="6.089" height="6.088" transform="translate(42.623 25.94)" fill="#3c3b3d" stroke="#000" stroke-linecap="round" stroke-linejoin="round" stroke-width="1" stroke-dasharray="80 3"/>
        <rect id="Rectangle_414622" data-name="Rectangle 414622" width="6.089" height="6.088" transform="translate(30.444 25.94)" fill="#3c3b3d" stroke="#000" stroke-linecap="round" stroke-linejoin="round" stroke-width="1" stroke-dasharray="80 3"/>
        <rect id="Rectangle_414623" data-name="Rectangle 414623" width="6.089" height="6.088" transform="translate(18.267 25.94)" fill="#3c3b3d" stroke="#000" stroke-linecap="round" stroke-linejoin="round" stroke-width="1" stroke-dasharray="80 3"/>
        <rect id="Rectangle_414624" data-name="Rectangle 414624" width="6.089" height="6.088" transform="translate(6.089 25.94)" fill="#3c3b3d" stroke="#000" stroke-linecap="round" stroke-linejoin="round" stroke-width="1" stroke-dasharray="80 3"/>
        <path id="Path_1289180" data-name="Path 1289180" d="M43.4,9.69a2.923,2.923,0,1,1-2.923,2.922A2.964,2.964,0,0,1,43.4,9.69" transform="translate(8.359 2.001)" fill="#afb9d2"/>
        <path id="Path_1289181" data-name="Path 1289181" d="M32.093,9.69a2.923,2.923,0,1,1-2.923,2.922A2.964,2.964,0,0,1,32.093,9.69" transform="translate(6.024 2.001)" fill="#afb9d2"/>
        <path id="Path_1289182" data-name="Path 1289182" d="M20.687,9.69a2.923,2.923,0,1,1-2.922,2.922A2.964,2.964,0,0,1,20.687,9.69" transform="translate(3.669 2.001)" fill="#afb9d2"/>
        <path id="Path_1289183" data-name="Path 1289183" d="M9.382,9.69A2.923,2.923,0,1,1,6.46,12.612,2.964,2.964,0,0,1,9.382,9.69" transform="translate(1.334 2.001)" fill="#afb9d2"/>
        <path id="Path_1289184" data-name="Path 1289184" d="M43.168,14.857a1.612,1.612,0,0,1-1.583-1.583V5.236A5.2,5.2,0,0,1,46.82,0h1.219a1.614,1.614,0,0,1,1.584,1.583,1.613,1.613,0,0,1-1.584,1.583H46.82a2.184,2.184,0,0,0-2.191,2.192V13.4a1.345,1.345,0,0,1-1.461,1.461" transform="translate(8.589)" fill="#d7deed" stroke="#000" stroke-linecap="round" stroke-linejoin="round" stroke-width="2" stroke-dasharray="80 3"/>
        <path id="Path_1289185" data-name="Path 1289185" d="M31.864,14.857a1.612,1.612,0,0,1-1.583-1.583V5.236A5.2,5.2,0,0,1,35.516,0h1.219a1.614,1.614,0,0,1,1.584,1.583,1.613,1.613,0,0,1-1.584,1.583H35.516a2.184,2.184,0,0,0-2.191,2.192V13.4a1.407,1.407,0,0,1-1.461,1.461" transform="translate(6.254)" fill="#d7deed" stroke="#000" stroke-linecap="round" stroke-linejoin="round" stroke-width="2" stroke-dasharray="80 3"/>
        <path id="Path_1289186" data-name="Path 1289186" d="M20.458,14.857a1.613,1.613,0,0,1-1.583-1.583V5.236A5.2,5.2,0,0,1,24.111,0H25.33a1.613,1.613,0,0,1,1.583,1.583A1.612,1.612,0,0,1,25.33,3.166H24.111A2.182,2.182,0,0,0,21.92,5.358V13.4a1.345,1.345,0,0,1-1.462,1.461" transform="translate(3.898)" fill="#d7deed" stroke="#000" stroke-linecap="round" stroke-linejoin="round" stroke-width="2" stroke-dasharray="80 3"/>
        <path id="Path_1289187" data-name="Path 1289187" d="M9.153,14.857A1.613,1.613,0,0,1,7.57,13.274V5.236A5.2,5.2,0,0,1,12.806,0h1.219a1.613,1.613,0,0,1,1.583,1.583,1.612,1.612,0,0,1-1.583,1.583H12.806a2.183,2.183,0,0,0-2.191,2.192V13.4a1.408,1.408,0,0,1-1.462,1.461" transform="translate(1.563)" fill="#d7deed" stroke="#000" stroke-linecap="round" stroke-linejoin="round" stroke-width="2" stroke-dasharray="80 3"/>
        <path id="Path_1289188" data-name="Path 1289188" d="M49.649,46.56a1.5,1.5,0,0,0,1.217-.609l2.8-3.775L54.276,44a1.541,1.541,0,1,0,2.923-.974c-1.219-3.653-1.461-4.385-1.461-4.506h0a1.425,1.425,0,0,0-1.339-.974H49.771a1.583,1.583,0,1,0,0,3.166H51.11L48.8,43.758H43.437a1.489,1.489,0,0,0-1.1.487l-5.6,5.6a11.569,11.569,0,0,0,1.825,2.436l5.48-5.48h5.6Z" transform="translate(7.588 7.755)" fill="#fff"/>
        <path id="Path_1289189" data-name="Path 1289189" d="M52.385,38.254" transform="translate(10.819 7.901)" fill="#fff" stroke="#000" stroke-linecap="round" stroke-width="2" stroke-dasharray="80 3"/>
        <path id="Path_1289190" data-name="Path 1289190" d="M35.763,53.634H5.318a1.583,1.583,0,1,1,0-3.166H35.763a1.611,1.611,0,0,1,1.583,1.583,1.806,1.806,0,0,1-1.583,1.583" transform="translate(0.771 10.423)" fill="#d7deed" stroke="#000" stroke-linecap="round" stroke-linejoin="round" stroke-width="1" stroke-dasharray="80 3"/>
        <path id="Path_1289191" data-name="Path 1289191" d="M37.954,57.369H24.192a1.583,1.583,0,0,1,0-3.166H37.954a1.612,1.612,0,0,1,1.583,1.583,1.7,1.7,0,0,1-1.583,1.583" transform="translate(4.669 11.195)" fill="#d7deed" stroke="#000" stroke-linecap="round" stroke-linejoin="round" stroke-width="1" stroke-dasharray="80 3"/>
      </g>
    </g>
  </g>
</svg>
