<svg xmlns="http://www.w3.org/2000/svg" xmlns:xlink="http://www.w3.org/1999/xlink" width="95" height="95" viewBox="0 0 95 95">
  <defs>
    <clipPath id="clip-path">
      <rect id="Rectangle_414424" data-name="Rectangle 414424" width="92.295" height="92.295" fill="none"/>
    </clipPath>
  </defs>
  <g id="Group_1225312" data-name="Group 1225312" transform="translate(8971.112 4681.52)">
    <rect id="Rectangle_414434" data-name="Rectangle 414434" width="95" height="95" transform="translate(-8971.112 -4681.52)" fill="none"/>
    <g id="Group_1225308" data-name="Group 1225308" transform="translate(-8968.407 -4678.814)">
      <g id="Group_1225307" data-name="Group 1225307" clip-path="url(#clip-path)">
        <path id="Path_1287512" data-name="Path 1287512" d="M74.564,31.928A42.635,42.635,0,1,0,117.2,74.563,42.635,42.635,0,0,0,74.564,31.928" transform="translate(-28.416 -28.415)" fill="#68a59f" fill-rule="evenodd"/>
        <path id="Path_1287513" data-name="Path 1287513" d="M98.272,31.928a42.456,42.456,0,0,0-26.815,9.49A42.633,42.633,0,0,0,128.019,105.1,42.632,42.632,0,0,0,98.272,31.928" transform="translate(-52.125 -28.415)" fill="#a5dad4" fill-rule="evenodd"/>
        <path id="Path_1287514" data-name="Path 1287514" d="M46.148,0A46.148,46.148,0,1,0,92.295,46.146,46.149,46.149,0,0,0,46.148,0m0,87.918A41.771,41.771,0,1,1,87.918,46.146,41.77,41.77,0,0,1,46.148,87.917" transform="translate(0 0.001)"/>
        <path id="Path_1287515" data-name="Path 1287515" d="M193.821,155.667h-2.786a32.276,32.276,0,1,0-32.162,34.973v-4.306h-.013a27.983,27.983,0,1,1,27.855-30.667H184c-1.335,0-1.128,1.869-.759,2.243l4.708,6.229a1.1,1.1,0,0,0,1.571,0l4.71-6.228c.476-.481,1.071-2.244-.412-2.244" transform="translate(-112.668 -112.216)" fill-rule="evenodd"/>
        <path id="Path_1287516" data-name="Path 1287516" d="M280.256,330.911c2.339-2.431,4.071-4.8,4.071-7.079,0-3.342-3.008-5.5-7.261-5.5a14.168,14.168,0,0,0-8.507,3.159l1.884,3.585a9.863,9.863,0,0,1,5.924-2.673c1.853,0,2.917.79,2.917,2.157,0,1.033-.942,2.491-2.309,3.858l-7.869,8.112v3.311h15.98V335.8H275.3Z" transform="translate(-239.013 -283.311)"/>
        <path id="Path_1287517" data-name="Path 1287517" d="M433.316,328.165h-4.405v4.709h-4.952l6.35-12.608h-4.557l-6.775,13.125v3.342h9.935v4.83h4.405v-4.83h2.917v-3.859h-2.886Z" transform="translate(-372.882 -285.031)"/>
      </g>
    </g>
  </g>
</svg>
