<svg xmlns="http://www.w3.org/2000/svg" xmlns:xlink="http://www.w3.org/1999/xlink" width="95" height="95" viewBox="0 0 95 95">
  <defs>
    <clipPath id="clip-path">
      <rect id="Rectangle_414423" data-name="Rectangle 414423" width="91.623" height="91.623" fill="none" stroke="#707070" stroke-width="2"/>
    </clipPath>
  </defs>
  <g id="Group_1225311" data-name="Group 1225311" transform="translate(8655.112 4681.52)">
    <rect id="Rectangle_414435" data-name="Rectangle 414435" width="95" height="95" transform="translate(-8655.112 -4681.52)" fill="none"/>
    <g id="Group_1225306" data-name="Group 1225306" transform="translate(-8655.112 -4680.882)">
      <g id="Group_1225305" data-name="Group 1225305" clip-path="url(#clip-path)">
        <path id="Path_1287488" data-name="Path 1287488" d="M159.628,386.172v-3a3.536,3.536,0,0,1,3.536-3.538h41.623a3.536,3.536,0,0,1,3.536,3.538v3" transform="translate(-138.204 -328.679)" fill="none" stroke="#000" stroke-linecap="round" stroke-linejoin="round" stroke-width="2"/>
        <path id="Path_1287489" data-name="Path 1287489" d="M159.627,254.306v4.069a3.537,3.537,0,0,0,3.536,3.538h6.3" transform="translate(-138.203 -220.175)" fill="none" stroke="#000" stroke-linecap="round" stroke-linejoin="round" stroke-width="2"/>
        <path id="Path_1287490" data-name="Path 1287490" d="M312.136,254.306v4.069a3.538,3.538,0,0,1-3.538,3.538H279.533" transform="translate(-242.016 -220.175)" fill="none" stroke="#000" stroke-linecap="round" stroke-linejoin="round" stroke-width="2"/>
        <path id="Path_1287491" data-name="Path 1287491" d="M474.5,199.307l-6.474-2.511-5.46,2.511a1.344,1.344,0,0,0-1.225.791l-1.136,2.519a1.344,1.344,0,0,0,1.225,1.9h14.206a1.344,1.344,0,0,0,1.225-1.9l-1.136-2.519a1.344,1.344,0,0,0-1.225-.791" transform="translate(-398.337 -170.383)" fill="#8d9ca8" stroke="#707070" stroke-width="2"/>
        <path id="Path_1287492" data-name="Path 1287492" d="M463.572,218.812a1.344,1.344,0,0,0,1.226,1.9H461.43a1.344,1.344,0,0,1-1.226-1.9l1.136-2.519a1.346,1.346,0,0,1,1.226-.791h3.367a1.346,1.346,0,0,0-1.226.791Z" transform="translate(-398.334 -186.578)" fill="#7a8c98" stroke="#707070" stroke-width="2"/>
        <path id="Path_1287493" data-name="Path 1287493" d="M474.5,215.5H462.569a1.344,1.344,0,0,0-1.225.791l-1.136,2.519a1.344,1.344,0,0,0,1.225,1.9h14.206a1.344,1.344,0,0,0,1.225-1.9l-1.136-2.519A1.344,1.344,0,0,0,474.5,215.5Z" transform="translate(-398.337 -186.58)" fill="none" stroke="#000" stroke-linecap="round" stroke-linejoin="round" stroke-width="2"/>
        <path id="Path_1287494" data-name="Path 1287494" d="M409.3,10H378.46a4.6,4.6,0,0,0-4.6,4.6V32.98a4.6,4.6,0,0,0,4.6,4.6H409.3a4.6,4.6,0,0,0,4.6-4.6V14.6a4.6,4.6,0,0,0-4.6-4.6" transform="translate(-323.682 -8.658)" fill="#8d9ca8" stroke="#000" stroke-width="2"/>
        <rect id="Rectangle_414414" data-name="Rectangle 414414" width="30.385" height="17.922" transform="translate(55.006 6.172)" fill="#9be69d" stroke="#707070" stroke-width="2"/>
        <rect id="Rectangle_414415" data-name="Rectangle 414415" width="30.385" height="17.922" transform="translate(55.006 6.172)" fill="none" stroke="#000" stroke-linecap="round" stroke-linejoin="round" stroke-width="2"/>
        <path id="Path_1287495" data-name="Path 1287495" d="M111.091,199.307l-6.474-2.511-5.46,2.511a1.344,1.344,0,0,0-1.226.791L96.8,202.617a1.344,1.344,0,0,0,1.225,1.9h14.207a1.344,1.344,0,0,0,1.225-1.9l-1.136-2.519a1.344,1.344,0,0,0-1.226-.791" transform="translate(-83.7 -170.383)" fill="#8d9ca8" stroke="#707070" stroke-width="2"/>
        <path id="Path_1287496" data-name="Path 1287496" d="M100.16,218.812a1.344,1.344,0,0,0,1.226,1.9H98.018a1.344,1.344,0,0,1-1.226-1.9l1.136-2.519a1.346,1.346,0,0,1,1.226-.791h3.367a1.346,1.346,0,0,0-1.226.791Z" transform="translate(-83.697 -186.578)" fill="#7a8c98" stroke="#707070" stroke-width="2"/>
        <path id="Path_1287497" data-name="Path 1287497" d="M111.091,215.5H99.157a1.344,1.344,0,0,0-1.226.791L96.8,218.813a1.344,1.344,0,0,0,1.225,1.9h14.207a1.344,1.344,0,0,0,1.225-1.9l-1.136-2.519A1.344,1.344,0,0,0,111.091,215.5Z" transform="translate(-83.7 -186.58)" fill="none" stroke="#000" stroke-linecap="round" stroke-linejoin="round" stroke-width="2"/>
        <path id="Path_1287498" data-name="Path 1287498" d="M45.891,10H15.049a4.6,4.6,0,0,0-4.6,4.6V32.98a4.6,4.6,0,0,0,4.6,4.6H45.891a4.6,4.6,0,0,0,4.6-4.6V14.6a4.6,4.6,0,0,0-4.6-4.6" transform="translate(-9.046 -8.658)" fill="#8d9ca8" stroke="#000" stroke-width="2"/>
        <rect id="Rectangle_414417" data-name="Rectangle 414417" width="30.385" height="17.922" transform="translate(6.232 6.172)" fill="#9be69d" stroke="#707070" stroke-width="2"/>
        <path id="Path_1287499" data-name="Path 1287499" d="M46.426,56.426v7.482H76.812V45.986H46.426V50.17" transform="translate(-40.195 -39.814)" fill="none" stroke="#000" stroke-linecap="round" stroke-linejoin="round" stroke-width="2"/>
        <path id="Path_1287500" data-name="Path 1287500" d="M474.5,617.673l-6.474-2.51-5.46,2.51a1.345,1.345,0,0,0-1.225.792l-1.136,2.519a1.344,1.344,0,0,0,1.225,1.9h14.206a1.344,1.344,0,0,0,1.225-1.9l-1.136-2.519a1.345,1.345,0,0,0-1.225-.792" transform="translate(-398.337 -532.6)" fill="#8d9ca8" stroke="#707070" stroke-width="2"/>
        <path id="Path_1287501" data-name="Path 1287501" d="M463.572,637.177a1.344,1.344,0,0,0,1.226,1.9H461.43a1.344,1.344,0,0,1-1.226-1.9l1.136-2.519a1.345,1.345,0,0,1,1.226-.791h3.367a1.346,1.346,0,0,0-1.226.791Z" transform="translate(-398.334 -548.793)" fill="#7a8c98" stroke="#707070" stroke-width="2"/>
        <path id="Path_1287502" data-name="Path 1287502" d="M474.5,633.868H462.569a1.345,1.345,0,0,0-1.225.791l-1.136,2.519a1.344,1.344,0,0,0,1.225,1.9h14.206a1.344,1.344,0,0,0,1.225-1.9l-1.136-2.519A1.345,1.345,0,0,0,474.5,633.868Z" transform="translate(-398.337 -548.794)" fill="none" stroke="#000" stroke-linecap="round" stroke-linejoin="round" stroke-width="2"/>
        <path id="Path_1287503" data-name="Path 1287503" d="M409.3,428.366H378.46a4.6,4.6,0,0,0-4.6,4.6v18.379a4.6,4.6,0,0,0,4.6,4.6H409.3a4.6,4.6,0,0,0,4.6-4.6V432.967a4.6,4.6,0,0,0-4.6-4.6" transform="translate(-323.682 -370.873)" fill="#8d9ca8" stroke="#707070" stroke-width="2"/>
        <path id="Path_1287504" data-name="Path 1287504" d="M406.542,428.36H409.3a4.6,4.6,0,0,1,4.6,4.6v18.378a4.6,4.6,0,0,1-4.6,4.6h-30.84a4.6,4.6,0,0,1-4.6-4.6V432.963a4.6,4.6,0,0,1,4.6-4.6h21.827" transform="translate(-323.677 -370.868)" fill="none" stroke="#000" stroke-linecap="round" stroke-linejoin="round" stroke-width="2"/>
        <rect id="Rectangle_414418" data-name="Rectangle 414418" width="30.385" height="17.922" transform="translate(55.006 62.322)" fill="#9be69d" stroke="#707070" stroke-width="2"/>
        <rect id="Rectangle_414419" data-name="Rectangle 414419" width="30.385" height="17.922" transform="translate(55.006 62.322)" fill="none" stroke="#000" stroke-linecap="round" stroke-linejoin="round" stroke-width="2"/>
        <path id="Path_1287505" data-name="Path 1287505" d="M111.091,617.673l-6.474-2.51-5.46,2.51a1.345,1.345,0,0,0-1.226.792L96.8,620.984a1.344,1.344,0,0,0,1.225,1.9h14.207a1.344,1.344,0,0,0,1.225-1.9l-1.136-2.519a1.345,1.345,0,0,0-1.226-.792" transform="translate(-83.7 -532.6)" fill="#8d9ca8" stroke="#707070" stroke-width="2"/>
        <path id="Path_1287506" data-name="Path 1287506" d="M100.16,637.177a1.344,1.344,0,0,0,1.226,1.9H98.018a1.344,1.344,0,0,1-1.226-1.9l1.136-2.519a1.345,1.345,0,0,1,1.226-.791h3.367a1.346,1.346,0,0,0-1.226.791Z" transform="translate(-83.697 -548.793)" fill="#7a8c98" stroke="#707070" stroke-width="2"/>
        <path id="Path_1287507" data-name="Path 1287507" d="M111.091,633.868H99.157a1.345,1.345,0,0,0-1.226.791L96.8,637.178a1.344,1.344,0,0,0,1.225,1.9h14.207a1.344,1.344,0,0,0,1.225-1.9l-1.136-2.519A1.345,1.345,0,0,0,111.091,633.868Z" transform="translate(-83.7 -548.794)" fill="none" stroke="#000" stroke-linecap="round" stroke-linejoin="round" stroke-width="2"/>
        <path id="Path_1287508" data-name="Path 1287508" d="M45.891,428.366H15.049a4.6,4.6,0,0,0-4.6,4.6v18.379a4.6,4.6,0,0,0,4.6,4.6H45.891a4.6,4.6,0,0,0,4.6-4.6V432.967a4.6,4.6,0,0,0-4.6-4.6" transform="translate(-9.046 -370.873)" fill="#8d9ca8" stroke="#000" stroke-width="2"/>
        <rect id="Rectangle_414421" data-name="Rectangle 414421" width="30.385" height="17.922" transform="translate(6.232 62.322)" fill="#fe646f" stroke="#707070" stroke-width="2"/>
        <rect id="Rectangle_414422" data-name="Rectangle 414422" width="30.385" height="17.922" transform="translate(6.232 62.322)" fill="none" stroke="#000" stroke-linecap="round" stroke-linejoin="round" stroke-width="2"/>
        <line id="Line_1164" data-name="Line 1164" y1="9.214" transform="translate(45.772 41.738)" fill="none" stroke="#000" stroke-linecap="round" stroke-linejoin="round" stroke-width="2"/>
        <path id="Path_1287509" data-name="Path 1287509" d="M127.021,85.361l3.432,4.164,5.491-9.041" transform="translate(-109.973 -69.682)" fill="none" stroke="#000" stroke-linecap="round" stroke-linejoin="round" stroke-width="2"/>
        <path id="Path_1287510" data-name="Path 1287510" d="M493.176,85.361l3.432,4.164,5.491-9.041" transform="translate(-426.985 -69.682)" fill="none" stroke="#000" stroke-linecap="round" stroke-linejoin="round" stroke-width="2"/>
        <path id="Path_1287511" data-name="Path 1287511" d="M493.176,504.693l3.432,4.164,5.491-9.041" transform="translate(-426.985 -432.733)" fill="none" stroke="#000" stroke-linecap="round" stroke-linejoin="round" stroke-width="2"/>
        <line id="Line_1165" data-name="Line 1165" x2="8.565" y2="8.565" transform="translate(17.142 67.021)" fill="none" stroke="#000" stroke-linecap="round" stroke-linejoin="round" stroke-width="2"/>
        <line id="Line_1166" data-name="Line 1166" y1="8.565" x2="8.565" transform="translate(17.142 67.021)" fill="none" stroke="#000" stroke-linecap="round" stroke-linejoin="round" stroke-width="2"/>
      </g>
    </g>
  </g>
</svg>
