<svg xmlns="http://www.w3.org/2000/svg" xmlns:xlink="http://www.w3.org/1999/xlink" width="100" height="100" viewBox="0 0 100 100">
  <defs>
    <clipPath id="clip-path">
      <rect id="Rectangle_414158" data-name="Rectangle 414158" width="100" height="100" transform="translate(335.781 4440)" fill="#fff" stroke="#707070" stroke-width="1"/>
    </clipPath>
  </defs>
  <g id="Mask_Group_1099313" data-name="Mask Group 1099313" transform="translate(-335.781 -4440)" clip-path="url(#clip-path)">
    <g id="Group_1224961" data-name="Group 1224961" transform="translate(-470.656 2458.387)">
      <g id="Rectangle_414157" data-name="Rectangle 414157" transform="translate(806.951 1984)" fill="#b7a8f1" stroke="#7f74a8" stroke-width="3">
        <rect width="79.44" height="79.44" rx="10" stroke="none"/>
        <rect x="1.5" y="1.5" width="76.44" height="76.44" rx="8.5" fill="none"/>
      </g>
      <g id="calculation_7650833" transform="translate(819.449 1996.643)">
        <g id="Group_1224957" data-name="Group 1224957" transform="translate(0 0)">
          <g id="Group_1224917" data-name="Group 1224917" transform="translate(1.02 1.02)">
            <g id="Group_1224875" data-name="Group 1224875" transform="translate(9.426)">
              <path id="Path_1287069" data-name="Path 1287069" d="M62.713,4.05H24.14L8.73,19.46V62.1h6.692a12.579,12.579,0,1,1,9.616,20.687h26.6a5.439,5.439,0,0,1-5.44-5.44v-38.3a5.439,5.439,0,0,1,5.44-5.44H65.488V6.825A2.786,2.786,0,0,0,62.713,4.05Z" transform="translate(-8.73 -4.05)" fill="#e2e2e2"/>
            </g>
            <g id="Group_1224876" data-name="Group 1224876" transform="translate(34.139 0)" opacity="0.3">
              <path id="Path_1287070" data-name="Path 1287070" d="M56.211,4.05H26.9V24.261A21.37,21.37,0,0,0,48.268,45.629H58.931V6.77a2.719,2.719,0,0,0-2.72-2.72Z" transform="translate(-26.9 -4.05)" fill="#fff"/>
            </g>
            <g id="Group_1224877" data-name="Group 1224877" transform="translate(39.784 0)" opacity="0.5">
              <path id="Path_1287071" data-name="Path 1287071" d="M54.716,4.05H31.05a4.284,4.284,0,0,0,4.284,4.284H53.669v6.2A3.767,3.767,0,0,0,57.436,18.3V6.77a2.719,2.719,0,0,0-2.72-2.72Z" transform="translate(-31.05 -4.05)" fill="#fff"/>
            </g>
            <g id="Group_1224886" data-name="Group 1224886" transform="translate(0 48.371)">
              <g id="Group_1224878" data-name="Group 1224878" transform="translate(7.934 0)">
                <circle id="Ellipse_12611" data-name="Ellipse 12611" cx="12.581" cy="12.581" r="12.581" transform="translate(0 17.79) rotate(-45)" fill="#ffab03"/>
              </g>
              <g id="Group_1224879" data-name="Group 1224879" transform="translate(0 23.485)">
                <path id="Path_1287072" data-name="Path 1287072" d="M16.313,56.88H3.065A1.263,1.263,0,0,0,1.8,58.145v4.366a1.263,1.263,0,0,0,1.265,1.265H24.324a1.348,1.348,0,0,0,.721-.245A12.608,12.608,0,0,1,16.313,56.88Z" transform="translate(-1.8 -56.88)" fill="#ffab03"/>
              </g>
              <g id="Group_1224880" data-name="Group 1224880" transform="translate(0 16.589)">
                <path id="Path_1287073" data-name="Path 1287073" d="M14.939,53.021a11.814,11.814,0,0,1,.068-1.211H3.065A1.263,1.263,0,0,0,1.8,53.075v4.366a1.263,1.263,0,0,0,1.265,1.265H16.313A12.528,12.528,0,0,1,14.939,53.021Z" transform="translate(-1.8 -51.81)" fill="#ffab03"/>
              </g>
              <g id="Group_1224881" data-name="Group 1224881" transform="translate(5.06 9.68)">
                <path id="Path_1287074" data-name="Path 1287074" d="M16.578,46.73H6.785A1.263,1.263,0,0,0,5.52,47.995v4.366a1.263,1.263,0,0,0,1.265,1.265h6.882a12.506,12.506,0,0,1,2.911-6.9Z" transform="translate(-5.52 -46.73)" fill="#ffab03"/>
              </g>
              <g id="Group_1224882" data-name="Group 1224882" transform="translate(9.725 9.68)" opacity="0.3">
                <path id="Path_1287075" data-name="Path 1287075" d="M15.343,46.73H8.95v2.135a1.263,1.263,0,0,0,1.265,1.265h3.074a12.746,12.746,0,0,1,2.054-3.4Z" transform="translate(-8.95 -46.73)" fill="#fff"/>
              </g>
              <g id="Group_1224883" data-name="Group 1224883" transform="translate(4.665 16.589)" opacity="0.3">
                <path id="Path_1287076" data-name="Path 1287076" d="M13.7,53.021a11.814,11.814,0,0,1,.068-1.211H5.23v2.135A1.263,1.263,0,0,0,6.495,55.21h7.413A12.983,12.983,0,0,1,13.7,53.021Z" transform="translate(-5.23 -51.81)" fill="#fff"/>
              </g>
              <g id="Group_1224884" data-name="Group 1224884" transform="translate(4.665 23.485)" opacity="0.3">
                <path id="Path_1287077" data-name="Path 1287077" d="M15.077,56.88H5.23v2.135A1.263,1.263,0,0,0,6.495,60.28h11.1a12.911,12.911,0,0,1-2.516-3.4Z" transform="translate(-5.23 -56.88)" fill="#fff"/>
              </g>
              <g id="Group_1224885" data-name="Group 1224885" transform="translate(19.273 5.218)" opacity="0.3">
                <path id="Path_1287078" data-name="Path 1287078" d="M22.431,43.45a12.757,12.757,0,0,0-5.291,1.17,12.576,12.576,0,0,0,16.7,16.7A12.576,12.576,0,0,0,22.431,43.45Z" transform="translate(-15.97 -43.45)" fill="#fff"/>
              </g>
            </g>
            <g id="Group_1224887" data-name="Group 1224887" transform="translate(46.897 29.555)">
              <path id="Path_1287079" data-name="Path 1287079" d="M68.814,25.78H41.72a5.439,5.439,0,0,0-5.44,5.44V69.535a5.439,5.439,0,0,0,5.44,5.44H68.814a5.439,5.439,0,0,0,5.44-5.44V31.22a5.439,5.439,0,0,0-5.44-5.44Z" transform="translate(-36.28 -25.78)" fill="#4e6575"/>
            </g>
            <g id="Group_1224888" data-name="Group 1224888" transform="translate(60.498 29.555)" opacity="0.3">
              <path id="Path_1287080" data-name="Path 1287080" d="M65.213,25.78H46.28V57.294a5.439,5.439,0,0,0,5.44,5.44H70.653V31.22a5.439,5.439,0,0,0-5.44-5.44Z" transform="translate(-46.28 -25.78)" fill="#e2e2e2"/>
            </g>
            <g id="Group_1224889" data-name="Group 1224889" transform="translate(52.338 34.996)">
              <path id="Path_1287081" data-name="Path 1287081" d="M40.28,29.78H67.387V39.3H40.28Z" transform="translate(-40.28 -29.78)" fill="#7cb5e8"/>
            </g>
            <g id="Group_1224890" data-name="Group 1224890" transform="translate(59.138 34.996)" opacity="0.3">
              <path id="Path_1287082" data-name="Path 1287082" d="M45.28,31.14a4.075,4.075,0,0,0,4.08,4.08H65.573V29.78H45.28Z" transform="translate(-45.28 -29.78)" fill="#fff"/>
            </g>
            <g id="Group_1224891" data-name="Group 1224891" transform="translate(52.338 49.957)">
              <path id="Path_1287083" data-name="Path 1287083" d="M40.28,40.78h6.311v5.06H40.28Z" transform="translate(-40.28 -40.78)" fill="#ef4a51"/>
            </g>
            <g id="Group_1224892" data-name="Group 1224892" transform="translate(62.729 49.957)">
              <path id="Path_1287084" data-name="Path 1287084" d="M47.92,40.78h6.311v5.06H47.92Z" transform="translate(-47.92 -40.78)" fill="#ef4a51"/>
            </g>
            <g id="Group_1224893" data-name="Group 1224893" transform="translate(73.12 49.957)">
              <path id="Path_1287085" data-name="Path 1287085" d="M55.56,40.78h6.311v5.06H55.56Z" transform="translate(-55.56 -40.78)" fill="#ef4a51"/>
            </g>
            <g id="Group_1224894" data-name="Group 1224894" transform="translate(52.338 59.097)">
              <path id="Path_1287086" data-name="Path 1287086" d="M40.28,47.5h6.311v5.06H40.28Z" transform="translate(-40.28 -47.5)" fill="#ef4a51"/>
            </g>
            <g id="Group_1224895" data-name="Group 1224895" transform="translate(62.729 59.097)">
              <path id="Path_1287087" data-name="Path 1287087" d="M47.92,47.5h6.311v5.06H47.92Z" transform="translate(-47.92 -47.5)" fill="#ef4a51"/>
            </g>
            <g id="Group_1224896" data-name="Group 1224896" transform="translate(73.12 59.097)">
              <path id="Path_1287088" data-name="Path 1287088" d="M55.56,47.5h6.311v5.06H55.56Z" transform="translate(-55.56 -47.5)" fill="#ef4a51"/>
            </g>
            <g id="Group_1224897" data-name="Group 1224897" transform="translate(52.338 68.237)">
              <path id="Path_1287089" data-name="Path 1287089" d="M40.28,54.22h6.311v5.06H40.28Z" transform="translate(-40.28 -54.22)" fill="#ef4a51"/>
            </g>
            <g id="Group_1224898" data-name="Group 1224898" transform="translate(62.729 68.237)">
              <path id="Path_1287090" data-name="Path 1287090" d="M47.92,54.22h6.311v5.06H47.92Z" transform="translate(-47.92 -54.22)" fill="#ef4a51"/>
            </g>
            <g id="Group_1224899" data-name="Group 1224899" transform="translate(73.12 68.237)">
              <path id="Path_1287091" data-name="Path 1287091" d="M55.56,54.22h6.311v5.06H55.56Z" transform="translate(-55.56 -54.22)" fill="#ef4a51"/>
            </g>
            <g id="Group_1224900" data-name="Group 1224900" transform="translate(40.804 5.25)">
              <path id="Path_1287092" data-name="Path 1287092" d="M41.321,7.91a9.521,9.521,0,1,0,9.521,9.521H41.321Z" transform="translate(-31.8 -7.91)" fill="#8aba55"/>
            </g>
            <g id="Group_1224901" data-name="Group 1224901" transform="translate(50.325 5.25)">
              <path id="Path_1287093" data-name="Path 1287093" d="M38.8,7.91v9.521h9.521A9.531,9.531,0,0,0,38.8,7.91Z" transform="translate(-38.8 -7.91)" fill="#ffab03"/>
            </g>
            <g id="Group_1224902" data-name="Group 1224902" transform="translate(44.789 5.25)" opacity="0.3">
              <path id="Path_1287094" data-name="Path 1287094" d="M40.266,7.91a9.392,9.392,0,0,0-4.434,1.1A9.525,9.525,0,0,0,48.685,21.878,9.543,9.543,0,0,0,40.266,7.91Z" transform="translate(-34.73 -7.91)" fill="#fff"/>
            </g>
            <g id="Group_1224903" data-name="Group 1224903" transform="translate(9.426 0)">
              <path id="Path_1287095" data-name="Path 1287095" d="M21.379,19.46A2.763,2.763,0,0,0,24.14,16.7V4.05L8.73,19.46Z" transform="translate(-8.73 -4.05)" fill="#5e7588"/>
            </g>
            <g id="Group_1224904" data-name="Group 1224904" transform="translate(22.524 78.506)">
              <path id="Path_1287096" data-name="Path 1287096" d="M18.36,62.015h3.21a12.459,12.459,0,0,1-2.489-.245A1.348,1.348,0,0,1,18.36,62.015Z" transform="translate(-18.36 -61.77)" fill="#e2e2e2"/>
            </g>
            <g id="Group_1224914" data-name="Group 1224914" transform="translate(54.024 49.957)" opacity="0.3">
              <g id="Group_1224905" data-name="Group 1224905" transform="translate(20.783)">
                <path id="Path_1287097" data-name="Path 1287097" d="M56.8,41.025a2.728,2.728,0,0,0,2.72,2.72h1.9V40.78H56.8Z" transform="translate(-56.8 -40.78)" fill="#fff"/>
              </g>
              <g id="Group_1224906" data-name="Group 1224906" transform="translate(20.783 9.14)">
                <path id="Path_1287098" data-name="Path 1287098" d="M56.8,47.745a2.728,2.728,0,0,0,2.72,2.72h1.9V47.5H56.8Z" transform="translate(-56.8 -47.5)" fill="#fff"/>
              </g>
              <g id="Group_1224907" data-name="Group 1224907" transform="translate(20.783 18.294)">
                <path id="Path_1287099" data-name="Path 1287099" d="M56.8,54.475a2.728,2.728,0,0,0,2.72,2.72h1.9V54.23H56.8Z" transform="translate(-56.8 -54.23)" fill="#fff"/>
              </g>
              <g id="Group_1224908" data-name="Group 1224908" transform="translate(10.391)">
                <path id="Path_1287100" data-name="Path 1287100" d="M49.16,41.025a2.728,2.728,0,0,0,2.72,2.72h1.9V40.78H49.16Z" transform="translate(-49.16 -40.78)" fill="#fff"/>
              </g>
              <g id="Group_1224909" data-name="Group 1224909" transform="translate(10.391 9.14)">
                <path id="Path_1287101" data-name="Path 1287101" d="M49.16,47.745a2.728,2.728,0,0,0,2.72,2.72h1.9V47.5H49.16Z" transform="translate(-49.16 -47.5)" fill="#fff"/>
              </g>
              <g id="Group_1224910" data-name="Group 1224910" transform="translate(10.391 18.294)">
                <path id="Path_1287102" data-name="Path 1287102" d="M49.16,54.475a2.728,2.728,0,0,0,2.72,2.72h1.9V54.23H49.16Z" transform="translate(-49.16 -54.23)" fill="#fff"/>
              </g>
              <g id="Group_1224911" data-name="Group 1224911">
                <path id="Path_1287103" data-name="Path 1287103" d="M41.52,41.025a2.728,2.728,0,0,0,2.72,2.72h1.9V40.78H41.52Z" transform="translate(-41.52 -40.78)" fill="#fff"/>
              </g>
              <g id="Group_1224912" data-name="Group 1224912" transform="translate(0 9.14)">
                <path id="Path_1287104" data-name="Path 1287104" d="M41.52,47.745a2.728,2.728,0,0,0,2.72,2.72h1.9V47.5H41.52Z" transform="translate(-41.52 -47.5)" fill="#fff"/>
              </g>
              <g id="Group_1224913" data-name="Group 1224913" transform="translate(0 18.294)">
                <path id="Path_1287105" data-name="Path 1287105" d="M41.52,54.475a2.728,2.728,0,0,0,2.72,2.72h1.9V54.23H41.52Z" transform="translate(-41.52 -54.23)" fill="#fff"/>
              </g>
            </g>
            <g id="Group_1224915" data-name="Group 1224915" transform="translate(16.362 0)" opacity="0.3">
              <path id="Path_1287106" data-name="Path 1287106" d="M21.841,18.222A2.792,2.792,0,0,0,22.3,16.7V4.05L13.83,12.524A10.253,10.253,0,0,0,21.841,18.222Z" transform="translate(-13.83 -4.05)" fill="#e2e2e2"/>
            </g>
            <g id="Group_1224916" data-name="Group 1224916" transform="translate(66.673 29.542)" opacity="0.5">
              <path id="Path_1287107" data-name="Path 1287107" d="M63.578,25.77H50.82a2.949,2.949,0,0,0,2.951,2.951h9.915a2.728,2.728,0,0,1,2.72,2.72v4.271a2.6,2.6,0,0,0,2.6,2.6V31.2a5.416,5.416,0,0,0-5.427-5.427Z" transform="translate(-50.82 -25.77)" fill="#fff"/>
            </g>
          </g>
          <g id="Group_1224956" data-name="Group 1224956">
            <g id="Group_1224918" data-name="Group 1224918" transform="translate(9.426 0)">
              <path id="Path_1287108" data-name="Path 1287108" d="M9,60.67a1.028,1.028,0,0,1-1.02-1.02V19.73a1.019,1.019,0,0,1,.3-.721L23.689,3.6a1.019,1.019,0,0,1,.721-.3H62.983a3.791,3.791,0,0,1,3.781,3.781v18.77a1.02,1.02,0,1,1-2.04,0V7.095a1.744,1.744,0,0,0-1.741-1.741H24.832L10.02,20.152v39.5A1.01,1.01,0,0,1,9,60.67Z" transform="translate(-7.98 -3.3)"/>
            </g>
            <g id="Group_1224919" data-name="Group 1224919" transform="translate(66.17 25.217)">
              <path id="Path_1287109" data-name="Path 1287109" d="M50.72,28.219A1.028,1.028,0,0,1,49.7,27.2V22.86a1.02,1.02,0,1,1,2.04,0V27.2A1.019,1.019,0,0,1,50.72,28.219Z" transform="translate(-49.7 -21.84)"/>
            </g>
            <g id="Group_1224920" data-name="Group 1224920" transform="translate(34.425 78.751)">
              <path id="Path_1287110" data-name="Path 1287110" d="M45.293,63.24H27.38a1.02,1.02,0,0,1,0-2.04H45.293a1.02,1.02,0,0,1,0,2.04Z" transform="translate(-26.36 -61.2)"/>
            </g>
            <g id="Group_1224921" data-name="Group 1224921" transform="translate(46.897 29.555)">
              <path id="Path_1287111" data-name="Path 1287111" d="M69.084,76.266H41.991a6.466,6.466,0,0,1-6.461-6.461V43.256a1.02,1.02,0,0,1,2.04,0v26.55a4.429,4.429,0,0,0,4.42,4.42H69.084a4.429,4.429,0,0,0,4.42-4.42V31.491a4.429,4.429,0,0,0-4.42-4.42H41.991a4.429,4.429,0,0,0-4.42,4.42V39a1.02,1.02,0,0,1-2.04,0V31.491a6.466,6.466,0,0,1,6.461-6.461H69.084a6.466,6.466,0,0,1,6.461,6.461V69.805a6.466,6.466,0,0,1-6.461,6.461Z" transform="translate(-35.53 -25.03)"/>
            </g>
            <g id="Group_1224922" data-name="Group 1224922" transform="translate(9.426)">
              <path id="Path_1287112" data-name="Path 1287112" d="M21.649,20.75H9a1.02,1.02,0,0,1,0-2.04H21.649a1.744,1.744,0,0,0,1.741-1.741V4.32a1.02,1.02,0,0,1,2.04,0V16.969A3.782,3.782,0,0,1,21.649,20.75Z" transform="translate(-7.98 -3.3)"/>
            </g>
            <g id="Group_1224923" data-name="Group 1224923" transform="translate(52.338 34.996)">
              <path id="Path_1287113" data-name="Path 1287113" d="M67.644,40.591H40.55a1.028,1.028,0,0,1-1.02-1.02V30.05a1.028,1.028,0,0,1,1.02-1.02H67.644a1.028,1.028,0,0,1,1.02,1.02v9.521a1.019,1.019,0,0,1-1.02,1.02ZM41.57,38.551H66.624V31.07H41.57Z" transform="translate(-39.53 -29.03)"/>
            </g>
            <g id="Group_1224924" data-name="Group 1224924" transform="translate(52.338 49.957)">
              <path id="Path_1287114" data-name="Path 1287114" d="M46.861,47.13H40.55a1.028,1.028,0,0,1-1.02-1.02V41.05a1.028,1.028,0,0,1,1.02-1.02h6.311a1.028,1.028,0,0,1,1.02,1.02v5.06A1.028,1.028,0,0,1,46.861,47.13ZM41.57,45.09h4.271V42.07H41.57Z" transform="translate(-39.53 -40.03)"/>
            </g>
            <g id="Group_1224925" data-name="Group 1224925" transform="translate(62.729 49.957)">
              <path id="Path_1287115" data-name="Path 1287115" d="M54.5,47.13H48.19a1.028,1.028,0,0,1-1.02-1.02V41.05a1.028,1.028,0,0,1,1.02-1.02H54.5a1.028,1.028,0,0,1,1.02,1.02v5.06A1.019,1.019,0,0,1,54.5,47.13ZM49.21,45.09h4.271V42.07H49.21Z" transform="translate(-47.17 -40.03)"/>
            </g>
            <g id="Group_1224926" data-name="Group 1224926" transform="translate(73.12 49.957)">
              <path id="Path_1287116" data-name="Path 1287116" d="M62.141,47.13H55.83a1.028,1.028,0,0,1-1.02-1.02V41.05a1.028,1.028,0,0,1,1.02-1.02h6.311a1.028,1.028,0,0,1,1.02,1.02v5.06A1.019,1.019,0,0,1,62.141,47.13ZM56.85,45.09h4.271V42.07H56.85Z" transform="translate(-54.81 -40.03)"/>
            </g>
            <g id="Group_1224927" data-name="Group 1224927" transform="translate(52.338 59.097)">
              <path id="Path_1287117" data-name="Path 1287117" d="M46.861,53.85H40.55a1.028,1.028,0,0,1-1.02-1.02V47.77a1.028,1.028,0,0,1,1.02-1.02h6.311a1.028,1.028,0,0,1,1.02,1.02v5.06A1.019,1.019,0,0,1,46.861,53.85ZM41.57,51.81h4.271V48.79H41.57Z" transform="translate(-39.53 -46.75)"/>
            </g>
            <g id="Group_1224928" data-name="Group 1224928" transform="translate(62.729 59.097)">
              <path id="Path_1287118" data-name="Path 1287118" d="M54.5,53.85H48.19a1.028,1.028,0,0,1-1.02-1.02V47.77a1.028,1.028,0,0,1,1.02-1.02H54.5a1.028,1.028,0,0,1,1.02,1.02v5.06A1.01,1.01,0,0,1,54.5,53.85ZM49.21,51.81h4.271V48.79H49.21Z" transform="translate(-47.17 -46.75)"/>
            </g>
            <g id="Group_1224929" data-name="Group 1224929" transform="translate(73.12 59.097)">
              <path id="Path_1287119" data-name="Path 1287119" d="M62.141,53.85H55.83a1.028,1.028,0,0,1-1.02-1.02V47.77a1.028,1.028,0,0,1,1.02-1.02h6.311a1.028,1.028,0,0,1,1.02,1.02v5.06A1.01,1.01,0,0,1,62.141,53.85ZM56.85,51.81h4.271V48.79H56.85Z" transform="translate(-54.81 -46.75)"/>
            </g>
            <g id="Group_1224930" data-name="Group 1224930" transform="translate(52.338 68.251)">
              <path id="Path_1287120" data-name="Path 1287120" d="M46.861,60.58H40.55a1.028,1.028,0,0,1-1.02-1.02V54.5a1.028,1.028,0,0,1,1.02-1.02h6.311a1.028,1.028,0,0,1,1.02,1.02v5.06A1.028,1.028,0,0,1,46.861,60.58ZM41.57,58.54h4.271V55.52H41.57Z" transform="translate(-39.53 -53.48)"/>
            </g>
            <g id="Group_1224931" data-name="Group 1224931" transform="translate(62.729 68.251)">
              <path id="Path_1287121" data-name="Path 1287121" d="M54.5,60.58H48.19a1.028,1.028,0,0,1-1.02-1.02V54.5a1.028,1.028,0,0,1,1.02-1.02H54.5a1.028,1.028,0,0,1,1.02,1.02v5.06A1.019,1.019,0,0,1,54.5,60.58ZM49.21,58.54h4.271V55.52H49.21Z" transform="translate(-47.17 -53.48)"/>
            </g>
            <g id="Group_1224932" data-name="Group 1224932" transform="translate(73.12 68.251)">
              <path id="Path_1287122" data-name="Path 1287122" d="M62.141,60.58H55.83a1.028,1.028,0,0,1-1.02-1.02V54.5a1.028,1.028,0,0,1,1.02-1.02h6.311a1.028,1.028,0,0,1,1.02,1.02v5.06A1.019,1.019,0,0,1,62.141,60.58ZM56.85,58.54h4.271V55.52H56.85Z" transform="translate(-54.81 -53.48)"/>
            </g>
            <g id="Group_1224933" data-name="Group 1224933" transform="translate(13.152 53.589)">
              <path id="Path_1287123" data-name="Path 1287123" d="M24.321,69.9a13.6,13.6,0,1,1,13.6-13.6A13.624,13.624,0,0,1,24.321,69.9Zm0-25.162A11.561,11.561,0,1,0,35.882,56.3,11.569,11.569,0,0,0,24.321,44.74Z" transform="translate(-10.72 -42.7)"/>
            </g>
            <g id="Group_1224934" data-name="Group 1224934" transform="translate(5.046 58.064)">
              <path id="Path_1287124" data-name="Path 1287124" d="M7.045,54.926A2.281,2.281,0,0,1,4.76,52.641V48.275A2.281,2.281,0,0,1,7.045,45.99h9.793a1.02,1.02,0,1,1,0,2.04H7.045a.244.244,0,0,0-.245.245v4.366a.244.244,0,0,0,.245.245,1.02,1.02,0,1,1,0,2.04Z" transform="translate(-4.76 -45.99)"/>
            </g>
            <g id="Group_1224935" data-name="Group 1224935" transform="translate(0 64.959)">
              <path id="Path_1287125" data-name="Path 1287125" d="M3.335,60A2.281,2.281,0,0,1,1.05,57.711V53.345A2.281,2.281,0,0,1,3.335,51.06H15.277a1.02,1.02,0,1,1,0,2.04H3.335a.244.244,0,0,0-.245.245v4.366a.244.244,0,0,0,.245.245,1.02,1.02,0,1,1,0,2.04Z" transform="translate(-1.05 -51.06)"/>
            </g>
            <g id="Group_1224936" data-name="Group 1224936" transform="translate(0 71.855)">
              <path id="Path_1287126" data-name="Path 1287126" d="M24.58,65.066H3.335A2.281,2.281,0,0,1,1.05,62.781V58.415A2.281,2.281,0,0,1,3.335,56.13H16.583a1.02,1.02,0,1,1,0,2.04H3.335a.244.244,0,0,0-.245.245v4.366a.244.244,0,0,0,.245.245H24.594a1.02,1.02,0,1,1-.014,2.04Z" transform="translate(-1.05 -56.13)"/>
            </g>
            <g id="Group_1224937" data-name="Group 1224937" transform="translate(16.825 57.261)">
              <path id="Path_1287127" data-name="Path 1287127" d="M23.349,65.258a9.919,9.919,0,1,1,6.6-2.5,1.028,1.028,0,0,1-1.442-.082,1.016,1.016,0,0,1,.082-1.442,7.88,7.88,0,1,0-5.236,2,7.71,7.71,0,0,0,2.775-.5,1.024,1.024,0,1,1,.721,1.918,10.563,10.563,0,0,1-3.5.612Z" transform="translate(-13.42 -45.4)"/>
            </g>
            <g id="Group_1224938" data-name="Group 1224938" transform="translate(23.503 61.709)">
              <path id="Path_1287128" data-name="Path 1287128" d="M21.581,59.633a3.251,3.251,0,0,1-3.251-3.251,1.02,1.02,0,0,1,2.04,0,1.211,1.211,0,1,0,1.211-1.211,3.251,3.251,0,1,1,3.251-3.251,1.02,1.02,0,0,1-2.04,0,1.211,1.211,0,1,0-1.211,1.211,3.251,3.251,0,1,1,0,6.5Z" transform="translate(-18.33 -48.67)"/>
            </g>
            <g id="Group_1224939" data-name="Group 1224939" transform="translate(25.734 60.172)">
              <path id="Path_1287129" data-name="Path 1287129" d="M20.99,51.117a1.028,1.028,0,0,1-1.02-1.02V48.56a1.02,1.02,0,0,1,2.04,0V50.1A1.028,1.028,0,0,1,20.99,51.117Z" transform="translate(-19.97 -47.54)"/>
            </g>
            <g id="Group_1224940" data-name="Group 1224940" transform="translate(25.734 70.631)">
              <path id="Path_1287130" data-name="Path 1287130" d="M20.99,58.807a1.028,1.028,0,0,1-1.02-1.02V56.25a1.02,1.02,0,1,1,2.04,0v1.537A1.028,1.028,0,0,1,20.99,58.807Z" transform="translate(-19.97 -55.23)"/>
            </g>
            <g id="Group_1224941" data-name="Group 1224941" transform="translate(40.804 5.25)">
              <path id="Path_1287131" data-name="Path 1287131" d="M41.591,28.242a10.541,10.541,0,0,1,0-21.082,1.028,1.028,0,0,1,1.02,1.02v8.5h8.5a1.028,1.028,0,0,1,1.02,1.02A10.55,10.55,0,0,1,41.591,28.242ZM40.571,9.268a8.5,8.5,0,1,0,9.466,9.466H41.591a1.028,1.028,0,0,1-1.02-1.02Z" transform="translate(-31.05 -7.16)"/>
            </g>
            <g id="Group_1224942" data-name="Group 1224942" transform="translate(50.325 5.25)">
              <path id="Path_1287132" data-name="Path 1287132" d="M48.591,18.721H39.07a1.028,1.028,0,0,1-1.02-1.02V8.18a1.028,1.028,0,0,1,1.02-1.02A10.559,10.559,0,0,1,49.611,17.7,1.019,1.019,0,0,1,48.591,18.721Zm-8.5-2.04H47.5a8.534,8.534,0,0,0-7.426-7.426v7.426Z" transform="translate(-38.05 -7.16)"/>
            </g>
            <g id="Group_1224946" data-name="Group 1224946" transform="translate(14.118 22.755)">
              <g id="Group_1224945" data-name="Group 1224945" transform="translate(0 0)">
                <g id="Group_1224943" data-name="Group 1224943">
                  <path id="Path_1287133" data-name="Path 1287133" d="M23.209,22.07H12.45a1.02,1.02,0,0,1,0-2.04H23.209a1.02,1.02,0,1,1,0,2.04Z" transform="translate(-11.43 -20.03)"/>
                </g>
                <g id="Group_1224944" data-name="Group 1224944" transform="translate(15.682)">
                  <path id="Path_1287134" data-name="Path 1287134" d="M26.537,22.07H23.98a1.02,1.02,0,1,1,0-2.04h2.557a1.02,1.02,0,0,1,0,2.04Z" transform="translate(-22.96 -20.03)"/>
                </g>
              </g>
            </g>
            <g id="Group_1224950" data-name="Group 1224950" transform="translate(14.118 27.379)">
              <g id="Group_1224949" data-name="Group 1224949">
                <g id="Group_1224947" data-name="Group 1224947">
                  <path id="Path_1287135" data-name="Path 1287135" d="M23.209,25.47H12.45a1.02,1.02,0,0,1,0-2.04H23.209a1.02,1.02,0,0,1,0,2.04Z" transform="translate(-11.43 -23.43)"/>
                </g>
                <g id="Group_1224948" data-name="Group 1224948" transform="translate(15.682)">
                  <path id="Path_1287136" data-name="Path 1287136" d="M26.537,25.47H23.98a1.02,1.02,0,0,1,0-2.04h2.557a1.02,1.02,0,0,1,0,2.04Z" transform="translate(-22.96 -23.43)"/>
                </g>
              </g>
            </g>
            <g id="Group_1224954" data-name="Group 1224954" transform="translate(14.118 32.017)">
              <g id="Group_1224953" data-name="Group 1224953">
                <g id="Group_1224951" data-name="Group 1224951">
                  <path id="Path_1287137" data-name="Path 1287137" d="M23.209,28.88H12.45a1.02,1.02,0,0,1,0-2.04H23.209a1.02,1.02,0,1,1,0,2.04Z" transform="translate(-11.43 -26.84)"/>
                </g>
                <g id="Group_1224952" data-name="Group 1224952" transform="translate(15.682)">
                  <path id="Path_1287138" data-name="Path 1287138" d="M26.537,28.88H23.98a1.02,1.02,0,1,1,0-2.04h2.557a1.02,1.02,0,0,1,0,2.04Z" transform="translate(-22.96 -26.84)"/>
                </g>
              </g>
            </g>
            <g id="Group_1224955" data-name="Group 1224955" transform="translate(22.524 78.499)">
              <path id="Path_1287139" data-name="Path 1287139" d="M21.84,63.307H18.63a1.02,1.02,0,1,1,0-2.04.266.266,0,0,0,.122-.068,1.019,1.019,0,0,1,.789-.163,11.765,11.765,0,0,0,2.3.231,1.02,1.02,0,0,1,0,2.04Z" transform="translate(-17.61 -61.015)"/>
            </g>
          </g>
        </g>
        <g id="Group_1224960" data-name="Group 1224960" transform="translate(14.135 37.879)">
          <g id="Group_1224958" data-name="Group 1224958" transform="translate(0 0.534)">
            <path id="Path_1287140" data-name="Path 1287140" d="M12.459,47.1a1.009,1.009,0,0,1-.721-.3,1.026,1.026,0,0,1,0-1.442L19.5,37.592a1.018,1.018,0,0,1,1.442,0l3.482,3.482,9.235-9.235a1.019,1.019,0,0,1,1.442,1.442l-9.956,9.956a1.052,1.052,0,0,1-1.442,0l-3.482-3.482L13.18,46.8A1.069,1.069,0,0,1,12.459,47.1Z" transform="translate(-11.442 -31.542)"/>
          </g>
          <g id="Group_1224959" data-name="Group 1224959" transform="translate(17.637)">
            <path id="Path_1287141" data-name="Path 1287141" d="M29.932,37.692a1.028,1.028,0,0,1-1.02-1.02V33.19H25.43a1.02,1.02,0,0,1,0-2.04h4.5a1.028,1.028,0,0,1,1.02,1.02v4.5A1.019,1.019,0,0,1,29.932,37.692Z" transform="translate(-24.41 -31.15)"/>
          </g>
        </g>
      </g>
    </g>
  </g>
</svg>
