<svg xmlns="http://www.w3.org/2000/svg" width="95" height="95" viewBox="0 0 95 95">
  <g id="Group_1225216" data-name="Group 1225216" transform="translate(6886.411 -2097.898)">
    <rect id="Rectangle_414339" data-name="Rectangle 414339" width="95" height="95" transform="translate(-6886.411 2097.898)" fill="none"/>
    <g id="Group_1225208" data-name="Group 1225208" transform="translate(-57.642 11968.668)">
      <g id="annuities_2329181" transform="translate(-6826.358 -9868.358)">
        <g id="Group_1176550" data-name="Group 1176550" transform="translate(1.454 1.454)">
          <g id="Group_1176537" data-name="Group 1176537" transform="translate(0 31.999)">
            <path id="Path_1031186" data-name="Path 1031186" d="M52.646,29.818H7.818V64.726H42.726v2.909a2.918,2.918,0,0,0,2.909,2.909H4.909A2.918,2.918,0,0,1,2,67.635V24H48.151A21.43,21.43,0,0,0,52.646,29.818Z" transform="translate(-2 -24)" fill="#aab2bd"/>
          </g>
          <g id="Group_1176538" data-name="Group 1176538" transform="translate(72.725 39.271)">
            <path id="Path_1031187" data-name="Path 1031187" d="M57.818,29V50.817H52v-18.7A21.952,21.952,0,0,0,57.818,29Z" transform="translate(-52 -29)" fill="#aab2bd"/>
          </g>
          <g id="Group_1176539" data-name="Group 1176539" transform="translate(5.818 37.817)">
            <path id="Path_1031188" data-name="Path 1031188" d="M65.634,33.818A21.628,21.628,0,0,1,50.828,28H6V62.908H40.908a2.911,2.911,0,0,1,2.051-2.778A2.721,2.721,0,0,1,43.817,60H61.271a2.918,2.918,0,0,1,2.909,2.909A2.918,2.918,0,0,1,67.089,60,2.918,2.918,0,0,1,64.18,57.09V54.181a2.918,2.918,0,0,1,2.909-2.909h5.818v-18.7A21.583,21.583,0,0,1,65.634,33.818Z" transform="translate(-6 -28)" fill="#e6e9ed"/>
          </g>
          <g id="Group_1176540" data-name="Group 1176540" transform="translate(63.998 78.543)">
            <path id="Path_1031189" data-name="Path 1031189" d="M51.818,56H66.363a2.918,2.918,0,0,1,2.909,2.909v2.909a2.918,2.918,0,0,1-2.909,2.909H48.909A2.918,2.918,0,0,1,46,61.818V58.909A2.918,2.918,0,0,1,48.909,56Z" transform="translate(-46 -56)" fill="#fcd770"/>
          </g>
          <g id="Group_1176541" data-name="Group 1176541" transform="translate(63.998 69.816)">
            <path id="Path_1031190" data-name="Path 1031190" d="M51.818,50H66.363a2.918,2.918,0,0,1,2.909,2.909v2.909a2.918,2.918,0,0,1-2.909,2.909H48.909A2.918,2.918,0,0,1,46,55.818V52.909A2.918,2.918,0,0,1,48.909,50Z" transform="translate(-46 -50)" fill="#ffeaa7"/>
          </g>
          <g id="Group_1176542" data-name="Group 1176542" transform="translate(63.998 61.089)">
            <path id="Path_1031191" data-name="Path 1031191" d="M51.818,44H66.363a2.918,2.918,0,0,1,2.909,2.909v2.909a2.918,2.918,0,0,1-2.909,2.909H48.909A2.918,2.918,0,0,1,46,49.818V46.909A2.918,2.918,0,0,1,48.909,44Z" transform="translate(-46 -44)" fill="#fcd770"/>
          </g>
          <g id="Group_1176543" data-name="Group 1176543" transform="translate(43.635)">
            <path id="Path_1031192" data-name="Path 1031192" d="M66.908,41.271a21.952,21.952,0,0,1-5.818,3.113A21.807,21.807,0,0,1,32,23.817c0-.495.015-.975.058-1.454a21.813,21.813,0,1,1,34.85,18.908Z" transform="translate(-32 -2)" fill="#ff826e"/>
          </g>
          <g id="Group_1176544" data-name="Group 1176544" transform="translate(49.453 5.818)">
            <path id="Path_1031193" data-name="Path 1031193" d="M52,6a15.99,15.99,0,1,1-11.316,4.683A15.949,15.949,0,0,1,52,6Z" transform="translate(-36 -6)" fill="#69d6f4"/>
          </g>
          <g id="Group_1176545" data-name="Group 1176545" transform="translate(40.726 78.543)">
            <path id="Path_1031194" data-name="Path 1031194" d="M47.454,56h2.909a2.918,2.918,0,0,1,2.909,2.909v2.909a2.918,2.918,0,0,1-2.909,2.909H32.909A2.918,2.918,0,0,1,30,61.818V58.909A2.918,2.918,0,0,1,32.909,56H47.454Z" transform="translate(-30 -56)" fill="#ffeaa7"/>
          </g>
          <g id="Group_1176546" data-name="Group 1176546" transform="translate(40.726 69.816)">
            <path id="Path_1031195" data-name="Path 1031195" d="M47.454,50h2.909a2.918,2.918,0,0,1,2.909,2.909v2.909a2.918,2.918,0,0,1-2.909,2.909H32.909A2.918,2.918,0,0,1,30,55.818V52.909a2.911,2.911,0,0,1,2.051-2.778A2.721,2.721,0,0,1,32.909,50H47.454Z" transform="translate(-30 -50)" fill="#fcd770"/>
          </g>
          <g id="Group_1176547" data-name="Group 1176547" transform="translate(0 20.363)">
            <path id="Path_1031196" data-name="Path 1031196" d="M48.151,27.636H2V18.909A2.918,2.918,0,0,1,4.909,16h5.818v2.909a2.918,2.918,0,0,0,2.909,2.909h2.909a2.918,2.918,0,0,0,2.909-2.909V16h8.727v2.909a2.918,2.918,0,0,0,2.909,2.909H34a2.918,2.918,0,0,0,2.909-2.909V16h8.785c-.044.48-.058.96-.058,1.454A21.8,21.8,0,0,0,48.151,27.636Z" transform="translate(-2 -16)" fill="#b4dd7f"/>
          </g>
          <g id="Group_1176548" data-name="Group 1176548" transform="translate(26.181 14.545)">
            <path id="Path_1031197" data-name="Path 1031197" d="M28.727,17.818v2.909a2.918,2.918,0,0,1-2.909,2.909H22.909A2.918,2.918,0,0,1,20,20.727V14.909A2.918,2.918,0,0,1,22.909,12h2.909a2.918,2.918,0,0,1,2.909,2.909Z" transform="translate(-20 -12)" fill="#aab2bd"/>
          </g>
          <g id="Group_1176549" data-name="Group 1176549" transform="translate(8.727 14.545)">
            <path id="Path_1031198" data-name="Path 1031198" d="M16.727,17.818v2.909a2.918,2.918,0,0,1-2.909,2.909H10.909A2.918,2.918,0,0,1,8,20.727V14.909A2.918,2.918,0,0,1,10.909,12h2.909a2.918,2.918,0,0,1,2.909,2.909Z" transform="translate(-8 -12)" fill="#aab2bd"/>
          </g>
        </g>
        <g id="Group_1176551" data-name="Group 1176551" transform="translate(0 0)">
          <path id="Path_1031199" data-name="Path 1031199" d="M86.815,62.089H82.452V42.409A23.257,23.257,0,1,0,44.837,21.363h-6.02V19.908a4.369,4.369,0,0,0-4.363-4.363H31.544a4.369,4.369,0,0,0-4.363,4.363v1.454H21.363V19.908A4.369,4.369,0,0,0,17,15.545H14.09a4.369,4.369,0,0,0-4.363,4.363v1.454H5.363A4.369,4.369,0,0,0,1,25.726V78.088a4.369,4.369,0,0,0,4.363,4.363h36.63a4.314,4.314,0,0,0-.268,1.454v2.909a4.369,4.369,0,0,0,4.363,4.363H63.543a4.335,4.335,0,0,0,2.909-1.134,4.328,4.328,0,0,0,2.909,1.134H86.815a4.369,4.369,0,0,0,4.363-4.363V83.906A4.335,4.335,0,0,0,90.044,81a4.328,4.328,0,0,0,1.134-2.909V75.179a4.335,4.335,0,0,0-1.134-2.909,4.328,4.328,0,0,0,1.134-2.909V66.452A4.369,4.369,0,0,0,86.815,62.089Zm1.454,4.363v2.909a1.457,1.457,0,0,1-1.454,1.454H69.361a1.457,1.457,0,0,1-1.454-1.454V66.452A1.457,1.457,0,0,1,69.361,65h1.454v2.909h2.909V65h2.909v2.909h2.909V65h2.909v2.909h2.909V65h1.454A1.457,1.457,0,0,1,88.27,66.452Zm0,8.727v2.909a1.457,1.457,0,0,1-1.454,1.454H69.361a1.457,1.457,0,0,1-1.454-1.454V75.179a1.457,1.457,0,0,1,1.454-1.454h1.454v2.909h2.909V73.725h2.909v2.909h2.909V73.725h2.909v2.909h2.909V73.725h1.454A1.457,1.457,0,0,1,88.27,75.179Zm-42.18,4.363a1.457,1.457,0,0,1-1.454-1.454V75.179a1.457,1.457,0,0,1,1.454-1.454h1.454v2.909h2.909V73.725h2.909v2.909h2.909V73.725H59.18v2.909h2.909V73.725h1.454A1.457,1.457,0,0,1,65,75.179v2.909a1.457,1.457,0,0,1-1.454,1.454Zm6.477-37.817a22.961,22.961,0,0,0,21.159,5.051V62.089H69.361A4.369,4.369,0,0,0,65,66.452v2.909a4.306,4.306,0,0,0,.464,1.918,4.306,4.306,0,0,0-1.918-.464H46.089a4.358,4.358,0,0,0-4.1,2.909H9.727v-32ZM79.543,62.089H76.634V45.83a23.28,23.28,0,0,0,2.909-1.436ZM67.907,3.909A20.363,20.363,0,1,1,47.544,24.272,20.385,20.385,0,0,1,67.907,3.909Zm-37.817,16a1.457,1.457,0,0,1,1.454-1.454h2.909a1.457,1.457,0,0,1,1.454,1.454v5.818a1.457,1.457,0,0,1-1.454,1.454H31.544a1.457,1.457,0,0,1-1.454-1.454Zm-17.454,0a1.457,1.457,0,0,1,1.454-1.454H17a1.457,1.457,0,0,1,1.454,1.454v5.818A1.457,1.457,0,0,1,17,27.181H14.09a1.457,1.457,0,0,1-1.454-1.454ZM5.363,24.272H9.727v1.454A4.369,4.369,0,0,0,14.09,30.09H17a4.369,4.369,0,0,0,4.363-4.363V24.272h5.818v1.454a4.369,4.369,0,0,0,4.363,4.363h2.909a4.369,4.369,0,0,0,4.363-4.363V24.272h5.818A23.118,23.118,0,0,0,46.348,33H3.909V25.726a1.457,1.457,0,0,1,1.454-1.454ZM3.909,78.088V35.908H47.784a23.423,23.423,0,0,0,1.985,2.909H6.818V76.634H41.726v1.454a4.314,4.314,0,0,0,.268,1.454H5.363a1.457,1.457,0,0,1-1.454-1.454ZM63.543,88.27H46.089a1.457,1.457,0,0,1-1.454-1.454V83.906a1.457,1.457,0,0,1,1.454-1.454h1.454v2.909h2.909V82.452h2.909v2.909h2.909V82.452H59.18v2.909h2.909V82.452h1.454A1.457,1.457,0,0,1,65,83.906v2.909A1.457,1.457,0,0,1,63.543,88.27ZM88.27,86.815a1.457,1.457,0,0,1-1.454,1.454H69.361a1.457,1.457,0,0,1-1.454-1.454V83.906a1.457,1.457,0,0,1,1.454-1.454h1.454v2.909h2.909V82.452h2.909v2.909h2.909V82.452h2.909v2.909h2.909V82.452h1.454a1.457,1.457,0,0,1,1.454,1.454Z" transform="translate(-1 -1)"/>
          <path id="Path_1031200" data-name="Path 1031200" d="M38.545,54.272V48.454a5.824,5.824,0,0,0-5.818-5.818H29.818a2.912,2.912,0,0,1-2.909-2.909V36.818h5.818a2.912,2.912,0,0,1,2.909,2.909h2.909a5.8,5.8,0,0,0-2.909-5.009V31H32.727v2.909H29.818V31H26.909v2.909H24v5.818a5.824,5.824,0,0,0,5.818,5.818h2.909a2.912,2.912,0,0,1,2.909,2.909v2.909H29.818a2.912,2.912,0,0,1-2.909-2.909H24a5.8,5.8,0,0,0,2.909,5.009v3.718h2.909V54.272h2.909v2.909h2.909V54.272Z" transform="translate(9.453 12.635)"/>
          <path id="Path_1031201" data-name="Path 1031201" d="M52.454,39.908A17.454,17.454,0,1,0,35,22.454,17.473,17.473,0,0,0,52.454,39.908ZM37.983,21A14.476,14.476,0,0,1,41.2,13.256l2,2L45.256,13.2l-2-2A14.465,14.465,0,0,1,51,7.983v2.835h2.909V7.983A14.476,14.476,0,0,1,61.652,11.2l-2,2,2.057,2.057,2-2A14.476,14.476,0,0,1,66.925,21H64.09v2.909h2.835a14.476,14.476,0,0,1-3.216,7.744l-2-2-2.057,2.057,2,2a14.476,14.476,0,0,1-7.744,3.216V34.09H51v2.835a14.476,14.476,0,0,1-7.744-3.216l2-2L43.2,29.652l-2,2a14.476,14.476,0,0,1-3.216-7.744h2.835V21Z" transform="translate(14.453 0.818)"/>
          <path id="Path_1031202" data-name="Path 1031202" d="M54.957,20.594V17.685H49.741L44.35,12.293,42.293,14.35l6.244,6.244Z" transform="translate(17.767 4.133)"/>
          <path id="Path_1031203" data-name="Path 1031203" d="M9,31H27.908v2.909H9Z" transform="translate(2.636 12.635)"/>
          <path id="Path_1031204" data-name="Path 1031204" d="M9,35H27.908v2.909H9Z" transform="translate(2.636 14.453)"/>
          <path id="Path_1031205" data-name="Path 1031205" d="M9,39H27.908v2.909H9Z" transform="translate(2.636 16.271)"/>
          <path id="Path_1031206" data-name="Path 1031206" d="M9,43H27.908v2.909H9Z" transform="translate(2.636 18.089)"/>
          <path id="Path_1031207" data-name="Path 1031207" d="M16,47h2.909v2.909H16Z" transform="translate(5.817 19.907)"/>
          <path id="Path_1031208" data-name="Path 1031208" d="M12,47h2.909v2.909H12Z" transform="translate(3.999 19.907)"/>
          <path id="Path_1031209" data-name="Path 1031209" d="M20,47h2.909v2.909H20Z" transform="translate(7.635 19.907)"/>
          <path id="Path_1031210" data-name="Path 1031210" d="M47,35h2.909v2.909H47Z" transform="translate(19.907 14.453)"/>
          <path id="Path_1031211" data-name="Path 1031211" d="M47,39h2.909v2.909H47Z" transform="translate(19.907 16.271)"/>
        </g>
      </g>
    </g>
  </g>
</svg>
