<svg xmlns="http://www.w3.org/2000/svg" width="95" height="95" viewBox="0 0 95 95">
  <g id="Group_1225215" data-name="Group 1225215" transform="translate(6570.411 -2097.898)">
    <rect id="Rectangle_414340" data-name="Rectangle 414340" width="95" height="95" transform="translate(-6570.411 2097.898)" fill="none"/>
    <g id="Group_1225207" data-name="Group 1225207" transform="translate(-7396.808 216.024)">
      <g id="Fill_Outline" data-name="Fill Outline" transform="translate(826.397 1884.604)">
        <path id="Path_1031470" data-name="Path 1031470" d="M8,9H26.483V33.644H8Z" transform="translate(1.242 0.242)" fill="#a1d51c"/>
        <path id="Path_1031471" data-name="Path 1031471" d="M8,9H23.4V30.564H8Z" transform="translate(1.242 0.242)" fill="#7ab92d"/>
        <path id="Path_1031472" data-name="Path 1031472" d="M68.4,53.483a13.968,13.968,0,0,0-.242-2.529l4.7-2.708-4.621-8.009-4.7,2.711a13.845,13.845,0,0,0-4.379-2.524V35H49.913v5.426a13.829,13.829,0,0,0-4.379,2.525l-4.7-2.711-4.621,8.009,4.7,2.711a13.431,13.431,0,0,0,0,5.058l-4.7,2.7,4.621,8.009,4.7-2.711a13.829,13.829,0,0,0,4.379,2.524v5.423h9.242V66.54a13.845,13.845,0,0,0,4.379-2.524l4.7,2.714L72.85,58.72l-4.7-2.711a13.968,13.968,0,0,0,.242-2.526ZM54.533,58.1a4.621,4.621,0,1,1,4.621-4.621A4.621,4.621,0,0,1,54.533,58.1Z" transform="translate(16.485 14.289)" fill="#d0d8da"/>
        <path id="Path_1031473" data-name="Path 1031473" d="M58.108,56.377a4.612,4.612,0,1,1-3.575-7.515c.12,0,.233.026.351.035A21.311,21.311,0,0,1,56.469,35H49.913v5.426a13.829,13.829,0,0,0-4.379,2.525l-4.7-2.711-4.621,8.009,4.7,2.711a13.431,13.431,0,0,0,0,5.058l-4.7,2.7,4.621,8.009,4.7-2.711a13.829,13.829,0,0,0,4.379,2.524v5.423h9.242V66.54a13.845,13.845,0,0,0,4.379-2.524l4.7,2.714,1.126-1.95a21.607,21.607,0,0,1-11.247-8.4Z" transform="translate(16.485 14.289)" fill="#93999a"/>
        <path id="Path_1031474" data-name="Path 1031474" d="M3,45H30.725V63.483H3Z" transform="translate(-1.46 19.691)" fill="#4891d3"/>
        <path id="Path_1031475" data-name="Path 1031475" d="M27.483,45V63.483L9,45Z" transform="translate(1.782 19.691)" fill="#57b7eb"/>
        <rect id="Rectangle_404749" data-name="Rectangle 404749" width="10.153" height="11.845" rx="1" transform="translate(25.978 76.742)" fill="#4891d3"/>
        <path id="Path_1031476" data-name="Path 1031476" d="M4,5H22.483V29.644H4Z" transform="translate(-0.919 -1.919)" fill="#c4f236"/>
        <circle id="Ellipse_12983" data-name="Ellipse 12983" cx="23.69" cy="23.69" r="23.69" transform="translate(22.594 20.902)" fill="#57b7eb"/>
        <path id="Path_1031477" data-name="Path 1031477" d="M46.267,53.7A23.069,23.069,0,0,1,25.589,20.338a23.093,23.093,0,1,0,35.2,28.224A23,23,0,0,1,46.267,53.7Z" transform="translate(6.102 6.367)" fill="#4891d3"/>
        <circle id="Ellipse_12984" data-name="Ellipse 12984" cx="18.613" cy="18.613" r="18.613" transform="translate(27.67 25.978)" fill="#4891d3"/>
        <path id="Path_1031478" data-name="Path 1031478" d="M37.089,20a18.432,18.432,0,0,0-14.508,7.056A18.465,18.465,0,0,1,48.516,52.991,18.469,18.469,0,0,0,37.089,20Z" transform="translate(9.119 6.185)" fill="#2d72bc"/>
        <path id="Path_1031479" data-name="Path 1031479" d="M44.645,50A23.094,23.094,0,0,1,21.557,27.194,18.462,18.462,0,0,0,49.366,49.513,23.13,23.13,0,0,1,44.645,50Z" transform="translate(7.724 10.071)" fill="#2d72bc"/>
        <path id="Path_1031480" data-name="Path 1031480" d="M22.081,56.081V53H20.54A1.54,1.54,0,0,0,19,54.54v9.242a1.54,1.54,0,0,0,1.54,1.54H26.7a1.54,1.54,0,0,0,1.54-1.54v-1.54A6.161,6.161,0,0,1,22.081,56.081Z" transform="translate(7.185 24.013)" fill="#2d72bc"/>
        <path id="Path_1031481" data-name="Path 1031481" d="M50.081,4h15.4V31.725h-15.4A3.081,3.081,0,0,1,47,28.644V7.081A3.081,3.081,0,0,1,50.081,4Z" transform="translate(22.312 -2.46)" fill="#c4f236"/>
        <path id="Path_1031482" data-name="Path 1031482" d="M65.483,10.161V4h-15.4A3.081,3.081,0,0,0,47,7.081V28.644a3.081,3.081,0,0,0,3.081,3.081h15.4V28.644H59.322A9.242,9.242,0,0,1,50.081,19.4V10.161Z" transform="translate(22.312 -2.46)" fill="#a1d51c"/>
        <path id="Path_1031483" data-name="Path 1031483" d="M50.081,4h15.4v6.161h-15.4a3.081,3.081,0,1,1,0-6.161Z" transform="translate(22.312 -2.46)" fill="#d0d8da"/>
        <path id="Path_1031484" data-name="Path 1031484" d="M49.54,5h15.4V8.081H49.54A1.54,1.54,0,0,1,49.54,5Z" transform="translate(22.852 -1.919)" fill="#93999a"/>
        <path id="Path_1031485" data-name="Path 1031485" d="M8.621,15.782V5H4V29.644H22.483V25.023H17.862A9.242,9.242,0,0,1,8.621,15.782Z" transform="translate(-0.919 -1.919)" fill="#a1d51c"/>
        <g id="Group_1176584" data-name="Group 1176584" transform="translate(0 0)">
          <path id="Path_1031486" data-name="Path 1031486" d="M16,40.646a24.644,24.644,0,0,0,49.289,0,24.249,24.249,0,0,0-.22-3.141,1.54,1.54,0,0,0-3.056.391c.055.433.092.824.123,1.209H59.127a1.54,1.54,0,1,0,0,3.081h3a21.337,21.337,0,0,1-2.112,7.866l-2.6-1.5a1.54,1.54,0,1,0-1.54,2.668L58.5,52.73A21.7,21.7,0,0,1,52.735,58.5l-1.508-2.618a1.54,1.54,0,1,0-2.668,1.54l1.5,2.6a21.337,21.337,0,0,1-7.874,2.119v-3a1.54,1.54,0,0,0-3.081,0v3a21.337,21.337,0,0,1-7.866-2.112l1.5-2.6a1.54,1.54,0,1,0-2.668-1.54L28.561,58.5A21.7,21.7,0,0,1,22.8,52.738l2.618-1.508a1.54,1.54,0,1,0-1.54-2.668l-2.6,1.5a21.337,21.337,0,0,1-2.119-7.874h3a1.54,1.54,0,1,0,0-3.081h-3a21.337,21.337,0,0,1,2.112-7.866l2.6,1.5a1.54,1.54,0,1,0,1.54-2.668l-2.618-1.508A21.7,21.7,0,0,1,28.553,22.8l1.508,2.618a1.54,1.54,0,1,0,2.668-1.54l-1.5-2.6A21.337,21.337,0,0,1,39.1,19.161v3a1.54,1.54,0,1,0,3.081,0V19.14a21.539,21.539,0,0,1,7.882,2.107l-1.514,2.618a1.54,1.54,0,1,0,2.668,1.54l1.516-2.618a21.494,21.494,0,0,1,5.758,5.778l-2.618,1.508a1.54,1.54,0,1,0,1.54,2.668l2.618-1.508c.176.365.353.73.511,1.107a1.541,1.541,0,1,0,2.843-1.188A24.644,24.644,0,0,0,16,40.646Z" transform="translate(5.564 4.021)" fill="#323232"/>
          <path id="Path_1031487" data-name="Path 1031487" d="M43.3,26.69l-8.832,6.184-3.533-5.046a1.541,1.541,0,1,0-2.524,1.767L32.829,35.9a1.54,1.54,0,0,0,.993.633,1.434,1.434,0,0,0,.268.025,1.531,1.531,0,0,0,.883-.279l10.093-7.068A1.54,1.54,0,1,0,43.3,26.69Z" transform="translate(12.118 9.648)" fill="#323232"/>
          <path id="Path_1031488" data-name="Path 1031488" d="M50.621,33.805h15.4a1.54,1.54,0,0,0,1.54-1.54V10.7a1.54,1.54,0,0,0-1.54-1.54h-15.4a1.54,1.54,0,0,1,0-3.081h15.4a1.54,1.54,0,1,0,0-3.081h-15.4A4.621,4.621,0,0,0,46,7.621V29.185A4.621,4.621,0,0,0,50.621,33.805Zm-1.54-21.827a4.621,4.621,0,0,0,1.54.263H64.483V30.725H50.621a1.54,1.54,0,0,1-1.54-1.54Z" transform="translate(21.772 -3)" fill="#323232"/>
          <path id="Path_1031489" data-name="Path 1031489" d="M51.54,15.081H57.7A1.54,1.54,0,0,0,57.7,12H51.54a1.54,1.54,0,0,0,0,3.081Z" transform="translate(23.933 1.862)" fill="#323232"/>
          <path id="Path_1031490" data-name="Path 1031490" d="M51.54,19.081H57.7A1.54,1.54,0,0,0,57.7,16H51.54a1.54,1.54,0,0,0,0,3.081Z" transform="translate(23.933 4.023)" fill="#323232"/>
          <path id="Path_1031491" data-name="Path 1031491" d="M35.886,56.322H32.805V51.7a1.54,1.54,0,1,0-3.081,0v4.621A3.081,3.081,0,0,0,26.644,59.4v3.081H5.081v-15.4h7.064L22.475,57.411a1.54,1.54,0,1,0,2.178-2.178L16.5,47.081h8.6A1.54,1.54,0,0,0,25.1,44H3.54A1.54,1.54,0,0,0,2,45.54V64.023a1.54,1.54,0,0,0,1.54,1.54h8.29l-1.54,3.081H6.621a1.54,1.54,0,1,0,0,3.081H35.886a3.081,3.081,0,0,0,3.081-3.081V59.4A3.081,3.081,0,0,0,35.886,56.322ZM13.734,68.644l1.54-3.081h4.257l1.54,3.081Zm10.782,0-1.54-3.081h3.669v3.081Zm5.209,0V64.1c0-.026.015-.048.015-.074s-.015-.048-.015-.074V59.4h6.161v9.242Z" transform="translate(-2 19.151)" fill="#323232"/>
          <path id="Path_1031492" data-name="Path 1031492" d="M74.161,57.93l-3.788-2.187a14.584,14.584,0,0,0,0-3.438l3.788-2.187a1.54,1.54,0,0,0,.564-2.1L70.1,40A1.54,1.54,0,0,0,68,39.44l-3.791,2.187a15.329,15.329,0,0,0-2.976-1.713V35.54a1.54,1.54,0,0,0-3.081,0v5.426a1.54,1.54,0,0,0,1.026,1.452,12.247,12.247,0,0,1,3.892,2.243,1.54,1.54,0,0,0,1.771.163l3.364-1.939,3.081,5.332L67.924,50.16a1.54,1.54,0,0,0-.744,1.614,11.918,11.918,0,0,1,0,4.5,1.54,1.54,0,0,0,.744,1.614l3.362,1.942-3.081,5.332-3.364-1.939a1.54,1.54,0,0,0-1.771.163,12.247,12.247,0,0,1-3.892,2.243,1.54,1.54,0,0,0-1.026,1.452v3.886H51.992V67.08a1.54,1.54,0,0,0-1.026-1.452,12.256,12.256,0,0,1-3.891-2.243,1.54,1.54,0,0,0-1.771-.163L41.94,65.161l-3.851-6.668a1.54,1.54,0,1,0-2.668,1.54l4.621,8.009a1.54,1.54,0,0,0,2.1.564l3.791-2.187a15.316,15.316,0,0,0,2.974,1.713v4.374a1.54,1.54,0,0,0,1.54,1.54h9.242a1.54,1.54,0,0,0,1.54-1.54V68.126a15.328,15.328,0,0,0,2.976-1.713L68,68.6a1.54,1.54,0,0,0,2.1-.564l4.621-8.009a1.54,1.54,0,0,0-.564-2.1Z" transform="translate(15.945 13.748)" fill="#323232"/>
          <path id="Path_1031493" data-name="Path 1031493" d="M44.107,49.161A6.161,6.161,0,1,0,50.268,43,6.161,6.161,0,0,0,44.107,49.161Zm6.161-3.081a3.081,3.081,0,1,1-3.081,3.081A3.081,3.081,0,0,1,50.268,46.081Z" transform="translate(20.749 18.611)" fill="#323232"/>
          <path id="Path_1031494" data-name="Path 1031494" d="M4.54,31.725H9.161v4.621a1.54,1.54,0,0,0,1.54,1.54h8.838a1.54,1.54,0,1,0,0-3.081h-7.3V31.725H23.023a1.54,1.54,0,0,0,1.54-1.54V13.242h3.081V24.065a1.54,1.54,0,1,0,3.081,0V11.7a1.54,1.54,0,0,0-1.54-1.54H24.564V5.54A1.54,1.54,0,0,0,23.023,4H4.54A1.54,1.54,0,0,0,3,5.54V30.185A1.54,1.54,0,0,0,4.54,31.725ZM6.081,7.081h15.4V28.644H6.081Z" transform="translate(-1.46 -2.46)" fill="#323232"/>
          <path id="Path_1031495" data-name="Path 1031495" d="M10.54,11.081h3.081a1.54,1.54,0,0,0,0-3.081H10.54a1.54,1.54,0,1,0,0,3.081Z" transform="translate(1.782 -0.299)" fill="#323232"/>
          <path id="Path_1031496" data-name="Path 1031496" d="M8.54,15.081H14.7A1.54,1.54,0,1,0,14.7,12H8.54a1.54,1.54,0,0,0,0,3.081Z" transform="translate(0.701 1.862)" fill="#323232"/>
          <path id="Path_1031497" data-name="Path 1031497" d="M14.7,19.081A1.54,1.54,0,1,0,14.7,16H8.54a1.54,1.54,0,0,0,0,3.081Z" transform="translate(0.701 4.023)" fill="#323232"/>
          <path id="Path_1031498" data-name="Path 1031498" d="M38.495,55.828a35.888,35.888,0,0,1-8.641.02,1.54,1.54,0,1,0-.364,3.059,38.989,38.989,0,0,0,9.383-.022,1.54,1.54,0,0,0-.379-3.057Z" transform="translate(12.118 25.535)" fill="#323232"/>
          <path id="Path_1031499" data-name="Path 1031499" d="M54.848,24.54a1.54,1.54,0,0,0-.978,1.945,35.4,35.4,0,0,1,1.782,11.127,1.54,1.54,0,1,0,3.081,0,38.449,38.449,0,0,0-1.939-12.1,1.54,1.54,0,0,0-1.945-.977Z" transform="translate(25.982 8.595)" fill="#323232"/>
          <path id="Path_1031500" data-name="Path 1031500" d="M26.983,12.17a35.834,35.834,0,0,1,19.836.673,1.54,1.54,0,1,0,.963-2.927,38.933,38.933,0,0,0-21.564-.73,1.541,1.541,0,0,0,.77,2.985Z" transform="translate(10.459 -0.296)" fill="#323232"/>
          <path id="Path_1031501" data-name="Path 1031501" d="M8.978,29.167a1.54,1.54,0,0,0-1.71,1.349A39.1,39.1,0,0,0,7,35.077,38.6,38.6,0,0,0,8.429,45.507a1.54,1.54,0,0,0,1.482,1.124,1.574,1.574,0,0,0,.417-.057,1.54,1.54,0,0,0,1.067-1.9,35.482,35.482,0,0,1-1.315-9.6,35.962,35.962,0,0,1,.246-4.2,1.54,1.54,0,0,0-1.349-1.713Z" transform="translate(0.701 11.131)" fill="#323232"/>
        </g>
      </g>
    </g>
  </g>
</svg>
