<svg xmlns="http://www.w3.org/2000/svg" xmlns:xlink="http://www.w3.org/1999/xlink" width="108.384" height="108.384" viewBox="0 0 108.384 108.384">
  <defs>
    <filter id="Ellipse_12885" x="0" y="0" width="108.384" height="108.384" filterUnits="userSpaceOnUse">
      <feOffset dy="3" input="SourceAlpha"/>
      <feGaussianBlur stdDeviation="3" result="blur"/>
      <feFlood flood-opacity="0.161"/>
      <feComposite operator="in" in2="blur"/>
      <feComposite in="SourceGraphic"/>
    </filter>
  </defs>
  <g id="Group_1225168" data-name="Group 1225168" transform="translate(-441.943 -13714.378)">
    <path id="Path_1287242" data-name="Path 1287242" d="M47.191,4.5A42.691,42.691,0,1,1,4.5,47.191,42.691,42.691,0,0,1,47.191,4.5" transform="translate(447.785 13718.378)" fill="#bdaff2"/>
    <g transform="matrix(1, 0, 0, 1, 441.94, 13714.38)" filter="url(#Ellipse_12885)">
      <circle id="Ellipse_12885-2" data-name="Ellipse 12885" cx="42.692" cy="42.692" r="42.692" transform="translate(11.5 8.5)" fill="none" stroke="#fff" stroke-miterlimit="10" stroke-width="5"/>
    </g>
    <path id="Path_1287243" data-name="Path 1287243" d="M322.911,172.287h-6.38V167.5a.637.637,0,0,0-.629-.622h-6.284v-7.753a.636.636,0,0,0-.628-.622h-6.332v-5.935a.636.636,0,0,0-.628-.622h-6.912a.636.636,0,0,0-.628.622v27.52a.636.636,0,0,0,.628.622h27.793a.636.636,0,0,0,.628-.622V172.91a.713.713,0,0,0-.628-.622M295.7,153.143h5.752v26.323H295.7Zm6.96,6.6h5.752v19.766h-5.752Zm6.96,8.376h5.752v11.391h-5.752Zm12.664,11.343h-5.752v-5.983h5.752Z" transform="translate(206.471 13594.513)"/>
    <path id="Path_1287244" data-name="Path 1287244" d="M386.459,161.985h-4.4a.622.622,0,1,0,0,1.244h5.848a.572.572,0,0,0,.58-.479v-5.887a.628.628,0,0,0-1.257,0v4.356l-9.184-9.093a.617.617,0,0,0-.87,0,.6.6,0,0,0,0,.861Z" transform="translate(138.488 13594.513)"/>
    <path id="Path_1287245" data-name="Path 1287245" d="M298.123,310.536a1.645,1.645,0,0,0,0,2.318l2.945,2.945-2.945,2.945a1.639,1.639,0,0,0,2.318,2.318l2.945-2.945,2.945,2.945a1.639,1.639,0,0,0,2.318-2.318l-2.945-2.945,2.945-2.945a1.639,1.639,0,0,0-2.318-2.318l-2.947,2.943-2.945-2.945a1.641,1.641,0,0,0-2.317,0" transform="translate(203.871 13464.237)" fill="#fff"/>
    <path id="Path_1287246" data-name="Path 1287246" d="M278.138,282.993a10.574,10.574,0,0,0-6.749,15.067v0a10.57,10.57,0,0,0,8.446,5.688c.313.028.63.042.952.042a10.566,10.566,0,1,0,0-21.132,10.433,10.433,0,0,0-2.649.333m-2.612,4.97a1.645,1.645,0,0,1,2.318,0l2.943,2.943,2.945-2.945a1.639,1.639,0,0,1,2.319,2.318l-2.945,2.945,2.945,2.945a1.639,1.639,0,0,1-2.319,2.318l-2.945-2.945-2.945,2.945a1.639,1.639,0,1,1-2.318-2.318l2.945-2.945-2.945-2.945a1.641,1.641,0,0,1,0-2.317" transform="translate(226.468 13486.811)" fill="#ef5350" fill-rule="evenodd"/>
    <path id="Path_1287247" data-name="Path 1287247" d="M179.816,126.932a31.227,31.227,0,0,1,11.434.394c1.391,1.287,2.164,7.124,2.164,7.124,1.995-2.31,1.352-7.1,1.352-7.1-.106-3.1-3.176-4.67-3.176-4.67-.053-1.574-2.44-1.811-2.44-1.811-3.1-3.621-6.6-.5-6.6-.5-5.1-1.627-4.109,5.274-4.109,5.274-3.563,3.892-.209,8.73-.209,8.73v-2.389c.146-4.264,1.127-4.964,1.581-5.056" transform="translate(303.438 13621.56)" fill="#754c24" fill-rule="evenodd"/>
    <path id="Path_1287248" data-name="Path 1287248" d="M208.436,247.689m0,6.031a4.2,4.2,0,0,0,4.186-4.186V246.42a7.556,7.556,0,0,1-8.373,0v3.114a4.2,4.2,0,0,0,4.186,4.186" transform="translate(280.824 13516.671)" fill="#f9c5b8"/>
    <path id="Path_1287249" data-name="Path 1287249" d="M192.517,177.7a7.606,7.606,0,0,0,7.591-7.589v-.759s-.773-5.839-2.164-7.124a31.226,31.226,0,0,0-11.434-.394c-.454.093-1.433.792-1.581,5.056v3.223a7.6,7.6,0,0,0,7.587,7.587" transform="translate(296.743 13586.663)" fill="#f9c5b8"/>
    <rect id="Rectangle_414309" data-name="Rectangle 414309" width="8.446" height="8.975" transform="translate(472.22 13781.626)" fill="#f9c5b8"/>
    <path id="Path_1287250" data-name="Path 1287250" d="M285.306,375.828a10.573,10.573,0,0,1-8.446-5.688v5.73h8.446Z" transform="translate(220.997 13414.73)" fill="#f9c5b8"/>
    <path id="Path_1287251" data-name="Path 1287251" d="M148.263,286.915V266.706a4.2,4.2,0,0,1-4.186-4.186v-.34h-3.593a9.291,9.291,0,0,0-9.263,9.263v6.5h8.446v8.975Z" transform="translate(340.998 13503.685)" fill="#ff9d28" fill-rule="evenodd"/>
    <path id="Path_1287252" data-name="Path 1287252" d="M228.03,266.706v20.209h8.6v-5.732a10.574,10.574,0,0,1,6.749-15.067,9.27,9.27,0,0,0-7.566-3.936h-3.593v.34a4.2,4.2,0,0,1-4.186,4.186" transform="translate(261.23 13503.685)" fill="#ff9d28" fill-rule="evenodd"/>
    <path id="Path_1287253" data-name="Path 1287253" d="M162.718,284.883H128.635a.554.554,0,0,1-.555-.555V268.86a9.831,9.831,0,0,1,9.82-9.82h3.593a.555.555,0,0,1,0,1.109H137.9a8.718,8.718,0,0,0-8.709,8.709v14.914H162.5a.544.544,0,0,1,.215-.042.554.554,0,0,1,.555.555v.042a.557.557,0,0,1-.556.556m-1.7-20.8a.557.557,0,0,1-.452-.234,8.733,8.733,0,0,0-7.114-3.7h-3.593a.555.555,0,0,1,0-1.109h3.593a9.843,9.843,0,0,1,8.019,4.17.555.555,0,0,1-.132.773.569.569,0,0,1-.32.1" transform="translate(343.585 13506.272)"/>
    <path id="Path_1287254" data-name="Path 1287254" d="M205.841,251.671a4.746,4.746,0,0,1-4.741-4.741v-3.116a.555.555,0,1,1,1.109,0v3.116a3.63,3.63,0,1,0,7.26,0v-3.116a.555.555,0,1,1,1.109,0v3.116a4.741,4.741,0,0,1-4.737,4.741" transform="translate(283.42 13519.274)"/>
    <path id="Path_1287255" data-name="Path 1287255" d="M189.914,175.628a8.154,8.154,0,0,1-8.144-8.144v-3.243c.12-3.452.8-5.329,2.024-5.581a31.467,31.467,0,0,1,11.684.4.536.536,0,0,1,.238.13c1.495,1.382,2.255,6.843,2.338,7.459a.516.516,0,0,1,.005.072v.759a8.155,8.155,0,0,1-8.145,8.145m-7.035-11.358v3.213a7.035,7.035,0,1,0,14.069,0v-.722c-.283-2.114-1.033-5.676-1.9-6.661a30.782,30.782,0,0,0-11.036-.35c-.009,0-.986.25-1.137,4.521" transform="translate(299.347 13589.286)"/>
    <path id="Path_1287256" data-name="Path 1287256" d="M225.435,306.059a.554.554,0,0,1-.555-.555v-20.21a.555.555,0,1,1,1.109,0V305.5a.554.554,0,0,1-.555.555" transform="translate(263.826 13485.097)"/>
    <path id="Path_1287257" data-name="Path 1287257" d="M176.6,335.35a.554.554,0,0,1-.555-.555V320.845a.555.555,0,1,1,1.109,0V334.8a.554.554,0,0,1-.555.555" transform="translate(304.061 13455.805)"/>
    <path id="Path_1287258" data-name="Path 1287258" d="M137.071,349.679h-8.446a.555.555,0,1,1,0-1.109h8.446a.555.555,0,1,1,0,1.109" transform="translate(343.594 13432.503)"/>
    <path id="Path_1287259" data-name="Path 1287259" d="M274.275,373.821a.554.554,0,0,1-.555-.555v-5.732a.555.555,0,0,1,1.109,0v5.732a.554.554,0,0,1-.555.555" transform="translate(223.584 13417.334)"/>
    <path id="Path_1287260" data-name="Path 1287260" d="M190.817,132.379a.556.556,0,0,1-.421-.917c1.81-2.1,1.229-6.617,1.222-6.663l-.005-.056c-.093-2.723-2.847-4.183-2.875-4.2a.561.561,0,0,1-.3-.475c-.035-1.051-1.922-1.275-1.942-1.276a.556.556,0,0,1-.366-.192,3.972,3.972,0,0,0-2.732-1.549,4.728,4.728,0,0,0-3.074,1.1.553.553,0,0,1-.537.114,2.516,2.516,0,0,0-2.463.18c-1.151.974-1.06,3.568-.928,4.486a.553.553,0,0,1-.139.452c-3.215,3.514-.29,7.857-.164,8.04a.555.555,0,0,1-.912.632,9.806,9.806,0,0,1-1.315-3.1,6.739,6.739,0,0,1,1.4-6.131c-.09-.9-.253-3.883,1.34-5.23a3.379,3.379,0,0,1,3.229-.475,5.7,5.7,0,0,1,3.637-1.183,4.938,4.938,0,0,1,3.357,1.771c1,.151,2.433.708,2.681,1.993a6.4,6.4,0,0,1,3.211,4.966c.056.445.586,5.107-1.486,7.508a.54.54,0,0,1-.419.2" transform="translate(306.035 13624.186)"/>
    <path id="Path_1287261" data-name="Path 1287261" d="M278.2,301.741a11.121,11.121,0,1,1,11.121-11.121A11.132,11.132,0,0,1,278.2,301.741m0-21.132a10.011,10.011,0,1,0,10.011,10.011A10.022,10.022,0,0,0,278.2,280.609" transform="translate(229.055 13489.414)"/>
    <path id="Path_1287262" data-name="Path 1287262" d="M296.682,319.5a2.193,2.193,0,0,1-1.551-3.743l2.553-2.553-2.553-2.553a2.193,2.193,0,0,1,3.1-3.1l2.553,2.553,2.551-2.553a2.193,2.193,0,0,1,3.1,3.1l-2.553,2.553,2.553,2.553a2.193,2.193,0,1,1-3.1,3.1l-2.553-2.553-2.553,2.553a2.179,2.179,0,0,1-1.549.641m4.1-4.531h0a.555.555,0,0,1,.393.164l2.945,2.945a1.084,1.084,0,1,0,1.533-1.533l-2.945-2.945a.556.556,0,0,1,0-.785l2.945-2.945a1.084,1.084,0,0,0-1.533-1.533l-2.945,2.945a.552.552,0,0,1-.785,0l-2.945-2.945a1.086,1.086,0,0,0-1.533,0,1.088,1.088,0,0,0,0,1.532l2.945,2.945a.556.556,0,0,1,0,.785l-2.945,2.945a1.088,1.088,0,0,0,0,1.532,1.086,1.086,0,0,0,1.533,0l2.945-2.945a.555.555,0,0,1,.393-.16" transform="translate(206.471 13466.833)"/>
  </g>
</svg>
