<svg xmlns="http://www.w3.org/2000/svg" width="95" height="95" viewBox="0 0 95 95">
  <g id="Group_1225213" data-name="Group 1225213" transform="translate(5938.411 -2097.898)">
    <rect id="Rectangle_414342" data-name="Rectangle 414342" width="95" height="95" transform="translate(-5938.411 2097.898)" fill="none"/>
    <g id="Group_1225209" data-name="Group 1225209" transform="translate(-9330.836 11847.456)">
      <g id="income_18467423" transform="translate(3395.01 -9746.746)">
        <g id="Group_1176595" data-name="Group 1176595" transform="translate(1.87 1.417)">
          <g id="Group_1176588" data-name="Group 1176588" transform="translate(27.792 0)">
            <path id="Path_1031520" data-name="Path 1031520" d="M215.987,13.5h40.664a1.3,1.3,0,0,1,.941.388l7.448,7.448a1.3,1.3,0,0,1,.388.941V77.968a1.33,1.33,0,0,1-1.328,1.324H215.987a1.329,1.329,0,0,1-1.324-1.324V14.825a1.33,1.33,0,0,1,1.324-1.328Z" transform="translate(-206.701 -13.497)" fill="#d1d1d6" fill-rule="evenodd"/>
            <path id="Path_1031521" data-name="Path 1031521" d="M449.974,14.148a1.29,1.29,0,0,1,.392.27l7.448,7.448a1.27,1.27,0,0,1,.27.388H450.64a.666.666,0,0,1-.667-.662Z" transform="translate(-399.475 -14.03)" fill="#b1b1b5" fill-rule="evenodd"/>
            <path id="Path_1031522" data-name="Path 1031522" d="M171.945,57.543h40.664a1.263,1.263,0,0,1,.936.388l7.448,7.448a1.279,1.279,0,0,1,.388.936V122.01a1.326,1.326,0,0,1-1.324,1.324H171.945a1.327,1.327,0,0,1-1.328-1.324V58.867A1.327,1.327,0,0,1,171.945,57.543Z" transform="translate(-170.617 -49.581)" fill="#eceff1" fill-rule="evenodd"/>
            <path id="Path_1031523" data-name="Path 1031523" d="M171.945,57.543h3.106v65.791h-3.106a1.327,1.327,0,0,1-1.328-1.324V58.867A1.327,1.327,0,0,1,171.945,57.543Z" transform="translate(-170.617 -49.581)" fill="#d1d1d6" fill-rule="evenodd"/>
            <path id="Path_1031524" data-name="Path 1031524" d="M405.953,58.169a1.373,1.373,0,0,1,.388.274l7.448,7.448a1.372,1.372,0,0,1,.274.388h-7.448a.664.664,0,0,1-.662-.662Z" transform="translate(-363.412 -50.094)" fill="#b1b1b5" fill-rule="evenodd"/>
          </g>
          <g id="Group_1176589" data-name="Group 1176589" transform="translate(0 58.852)">
            <path id="Path_1031525" data-name="Path 1031525" d="M41.476,348.49l13.033-7.549c2.447-1.418,4.933-2.423,7.624-1.552,3,.974,7.891,3.06,12.883,3.959a3.621,3.621,0,0,1,2.506,4.336c-.507,1.882-2.093,2.852-4.34,2.506l1.748.279a8.1,8.1,0,0,0,5.586-.974l12.53-7.3c9.741-5.672,11.171,3.056,7.934,5.051l-22.742,14a8.347,8.347,0,0,1-6.752.951l-16.493-4.419-6.112,3.527a2.469,2.469,0,0,1-3.362-.9l-4.941-8.555A2.471,2.471,0,0,1,41.476,348.49Z" transform="translate(-36.024 -339.064)" fill="#f6dccd" fill-rule="evenodd"/>
            <path id="Path_1031526" data-name="Path 1031526" d="M185.214,376.985a3.576,3.576,0,0,1-4.042,1.724c-2.7-.715-5.4-1.445-8.1-2.168a1.356,1.356,0,1,1,.7-2.62Z" transform="translate(-144.014 -367.582)" fill="#f1cbbc" fill-rule="evenodd"/>
            <path id="Path_1031527" data-name="Path 1031527" d="M41.476,348.49l13.033-7.549c2.447-1.418,4.933-2.423,7.624-1.552,1.6.518,3.751,1.359,6.163,2.164l-25.248,14.58-2.471-4.281A2.471,2.471,0,0,1,41.476,348.49Z" transform="translate(-36.024 -339.064)" fill="#f1cbbc" fill-rule="evenodd"/>
            <path id="Path_1031528" data-name="Path 1031528" d="M23.839,366.193l10.338,18.264a1.853,1.853,0,0,1-.7,2.514l-3.519,1.992a1.853,1.853,0,0,1-2.514-.7L17.114,370a1.846,1.846,0,0,1,.7-2.514l3.515-1.991A1.85,1.85,0,0,1,23.839,366.193Z" transform="translate(-16.875 -360.522)" fill="#d1d1d6" fill-rule="evenodd"/>
            <path id="Path_1031529" data-name="Path 1031529" d="M51.1,378.742l1.826,3.233,1.811,3.2a1.849,1.849,0,0,1-.691,2.51l1.257-.711a1.853,1.853,0,0,0,.7-2.514l-1.815-3.209-3.645-6.442-3.649-6.446-1.229-2.168a1.852,1.852,0,0,0-2.149-.856l2.125,3.755,3.645,6.442,1.815,3.205Z" transform="translate(-38.699 -360.522)" fill="#b1b1b5" fill-rule="evenodd"/>
          </g>
          <g id="Group_1176593" data-name="Group 1176593" transform="translate(38.967 26.812)">
            <g id="Group_1176590" data-name="Group 1176590" transform="translate(0 10.47)">
              <path id="Path_1031530" data-name="Path 1031530" d="M233.343,230.9a.9.9,0,0,1-.9-.9v-9.353a.9.9,0,0,1,.9-.9h4.546a.9.9,0,0,1,.9.9V230a.9.9,0,0,1-.9.9Z" transform="translate(-232.439 -219.743)" fill="#fe646f" fill-rule="evenodd"/>
              <path id="Path_1031531" data-name="Path 1031531" d="M253.633,219.743h1.618a.9.9,0,0,1,.9.9V230a.9.9,0,0,1-.9.9h-1.618a.9.9,0,0,0,.9-.9v-9.353A.9.9,0,0,0,253.633,219.743Z" transform="translate(-249.802 -219.743)" fill="#fd4755" fill-rule="evenodd"/>
            </g>
            <g id="Group_1176591" data-name="Group 1176591" transform="translate(10.837 5.234)">
              <path id="Path_1031532" data-name="Path 1031532" d="M293.293,207.171a.9.9,0,0,1-.9-.9V191.678a.9.9,0,0,1,.9-.9h4.546a.9.9,0,0,1,.9.9v14.589a.9.9,0,0,1-.9.9Z" transform="translate(-292.389 -190.774)" fill="#ffe177" fill-rule="evenodd"/>
              <path id="Path_1031533" data-name="Path 1031533" d="M313.583,190.774H315.2a.9.9,0,0,1,.9.9v14.589a.9.9,0,0,1-.9.9h-1.619a.9.9,0,0,0,.9-.9V191.678a.9.9,0,0,0-.9-.9Z" transform="translate(-309.752 -190.774)" fill="#ffd064" fill-rule="evenodd"/>
            </g>
            <g id="Group_1176592" data-name="Group 1176592" transform="translate(21.674)">
              <path id="Path_1031534" data-name="Path 1031534" d="M353.244,183.452a.9.9,0,0,1-.9-.9V162.725a.9.9,0,0,1,.9-.9h4.549a.9.9,0,0,1,.9.9v19.823a.9.9,0,0,1-.9.9Z" transform="translate(-352.34 -161.821)" fill="#6cf5c2" fill-rule="evenodd"/>
              <path id="Path_1031535" data-name="Path 1031535" d="M373.549,161.821h1.618a.9.9,0,0,1,.9.9v19.823a.9.9,0,0,1-.9.9h-1.618a.9.9,0,0,0,.9-.9V162.725A.9.9,0,0,0,373.549,161.821Z" transform="translate(-369.715 -161.821)" fill="#00e499" fill-rule="evenodd"/>
            </g>
          </g>
          <g id="Group_1176594" data-name="Group 1176594" transform="translate(16.926 31.697)">
            <path id="Path_1031536" data-name="Path 1031536" d="M122.441,212.7a11.931,11.931,0,1,1,11.932-11.931A11.953,11.953,0,0,1,122.441,212.7Z" transform="translate(-110.51 -188.842)" fill="#ffc338" fill-rule="evenodd"/>
            <path id="Path_1031537" data-name="Path 1031537" d="M183.8,200.773a11.932,11.932,0,0,0-11.218-11.91c.234-.013.472-.02.71-.02a11.931,11.931,0,1,1,0,23.861c-.238,0-.476-.007-.71-.02A11.932,11.932,0,0,0,183.8,200.773Z" transform="translate(-161.36 -188.842)" fill="#f5b829" fill-rule="evenodd"/>
          </g>
        </g>
        <path id="Path_1031538" data-name="Path 1031538" d="M25.684,87.285l.907,1.6,0,0a3.308,3.308,0,0,1-1.248,4.489l-3.526,2,0,0a3.309,3.309,0,0,1-4.49-1.249L6.957,75.813A3.3,3.3,0,0,1,8.2,71.318l3.53-2h0a3.312,3.312,0,0,1,4.49,1.244l0,0,.717,1.267L26,66.587c2.826-1.634,5.716-2.688,8.82-1.68,2.963.961,7.8,3.033,12.735,3.925a1.435,1.435,0,0,1,.188.047,5.07,5.07,0,0,1,3.461,6.1,5.951,5.951,0,0,1-.24.715,6.769,6.769,0,0,0,1.121-.525l12.572-7.322c4.642-2.7,7.74-2.379,9.492-1.2A5.412,5.412,0,0,1,74.1,75.4L51.29,89.443a9.766,9.766,0,0,1-7.905,1.125h0l-15.97-4.28Zm-7.32-12.935,5.9,10.417,2.226-1.285a1.445,1.445,0,0,1,1.1-.145L44.13,87.773a6.968,6.968,0,0,0,5.641-.792h0L72.585,72.935a2.209,2.209,0,0,0,.875-1.86c.059-2.2-2.157-3.747-7.345-.725L53.543,77.672a9.551,9.551,0,0,1-6.562,1.157h0l-1.558-.254h0l-.059-.011h0c-2.841-.583-5.476-1.441-8.4-2.227a1.446,1.446,0,0,1,.751-2.793c2.845.765,5.41,1.6,8.171,2.175a2.118,2.118,0,0,0,2.535-1.485h0a2.182,2.182,0,0,0-1.479-2.574c-5.043-.928-9.978-3.018-13.005-4h0c-2.294-.745-4.39.225-6.479,1.432Zm-4.657-2.357v0a.41.41,0,0,0-.553-.154l-3.529,2h0a.4.4,0,0,0-.149.55h0L19.843,92.709h0a.408.408,0,0,0,.554.151l3.522-2h0a.408.408,0,0,0,.151-.554Zm-1.152,1.83a1.463,1.463,0,1,1-1.238,1.658,1.463,1.463,0,0,1,1.238-1.658ZM77.189,16.559H37.3V34.987a1.446,1.446,0,1,1-2.892,0V15.113a1.446,1.446,0,0,1,1.446-1.446h6.563V7.1a1.446,1.446,0,0,1,1.446-1.446H86.644a1.446,1.446,0,0,1,1.023.424l8.27,8.277a1.446,1.446,0,0,1,.423,1.022v57.9a1.446,1.446,0,0,1-1.446,1.446H88.351v6.556a1.446,1.446,0,0,1-1.446,1.446H69.387a1.446,1.446,0,0,1,0-2.892H85.459V24.829H78.635a1.446,1.446,0,0,1-1.446-1.446ZM45.307,13.667H78.635a1.445,1.445,0,0,1,1.023.424l8.27,8.27a1.446,1.446,0,0,1,.424,1.023V71.832h5.117V16.827H86.644A1.446,1.446,0,0,1,85.2,15.381V8.55H45.307Zm38.107,8.27L80.081,18.6v3.333Zm8.011-8L88.09,10.6v3.337Zm-41.9,31.9a13.27,13.27,0,1,1-1.609-2.892h5.8a1.446,1.446,0,0,1,1.446,1.446v11.16a1.446,1.446,0,0,1-2.892,0V45.833Zm-12.27,15.22A10.322,10.322,0,1,0,26.933,50.731,10.343,10.343,0,0,0,37.254,61.053ZM35.808,43.7v-.416a1.446,1.446,0,1,1,2.892,0v.4a4.914,4.914,0,0,1,3.351,2.91,1.446,1.446,0,1,1-2.666,1.121,2.334,2.334,0,0,0-3.069-1.142,1.376,1.376,0,0,0-1,1.319,1.126,1.126,0,0,0,.749.957,5.238,5.238,0,0,0,1.433.414c2.218.363,4.625,1.41,4.947,4.047v0c.3,2.514-1.628,4.028-3.745,4.493v.374a1.446,1.446,0,1,1-2.892,0v-.395a4.873,4.873,0,0,1-3.732-3.538,1.446,1.446,0,0,1,2.807-.7,2.309,2.309,0,0,0,2.49,1.52,3.658,3.658,0,0,0,1.49-.339,1.045,1.045,0,0,0,.711-1.068,1.414,1.414,0,0,0-.955-1.109,6.378,6.378,0,0,0-1.587-.433h0c-2.181-.359-4.476-1.491-4.6-4.084h0a4.177,4.177,0,0,1,2.829-4.15,5.279,5.279,0,0,1,.551-.183ZM70.2,27.772A71.049,71.049,0,0,1,48.215,39.946a1.446,1.446,0,1,1-.951-2.731,68.27,68.27,0,0,0,20.8-11.434l-.623.034a1.446,1.446,0,0,1-.159-2.888l4.83-.266a1.446,1.446,0,0,1,1.511,1.652l-.7,4.791a1.446,1.446,0,1,1-2.862-.416ZM51.949,63.749a1.446,1.446,0,1,1,0-2.892H76.492a1.446,1.446,0,1,1,0,2.892Zm0,5.678a1.446,1.446,0,1,1,0-2.892h6.7a1.446,1.446,0,0,1,0,2.892ZM70.484,55.547a1.446,1.446,0,0,1-2.892,0V33.916a1.446,1.446,0,0,1,1.446-1.446h6.356a1.446,1.446,0,0,1,1.446,1.446V55.547a1.446,1.446,0,0,1-2.892,0V35.362H70.484Zm-10.837,0a1.446,1.446,0,1,1-2.892,0V39.15A1.446,1.446,0,0,1,58.2,37.7h6.353A1.446,1.446,0,0,1,66,39.15v16.4a1.446,1.446,0,0,1-2.892,0V40.6H59.647Z" transform="translate(-6.53 -5.658)" fill-rule="evenodd"/>
      </g>
    </g>
  </g>
</svg>
