<svg xmlns="http://www.w3.org/2000/svg" width="95" height="95" viewBox="0 0 95 95">
  <g id="Group_1225212" data-name="Group 1225212" transform="translate(5782.411 -2095.855)">
    <rect id="Rectangle_414343" data-name="Rectangle 414343" width="95" height="95" transform="translate(-5782.411 2095.855)" fill="none"/>
    <g id="Group_1225210" data-name="Group 1225210" transform="translate(-6605.81 107.324)">
      <g id="order_8728986" transform="translate(826.877 1991.421)">
        <path id="Path_1031163" data-name="Path 1031163" d="M86.151,68.155H3.859a1.44,1.44,0,0,1-1.353-1.929L9.014,48H81L87.5,66.226a1.44,1.44,0,0,1-1.353,1.929Z" transform="translate(-0.983 19.624)" fill="#556a8c"/>
        <path id="Path_1031164" data-name="Path 1031164" d="M7,15H78.983V62.509H7Z" transform="translate(1.031 5.115)" fill="#ffd799"/>
        <path id="Path_1031165" data-name="Path 1031165" d="M44.879,17.836v-7.2H42L47.759,2l5.759,8.638H50.638v7.2Z" transform="translate(16.419 -0.6)" fill="#36b385"/>
        <path id="Path_1031166" data-name="Path 1031166" d="M30.879,17.836v-7.2H28L33.759,2l5.759,8.638H36.638v7.2Z" transform="translate(10.264 -0.6)" fill="#36b385"/>
        <path id="Path_1031167" data-name="Path 1031167" d="M16.879,17.836v-7.2H14L19.759,2l5.759,8.638H22.638v7.2Z" transform="translate(4.109 -0.6)" fill="#36b385"/>
        <circle id="Ellipse_12977" data-name="Ellipse 12977" cx="11.517" cy="11.517" r="11.517" transform="translate(13.79 25.874)" fill="#f2f2f2"/>
        <circle id="Ellipse_12978" data-name="Ellipse 12978" cx="3.599" cy="3.599" r="3.599" transform="translate(21.708 31.546)" fill="#eeceb2"/>
        <path id="Path_1031168" data-name="Path 1031168" d="M26.517,36.118a11.445,11.445,0,0,1-11.517,0V31.8a2.879,2.879,0,0,1,2.879-2.879h5.759A2.879,2.879,0,0,1,26.517,31.8Z" transform="translate(4.548 11.236)" fill="#2c96de"/>
        <path id="Path_1031169" data-name="Path 1031169" d="M33,32H47.4V46.4H33Z" transform="translate(12.462 12.59)" fill="#ffb866"/>
        <path id="Path_1031170" data-name="Path 1031170" d="M43,32H57.4V46.4H43Z" transform="translate(16.859 12.59)" fill="#ffb866"/>
        <path id="Path_1031171" data-name="Path 1031171" d="M43,22H57.4V36.4H43Z" transform="translate(16.859 8.193)" fill="#ffb866"/>
        <path id="Path_1031172" data-name="Path 1031172" d="M33,22H47.4V36.4H33Z" transform="translate(12.462 8.193)" fill="#ffb866"/>
        <g id="Group_1176534" data-name="Group 1176534" transform="translate(49.781 30.193)">
          <path id="Path_1031173" data-name="Path 1031173" d="M36,32h5.759v5.759H36Z" transform="translate(-36 -17.603)" fill="#ffd799"/>
          <path id="Path_1031174" data-name="Path 1031174" d="M46,32h5.759v5.759H46Z" transform="translate(-31.603 -17.603)" fill="#ffd799"/>
          <path id="Path_1031175" data-name="Path 1031175" d="M46,22h5.759v5.759H46Z" transform="translate(-31.603 -22)" fill="#ffd799"/>
          <path id="Path_1031176" data-name="Path 1031176" d="M36,22h5.759v5.759H36Z" transform="translate(-36 -22)" fill="#ffd799"/>
        </g>
        <path id="Path_1031177" data-name="Path 1031177" d="M82.876,62.7V16.879A2.879,2.879,0,0,0,80,14H19.53a1.44,1.44,0,1,0,0,2.879H80v44.63h-69.1V16.879h2.879a1.44,1.44,0,0,0,0-2.879H10.892a2.879,2.879,0,0,0-2.879,2.879V62.7l-6.421,18A2.866,2.866,0,0,0,4.3,84.544H77.117a1.44,1.44,0,1,0,0-2.879H4.3L10.46,64.388H80.428L86.59,81.664H82.876a1.44,1.44,0,0,0,0,2.879H86.59A2.866,2.866,0,0,0,89.3,80.7Z" transform="translate(-1.422 4.676)"/>
        <path id="Path_1031178" data-name="Path 1031178" d="M25.44,57a1.44,1.44,0,1,0,0,2.879H45.6A1.44,1.44,0,0,0,45.6,57Z" transform="translate(8.505 23.581)"/>
        <path id="Path_1031179" data-name="Path 1031179" d="M49.634,11.065v5.759a1.44,1.44,0,1,0,2.879,0V12.505h1.44a1.422,1.422,0,0,0,1.195-2.2L49.389,1.664a1.44,1.44,0,0,0-2.39,0L41.241,10.3a1.422,1.422,0,0,0,1.195,2.2h1.44v4.319a1.44,1.44,0,1,0,2.879,0V11.065a1.44,1.44,0,0,0-1.44-1.44h-.187l3.066-4.607,3.066,4.607h-.187A1.44,1.44,0,0,0,49.634,11.065Z" transform="translate(15.984 -1.028)"/>
        <path id="Path_1031180" data-name="Path 1031180" d="M35.634,11.065v5.759a1.44,1.44,0,1,0,2.879,0V12.505h1.44a1.422,1.422,0,0,0,1.195-2.2L35.389,1.664a1.44,1.44,0,0,0-2.39,0L27.241,10.3a1.422,1.422,0,0,0,1.195,2.2h1.44v4.319a1.44,1.44,0,1,0,2.879,0V11.065a1.44,1.44,0,0,0-1.44-1.44h-.187l3.066-4.607,3.066,4.607h-.187A1.44,1.44,0,0,0,35.634,11.065Z" transform="translate(9.829 -1.028)"/>
        <path id="Path_1031181" data-name="Path 1031181" d="M21.634,11.065v5.759a1.44,1.44,0,0,0,2.879,0V12.505h1.44a1.422,1.422,0,0,0,1.195-2.2L21.389,1.664a1.44,1.44,0,0,0-2.39,0L13.241,10.3a1.422,1.422,0,0,0,1.195,2.2h1.44v4.319a1.44,1.44,0,1,0,2.879,0V11.065a1.44,1.44,0,0,0-1.44-1.44h-.187l3.066-4.607,3.066,4.607h-.187a1.44,1.44,0,0,0-1.44,1.44Z" transform="translate(3.673 -1.028)"/>
        <path id="Path_1031182" data-name="Path 1031182" d="M22.957,18A12.957,12.957,0,1,0,35.914,30.957,12.957,12.957,0,0,0,22.957,18ZM18.638,40.041V36.629a1.44,1.44,0,0,1,1.44-1.44h5.759a1.44,1.44,0,0,1,1.44,1.44v3.412A9.891,9.891,0,0,1,18.638,40.041Zm2.16-11.33a2.16,2.16,0,1,1,2.16,2.16A2.16,2.16,0,0,1,20.8,28.711ZM30.155,38V36.629A4.319,4.319,0,0,0,26.4,32.31a5.039,5.039,0,1,0-6.882,0,4.319,4.319,0,0,0-3.758,4.319V38a10.078,10.078,0,1,1,14.4,0Z" transform="translate(2.35 6.434)"/>
        <path id="Path_1031183" data-name="Path 1031183" d="M62.233,52.673a1.44,1.44,0,0,0,1.44-1.44V22.44A1.44,1.44,0,0,0,62.233,21H33.44A1.44,1.44,0,0,0,32,22.44V51.233a1.44,1.44,0,0,0,1.44,1.44Zm-27.354-14.4h1.44V42.6a1.44,1.44,0,0,0,1.44,1.44h5.759a1.44,1.44,0,0,0,1.44-1.44V38.276H46.4V49.793H34.879Zm4.319,0h2.879v2.879H39.2Zm21.6,11.517H49.276V38.276h1.44V42.6a1.44,1.44,0,0,0,1.44,1.44h5.759a1.44,1.44,0,0,0,1.44-1.44V38.276h1.44ZM53.6,38.276h2.879v2.879H53.6Zm7.2-2.879H49.276V23.879h1.44V28.2a1.44,1.44,0,0,0,1.44,1.44h5.759a1.44,1.44,0,0,0,1.44-1.44V23.879h1.44ZM53.6,23.879h2.879v2.879H53.6Zm-14.4,0h2.879v2.879H39.2Zm-4.319,0h1.44V28.2a1.44,1.44,0,0,0,1.44,1.44h5.759a1.44,1.44,0,0,0,1.44-1.44V23.879H46.4V35.4H34.879Z" transform="translate(12.023 7.753)"/>
        <path id="Path_1031184" data-name="Path 1031184" d="M30.716,38H13.44a1.44,1.44,0,1,0,0,2.879H30.716a1.44,1.44,0,1,0,0-2.879Z" transform="translate(3.229 15.228)"/>
        <path id="Path_1031185" data-name="Path 1031185" d="M30.716,42H13.44a1.44,1.44,0,1,0,0,2.879H30.716a1.44,1.44,0,1,0,0-2.879Z" transform="translate(3.229 16.986)"/>
      </g>
    </g>
  </g>
</svg>
