<svg xmlns="http://www.w3.org/2000/svg" xmlns:xlink="http://www.w3.org/1999/xlink" width="95" height="95" viewBox="0 0 95 95">
  <defs>
    <clipPath id="clip-path">
      <rect id="Rectangle_414347" data-name="Rectangle 414347" width="93.984" height="95" fill="none"/>
    </clipPath>
  </defs>
  <g id="Group_1225291" data-name="Group 1225291" transform="translate(1740.981 1234.733)">
    <rect id="Rectangle_414338" data-name="Rectangle 414338" width="95" height="95" transform="translate(-1740.981 -1234.733)" fill="none"/>
    <g id="Group_1225220" data-name="Group 1225220" transform="translate(-1740.473 -1234.733)">
      <g id="Group_1225219" data-name="Group 1225219" clip-path="url(#clip-path)">
        <path id="Path_1287366" data-name="Path 1287366" d="M281.812,289.091a13.782,13.782,0,0,1-5.595-1.161c-3.954-1.734-7.168-5.44-9.293-10.719-1.493-3.707-2.362-10.226-2.381-10.363a8.332,8.332,0,0,1,9.076,5.607c1.216,3.645,3.084,7.515,5.621,8.62,2.918,1.271,6.9.191,11.821-3.211l4.258,6.164C290.436,287.4,285.915,289.091,281.812,289.091Z" transform="translate(-214.999 -216.806)" fill="#ffb09e"/>
        <path id="Path_1287367" data-name="Path 1287367" d="M37.96,324.587c-6.815-3.691-11.66-7.328-14.813-11.118-3.111-3.74-4.507-7.608-4.15-11.5.522-5.682,4.681-10.838,12.362-15.325,5.245-3.064,8.226,3.852,3.672,6.531-3.043,1.79-8.2,5.4-8.575,9.484-.4,4.411,4.952,9.859,15.071,15.34Z" transform="translate(-15.395 -232.339)" fill="#ffb09e"/>
        <path id="Path_1287368" data-name="Path 1287368" d="M116.6,270.427q-.069-.166-.143-.329a9.842,9.842,0,0,0-8.991-5.7H86.915A23.431,23.431,0,0,0,76.7,266.743l-6.333,3.067,5.585,9.214,5.585-2.437v32.361h29.3V281.41l2.041,3.477,6.043-8.881Z" transform="translate(-57.19 -214.884)" fill="#f8d250"/>
        <path id="Path_1287369" data-name="Path 1287369" d="M130.014,321.228v32.361h4.352v-34.26Z" transform="translate(-105.665 -259.526)" fill="#f8ae46"/>
        <path id="Path_1287370" data-name="Path 1287370" d="M186.041,240.837a5.36,5.36,0,0,1-5.36-5.36V223.795H191.4v11.682A5.36,5.36,0,0,1,186.041,240.837Z" transform="translate(-146.843 -181.883)" fill="#ffb09e"/>
        <path id="Path_1287371" data-name="Path 1287371" d="M151.2,5H130.637a16.409,16.409,0,0,0-16.409,16.409v9.6h35.213v-19.1A14.378,14.378,0,0,0,151.2,5Z" transform="translate(-92.836 -4.064)" fill="#494a47"/>
        <path id="Path_1287372" data-name="Path 1287372" d="M135,5h-4.365a16.409,16.409,0,0,0-16.409,16.409v9.6h4.365v-9.6A16.409,16.409,0,0,1,135,5" transform="translate(-92.835 -4.064)" fill="#333331"/>
        <path id="Path_1287373" data-name="Path 1287373" d="M287.679,132.2h-1.213v-7h1.213a3.5,3.5,0,1,1,0,7" transform="translate(-232.817 -101.754)" fill="#ffb09e"/>
        <path id="Path_1287374" data-name="Path 1287374" d="M108.348,132.2h1.213v-7h-1.213a3.5,3.5,0,1,0,0,7" transform="translate(-85.213 -101.754)" fill="#ffb09e"/>
        <path id="Path_1287375" data-name="Path 1287375" d="M142.237,59.655c-4-.9-4.919.8-5.469,3.35-.7,3.228-6.153,2.945-6.224,2.956a14.655,14.655,0,0,0-.529,3.9V80.678a14.65,14.65,0,0,0,29.3,0V69.86a14.609,14.609,0,0,0-.956-5.206c-5.957,1.6-12.123-4.1-16.123-5" transform="translate(-105.666 -48.285)" fill="#ffcebf"/>
        <path id="Path_1287376" data-name="Path 1287376" d="M134.38,80.678V69.86a14.655,14.655,0,0,1,.529-3.9c.071-.011,5.528.272,6.224-2.956.307-1.425.731-2.585,1.742-3.173-.218-.071-.431-.131-.638-.177-4-.9-4.919.8-5.469,3.35-.7,3.228-6.153,2.945-6.224,2.956a14.655,14.655,0,0,0-.529,3.9V80.678a14.656,14.656,0,0,0,16.833,14.487A14.653,14.653,0,0,1,134.38,80.678Z" transform="translate(-105.666 -48.285)" fill="#ffb09e"/>
        <path id="Path_1287377" data-name="Path 1287377" d="M422.614,256.833H414.9v-8.594a3.858,3.858,0,0,1,7.716,0Z" transform="translate(-337.197 -198.614)" fill="#ffcebf"/>
        <path id="Path_1287378" data-name="Path 1287378" d="M390.861,303.451h-8.18a3.774,3.774,0,0,1-3.774-3.774V287.2a3.774,3.774,0,0,1,3.774-3.774h8.18a2.5,2.5,0,0,1,2.5,2.5v15.02a2.5,2.5,0,0,1-2.5,2.5" transform="translate(-307.946 -230.347)" fill="#ffcebf"/>
        <path id="Path_1287379" data-name="Path 1287379" d="M383.272,299.677V287.2a3.774,3.774,0,0,1,3.774-3.774h-4.365a3.774,3.774,0,0,0-3.774,3.774v12.476a3.774,3.774,0,0,0,3.774,3.774h4.365a3.774,3.774,0,0,1-3.774-3.774" transform="translate(-307.946 -230.347)" fill="#ffb09e"/>
        <path id="Path_1287380" data-name="Path 1287380" d="M122.751,439.139h-1.988a3.331,3.331,0,0,1-3.331-3.331v-7.884a3.331,3.331,0,0,1,3.331-3.331h1.988a4.718,4.718,0,0,1,4.718,4.718v5.111a4.718,4.718,0,0,1-4.718,4.718" transform="translate(-95.44 -345.075)" fill="#ffcebf"/>
        <path id="Path_1287381" data-name="Path 1287381" d="M182.125,188.566H181.7a5.854,5.854,0,0,1-5.854-5.854h12.134a5.854,5.854,0,0,1-5.854,5.854" transform="translate(-142.913 -148.494)" fill="#e15f4f"/>
        <path id="Path_1287382" data-name="Path 1287382" d="M360.7,71.56a14.065,14.065,0,1,1-14.065,14.065A14.065,14.065,0,0,1,360.7,71.56" transform="translate(-281.719 -58.158)" fill="#68c0e0"/>
        <path id="Path_1287383" data-name="Path 1287383" d="M350.993,85.625a14.068,14.068,0,0,1,11.887-13.9,14.065,14.065,0,1,0,0,27.793,14.068,14.068,0,0,1-11.887-13.9" transform="translate(-281.719 -58.158)" fill="#3282a1"/>
        <path id="Path_1287384" data-name="Path 1287384" d="M400.286,116.207H396.44v-3.845h-5.157v3.845h-3.845v5.157h3.845v3.845h5.157v-3.845h3.845Z" transform="translate(-314.879 -91.319)" fill="#f8d250"/>
        <path id="Path_1287385" data-name="Path 1287385" d="M272.141,404.931a9.1,9.1,0,1,1-9.1,9.1,9.1,9.1,0,0,1,9.1-9.1" transform="translate(-213.779 -329.096)" fill="#68c0e0"/>
        <path id="Path_1287386" data-name="Path 1287386" d="M267.406,414.031a9.1,9.1,0,0,1,6.917-8.834,9.1,9.1,0,1,0,0,17.669,9.1,9.1,0,0,1-6.917-8.834" transform="translate(-213.779 -329.096)" fill="#3282a1"/>
        <path id="Path_1287387" data-name="Path 1287387" d="M297.751,433.817h-2.488v-2.488h-3.337v2.488h-2.488v3.337h2.488v2.488h3.337v-2.488h2.488Z" transform="translate(-235.233 -350.55)" fill="#f8d250"/>
        <path id="Path_1287388" data-name="Path 1287388" d="M16.008,192.188A11.008,11.008,0,1,1,5,203.2a11.008,11.008,0,0,1,11.008-11.008" transform="translate(-4.064 -156.195)" fill="#68c0e0"/>
        <path id="Path_1287389" data-name="Path 1287389" d="M9.365,203.2a11.011,11.011,0,0,1,8.826-10.791,11.008,11.008,0,1,0,0,21.582A11.011,11.011,0,0,1,9.365,203.2Z" transform="translate(-4.064 -156.195)" fill="#3282a1"/>
        <path id="Path_1287390" data-name="Path 1287390" d="M46.989,227.131h-3.01v-3.01H39.943v3.01h-3.01v4.036h3.01v3.01h4.036v-3.01h3.01Z" transform="translate(-30.016 -182.149)" fill="#f8d250"/>
        <path id="Path_1287391" data-name="Path 1287391" d="M81.559,44.831a4.8,4.8,0,0,0-4.794,4.794v2.518h-2.03a4.716,4.716,0,0,0-4.71,4.71v6.392a7.346,7.346,0,0,1-5.411.166,5.606,5.606,0,0,1-2.08-1.808.935.935,0,0,0,.063-.841l-2.324-5.579c-.05-.119-.1-.237-.155-.356a10.782,10.782,0,0,0-9.844-6.247H45.494V46.557a15.6,15.6,0,0,0,9.091-14.163V31.383h.277a4.434,4.434,0,0,0,2.68-7.968V8.078A15.406,15.406,0,0,0,59.3.936.936.936,0,0,0,58.362,0H37.8A17.365,17.365,0,0,0,20.456,17.345v6.07a4.434,4.434,0,0,0,2.68,7.968h.277v1.011A15.609,15.609,0,0,0,32.9,46.737V48.58H29.724a24.4,24.4,0,0,0-6.07.778,11.945,11.945,0,1,0-15,9.124c-3.616,3.4-5.625,7.1-5.989,11.064-.381,4.147,1.087,8.246,4.362,12.183,3.145,3.781,7.908,7.4,14.546,11.047a4.294,4.294,0,0,0,2.041,1.868.931.931,0,0,0,.73.356h29.3a.935.935,0,0,0,.92-.776,10.036,10.036,0,1,0,.016-18.586V69.972l.3.505a.937.937,0,0,0,1.582.053l.63-.926a15.132,15.132,0,0,0,3.748,2.378,14.772,14.772,0,0,0,5.971,1.24,17.883,17.883,0,0,0,4.539-.62,4.7,4.7,0,0,0,3.384,1.438h8.18A3.442,3.442,0,0,0,86.354,70.6V49.625A4.8,4.8,0,0,0,81.559,44.831Zm-2.921,4.794a2.922,2.922,0,0,1,5.843,0v2.9a3.411,3.411,0,0,0-1.566-.381H78.638V49.625ZM54.862,29.51h-.277V24.384h.277a2.563,2.563,0,0,1,0,5.126Zm-31.727,0a2.563,2.563,0,0,1,0-5.126h.277V29.51ZM24.956,16.74a1.172,1.172,0,0,0-.224.011.936.936,0,0,0-.758.676,15.621,15.621,0,0,0-.562,4.147v.936h-.277a4.441,4.441,0,0,0-.807.075V17.345A15.49,15.49,0,0,1,37.8,1.873H57.393A13.537,13.537,0,0,1,51.6,12.046a.936.936,0,1,0,1.067,1.539,15.354,15.354,0,0,0,3-2.733V22.586a4.44,4.44,0,0,0-.807-.075h-.277v-.936a15.52,15.52,0,0,0-1.017-5.539.936.936,0,0,0-1.117-.572c-3.6.964-7.4-1.059-10.756-2.843a21.939,21.939,0,0,0-4.919-2.165c-1.976-.445-3.457-.328-4.529.357a5.423,5.423,0,0,0-2.061,3.71C29.716,16.7,25.746,16.754,24.956,16.74Zm.329,15.653V21.575a13.738,13.738,0,0,1,.326-2.97c1.922-.069,5.74-.6,6.405-3.688.308-1.429.667-2.161,1.239-2.527a4.3,4.3,0,0,1,3.11-.108,20.941,20.941,0,0,1,4.451,1.991c3.25,1.728,7.243,3.851,11.265,3.184a13.658,13.658,0,0,1,.632,4.117V32.394a13.714,13.714,0,1,1-27.427,0ZM39,47.98a15.536,15.536,0,0,0,4.622-.7v6.314a4.424,4.424,0,1,1-8.847,0v-6.2A15.538,15.538,0,0,0,39,47.98ZM1.873,47A10.072,10.072,0,1,1,11.944,57.073,10.083,10.083,0,0,1,1.873,47m6.6,33.531C5.526,76.99,4.2,73.351,4.535,69.717,4.889,65.863,7.058,62.242,11,58.9c.313.025.628.041.947.041a11.961,11.961,0,0,0,2.425-.248l1.939,3.2c-2.851,2.076-5.878,5.025-6.179,8.341-.373,4.107,3.388,8.74,10.927,13.536v6.563c-5.688-3.259-9.817-6.478-12.584-9.8m14.941-1.5a4.287,4.287,0,0,0-2.183,2.613c-6.213-4.119-9.521-8.092-9.235-11.24.238-2.62,2.9-5.139,5.29-6.9l.679,1.12A.936.936,0,0,0,19.138,65l4.274-1.865v15.9Zm-.484,3.814a2.4,2.4,0,0,1,2.395-2.395h1.988a3.786,3.786,0,0,1,3.781,3.781v5.112a3.786,3.786,0,0,1-3.781,3.781H25.324a2.4,2.4,0,0,1-2.395-2.395Zm43.6,2.086a8.163,8.163,0,1,1-8.163-8.163,8.173,8.173,0,0,1,8.163,8.163M55.748,68.253l-1.291-2.2a.936.936,0,0,0-1.744.474V76.645a10.024,10.024,0,0,0-.137,16.483H31.511a5.632,5.632,0,0,0,1.455-3.781V84.235a5.661,5.661,0,0,0-5.654-5.654H25.286V61.7a.936.936,0,0,0-1.311-.858l-4.835,2.11-2.914-4.806a12.007,12.007,0,0,0,6.787-6.666,22.6,22.6,0,0,1,6.711-1.03H32.9v3.141a6.3,6.3,0,1,0,12.593,0V50.453h4.781A8.9,8.9,0,0,1,58.412,55.6q.068.151.132.3l2.129,5.111Zm11.065,3.1a12.913,12.913,0,0,1-5.219-1.082,13.354,13.354,0,0,1-3.442-2.218l3.283-4.825a6.93,6.93,0,0,0,2.431,1.9,8.784,8.784,0,0,0,6.159.074V69.33a4.69,4.69,0,0,0,.281,1.6A15.693,15.693,0,0,1,66.813,71.349ZM84.481,70.6a1.567,1.567,0,0,1-1.566,1.566h-8.18A2.841,2.841,0,0,1,71.9,69.33V56.854a2.841,2.841,0,0,1,2.837-2.837h8.18a1.567,1.567,0,0,1,1.566,1.566Z"/>
        <path id="Path_1287392" data-name="Path 1287392" d="M184.852,178.649a.936.936,0,0,0-.936-.936H171.781a.936.936,0,0,0-.936.936,6.8,6.8,0,0,0,6.79,6.791h.426a6.8,6.8,0,0,0,6.791-6.791m-12.045.936h10.082a4.926,4.926,0,0,1-4.828,3.981h-.426a4.926,4.926,0,0,1-4.828-3.981" transform="translate(-138.849 -144.431)"/>
        <path id="Path_1287393" data-name="Path 1287393" d="M160.851,128.628a.967.967,0,1,1-.967.967.967.967,0,0,1,.967-.967" transform="translate(-129.941 -104.539)"/>
        <path id="Path_1287394" data-name="Path 1287394" d="M247.236,128.628a.967.967,0,1,0,.967.967.967.967,0,0,0-.967-.967" transform="translate(-200.148 -104.539)"/>
        <path id="Path_1287395" data-name="Path 1287395" d="M149.9,105.1a.936.936,0,1,0,1.2-1.439,5.44,5.44,0,0,0-7.544.248.937.937,0,0,0,1.334,1.315,3.606,3.606,0,0,1,5.011-.124" transform="translate(-116.453 -83.104)"/>
        <path id="Path_1287396" data-name="Path 1287396" d="M230.613,105.5a.937.937,0,0,0,.662-.273,3.59,3.59,0,0,1,5.015-.128.936.936,0,1,0,1.2-1.439,5.44,5.44,0,0,0-7.544.248.936.936,0,0,0,.668,1.591Z" transform="translate(-186.663 -83.103)"/>
        <path id="Path_1287397" data-name="Path 1287397" d="M356.637,66.56a15,15,0,1,0,15,15,15.019,15.019,0,0,0-15-15m0,28.13a13.129,13.129,0,1,1,13.129-13.129A13.144,13.144,0,0,1,356.637,94.69" transform="translate(-277.654 -54.095)"/>
        <path id="Path_1287398" data-name="Path 1287398" d="M396.222,111.207h-2.909V108.3a.936.936,0,0,0-.936-.936H387.22a.936.936,0,0,0-.936.936v2.909h-2.909a.936.936,0,0,0-.936.936V117.3a.936.936,0,0,0,.936.936h2.909v2.909a.936.936,0,0,0,.936.936h5.157a.936.936,0,0,0,.936-.936v-2.909h2.909a.936.936,0,0,0,.936-.936v-5.157a.936.936,0,0,0-.936-.936m-.936,5.157h-2.909a.936.936,0,0,0-.936.936v2.909h-3.284V117.3a.936.936,0,0,0-.936-.936h-2.909V113.08h2.909a.936.936,0,0,0,.936-.936v-2.909h3.284v2.909a.936.936,0,0,0,.936.936h2.909Z" transform="translate(-310.816 -87.255)"/>
        <path id="Path_1287399" data-name="Path 1287399" d="M285.375,434.027h1.551v1.551a.936.936,0,0,0,.936.936H291.2a.936.936,0,0,0,.936-.936v-1.551h1.551a.936.936,0,0,0,.936-.936v-3.336a.936.936,0,0,0-.936-.936h-1.551v-1.551a.936.936,0,0,0-.936-.936h-3.337a.936.936,0,0,0-.936.936v1.551h-1.551a.936.936,0,0,0-.936.936v3.336a.936.936,0,0,0,.936.936m.936-3.337h1.551a.936.936,0,0,0,.936-.936V428.2h1.464v1.551a.936.936,0,0,0,.936.936h1.551v1.464H291.2a.936.936,0,0,0-.936.936v1.551H288.8V433.09a.936.936,0,0,0-.936-.936h-1.551Z" transform="translate(-231.17 -346.488)"/>
        <path id="Path_1287400" data-name="Path 1287400" d="M40.853,230.114v-2.073h2.073a.936.936,0,0,0,.936-.936v-4.036a.936.936,0,0,0-.936-.936H40.853v-2.073a.936.936,0,0,0-.936-.936H35.88a.936.936,0,0,0-.936.936v2.073H32.87a.936.936,0,0,0-.936.936V227.1a.936.936,0,0,0,.936.936h2.073v2.073a.936.936,0,0,0,.936.936h4.036a.936.936,0,0,0,.936-.936M38.98,227.1v2.073H36.816V227.1a.936.936,0,0,0-.936-.936H33.807V224H35.88a.936.936,0,0,0,.936-.936v-2.073H38.98v2.073a.936.936,0,0,0,.936.936h2.073v2.163H39.916a.936.936,0,0,0-.936.936" transform="translate(-25.953 -178.085)"/>
      </g>
    </g>
  </g>
</svg>
