<svg xmlns="http://www.w3.org/2000/svg" width="95" height="95" viewBox="0 0 95 95">
  <g id="Group_1225301" data-name="Group 1225301" transform="translate(2453.964 1290.781)">
    <rect id="Rectangle_414409" data-name="Rectangle 414409" width="95" height="95" transform="translate(-2453.964 -1290.781)" fill="none"/>
    <g id="Group_1225300" data-name="Group 1225300" transform="translate(-111 -19.859)">
      <path id="Path_1287461" data-name="Path 1287461" d="M287.619,220.451h-9.83v1.923a3.349,3.349,0,1,1-6.7,0v-1.921H246.158v1.923a3.349,3.349,0,1,1-6.7,0v-1.921h-9.831a4.559,4.559,0,0,0-4.557,4.557v4.559h67.108v-4.558a4.559,4.559,0,0,0-4.558-4.558" transform="translate(-2560.204 -1479.401)" fill="red" fill-rule="evenodd"/>
      <path id="Path_1287462" data-name="Path 1287462" d="M460.311,220.451h-9.83v1.923a3.349,3.349,0,1,1-6.7,0v-1.921h-1.246a86.832,86.832,0,0,0-8.591,9.116H464.87v-4.558a4.559,4.559,0,0,0-4.558-4.558" transform="translate(-2732.897 -1479.401)" fill="red" fill-rule="evenodd"/>
      <path id="Path_1287463" data-name="Path 1287463" d="M417.459,360.477a24.853,24.853,0,1,0,24.852,24.853,24.852,24.852,0,0,0-24.852-24.853" transform="translate(-2698.719 -1595.171)" fill="#bcbcbb" fill-rule="evenodd"/>
      <path id="Path_1287464" data-name="Path 1287464" d="M225.07,358.48a4.559,4.559,0,0,0,4.559,4.557H252.49a32,32,0,0,1,.624-36.88h-5.488a1.146,1.146,0,0,1-1.143-1.143v-6.289a1.146,1.146,0,0,1,1.143-1.143h6.289a1.146,1.146,0,0,1,1.143,1.143v5.029q.613-.687,1.263-1.338a32.021,32.021,0,0,1,35.856-6.514v-4.157H225.07Z" transform="translate(-2560.204 -1554.881)" fill="#fff" fill-rule="evenodd"/>
      <path id="Path_1287465" data-name="Path 1287465" d="M316.6,394.945a104.715,104.715,0,0,0-8.9,36.88h13.106a32,32,0,0,1,.624-36.88Z" transform="translate(-2628.523 -1623.669)" fill="#fff" fill-rule="evenodd"/>
      <path id="Path_1287466" data-name="Path 1287466" d="M384.289,317.582h1.264a1.146,1.146,0,0,1,1.143,1.143v5.029q.613-.687,1.263-1.338a32.022,32.022,0,0,1,35.856-6.514v-4.158h-35.9q-1.909,2.832-3.629,5.838" transform="translate(-2691.842 -1554.88)" fill="#fff" fill-rule="evenodd"/>
      <path id="Path_1287467" data-name="Path 1287467" d="M269.3,519.075h-6.289a1.146,1.146,0,0,0-1.143,1.143v6.289a1.146,1.146,0,0,0,1.143,1.143H269.3a1.146,1.146,0,0,0,1.143-1.143v-6.289a1.146,1.146,0,0,0-1.143-1.143" transform="translate(-2590.627 -1726.296)" fill-rule="evenodd"/>
      <path id="Path_1287468" data-name="Path 1287468" d="M269.3,432.259h-6.289a1.146,1.146,0,0,0-1.143,1.143v6.289a1.146,1.146,0,0,0,1.143,1.143H269.3a1.146,1.146,0,0,0,1.143-1.143V433.4a1.146,1.146,0,0,0-1.143-1.143" transform="translate(-2590.627 -1654.519)" fill-rule="evenodd"/>
      <path id="Path_1287469" data-name="Path 1287469" d="M269.3,345.443h-6.289a1.146,1.146,0,0,0-1.143,1.143v6.289a1.146,1.146,0,0,0,1.143,1.143H269.3a1.146,1.146,0,0,0,1.143-1.143v-6.289a1.146,1.146,0,0,0-1.143-1.143" transform="translate(-2590.627 -1582.742)" fill-rule="evenodd"/>
      <path id="Path_1287470" data-name="Path 1287470" d="M266.9,187.4V167.872a11.259,11.259,0,0,0-11.257-11.258h-9.83v-1.922a3.35,3.35,0,0,0-6.7,0v1.921H214.182v-1.922a3.35,3.35,0,0,0-6.7,0v1.921h-9.83a11.26,11.26,0,0,0-11.258,11.259v57.989a11.259,11.259,0,0,0,11.256,11.259h28.978A31.994,31.994,0,1,0,266.9,187.4m-73.806-19.525a4.559,4.559,0,0,1,4.557-4.557h9.831v1.921a3.349,3.349,0,1,0,6.7,0v-1.923h24.932v1.921a3.349,3.349,0,1,0,6.7,0v-1.923h9.83a4.56,4.56,0,0,1,4.558,4.558v4.558H193.094Zm22.556,25.67h5.488a32,32,0,0,0-.624,36.88H197.652a4.559,4.559,0,0,1-4.559-4.558V179.13H260.2v4.157a32.021,32.021,0,0,0-35.856,6.514q-.651.651-1.263,1.338V186.11a1.146,1.146,0,0,0-1.143-1.143H215.65a1.146,1.146,0,0,0-1.143,1.143V192.4a1.146,1.146,0,0,0,1.143,1.143m31.318,43.735a24.853,24.853,0,1,1,24.852-24.853,24.776,24.776,0,0,1-24.852,24.853" transform="translate(-2528.228 -1422.266)" fill-rule="evenodd"/>
      <path id="Path_1287471" data-name="Path 1287471" d="M522.6,426.783v-11.03a3.571,3.571,0,1,0-7.142,0l.008,12.325a3.551,3.551,0,0,0,.843,2.3l11.068,13.08a3.562,3.562,0,1,0,5.439-4.6Z" transform="translate(-2800.292 -1637.92)" fill-rule="evenodd"/>
    </g>
  </g>
</svg>
