<svg xmlns="http://www.w3.org/2000/svg" xmlns:xlink="http://www.w3.org/1999/xlink" width="95" height="95" viewBox="0 0 95 95">
  <defs>
    <clipPath id="clip-path">
      <rect id="Rectangle_414351" data-name="Rectangle 414351" width="94.995" height="95" fill="none"/>
    </clipPath>
  </defs>
  <g id="Group_1225293" data-name="Group 1225293" transform="translate(2372.981 1234.733)">
    <rect id="Rectangle_414336" data-name="Rectangle 414336" width="95" height="95" transform="translate(-2372.981 -1234.733)" fill="none"/>
    <g id="Group_1225224" data-name="Group 1225224" transform="translate(-2372.981 -1234.733)">
      <g id="Group_1225223" data-name="Group 1225223" clip-path="url(#clip-path)">
        <path id="Path_1287410" data-name="Path 1287410" d="M40.458,59.676H58.226a5.984,5.984,0,0,1,5.8,4.533l1.859,7.435h52.36a2.992,2.992,0,0,1,2.992,2.992v41.888a5.984,5.984,0,0,1-5.984,5.984H43.45a5.984,5.984,0,0,1-5.984-5.984V62.668a2.992,2.992,0,0,1,2.992-2.992" transform="translate(-27.369 -43.594)" fill="#ffe180"/>
        <path id="Path_1287411" data-name="Path 1287411" d="M130.417,88.3H82.545L81.8,85.306l-3.74-1.5L76.2,77.871a5.856,5.856,0,0,0-.61-1.481,5.791,5.791,0,0,0-.706-.06H57.113a2.992,2.992,0,0,0-2.992,2.992V128.69a5.984,5.984,0,0,0,5.984,5.984h67.32a5.984,5.984,0,0,0,5.984-5.984V91.29a2.992,2.992,0,0,0-2.992-2.992" transform="translate(-39.536 -55.76)" fill="#f9d162"/>
        <rect id="Rectangle_414349" data-name="Rectangle 414349" width="56.848" height="56.848" transform="translate(25.057 1.122)" fill="#bee8ff"/>
        <rect id="Rectangle_414350" data-name="Rectangle 414350" width="53.856" height="53.856" transform="translate(28.049 4.114)" fill="#abddfe"/>
        <path id="Path_1287412" data-name="Path 1287412" d="M112.662,26.368H70.774V83.216h56.848V41.328Z" transform="translate(-51.701 -19.262)" fill="#f6fbff"/>
        <path id="Path_1287413" data-name="Path 1287413" d="M120.773,26.368h-38.9V83.216h53.856V41.328Z" transform="translate(-59.812 -19.262)" fill="#e9f4ff"/>
        <path id="Path_1287414" data-name="Path 1287414" d="M226.21,26.368l14.96,14.96H226.21Z" transform="translate(-165.249 -19.262)" fill="#cfe6f9"/>
        <path id="Path_1287415" data-name="Path 1287415" d="M86.224,137.394a2.992,2.992,0,0,1,2.926,2.365l7.694,35.9a2.992,2.992,0,0,1-2.925,3.619H14.847a2.992,2.992,0,0,1-2.926-2.365l-7.694-35.9a2.992,2.992,0,0,1,2.924-3.619Z" transform="translate(-3.039 -100.368)" fill="#fff2a5"/>
        <path id="Path_1287416" data-name="Path 1287416" d="M111.619,187.828l-6.732-31.416a2.992,2.992,0,0,0-2.925-2.365H27.378a2.993,2.993,0,0,0-2.926,3.619l6.732,31.416a2.992,2.992,0,0,0,2.926,2.365h74.584a2.993,2.993,0,0,0,2.925-3.619" transform="translate(-17.814 -112.533)" fill="#ffe180"/>
        <path id="Path_1287417" data-name="Path 1287417" d="M192.7,226.214a16.456,16.456,0,1,1-16.456,16.456A16.456,16.456,0,0,1,192.7,226.214" transform="translate(-128.752 -165.252)" fill="#53c99b"/>
        <path id="Path_1287418" data-name="Path 1287418" d="M207.975,241.48a16.419,16.419,0,0,0-13.454,25.881,16.448,16.448,0,0,0,22.889-22.889,16.326,16.326,0,0,0-9.435-2.992" transform="translate(-139.909 -176.404)" fill="#6fd6af"/>
        <path id="Path_1287419" data-name="Path 1287419" d="M217.344,259.048,203.591,272.8l-6.348-6.347,3.175-3.173,3.173,3.173,10.578-10.578Z" transform="translate(-144.089 -186.92)" fill="#f6fbff"/>
        <path id="Path_1287420" data-name="Path 1287420" d="M68.489,266.461H49.752a1.122,1.122,0,0,0,0,2.244H68.489a1.122,1.122,0,0,0,0-2.244" transform="translate(-35.525 -194.653)"/>
        <path id="Path_1287421" data-name="Path 1287421" d="M64.837,245.379a1.122,1.122,0,0,0-1.122-1.122H44.972a1.122,1.122,0,1,0,0,2.244H63.715a1.122,1.122,0,0,0,1.122-1.122" transform="translate(-32.033 -178.433)"/>
        <path id="Path_1287422" data-name="Path 1287422" d="M94.9,75.055l-.112-.527a6.67,6.67,0,0,0,.205-1.6V31.041a4.117,4.117,0,0,0-4.114-4.114H83.027V1.121A1.122,1.122,0,0,0,81.9,0H25.057a1.122,1.122,0,0,0-1.122,1.122V5.983H19.073a1.122,1.122,0,0,0-1.122,1.122v7.854H13.089a4.117,4.117,0,0,0-4.114,4.114V35.9H4.113A4.118,4.118,0,0,0,.092,40.885l7.692,35.9a4.114,4.114,0,0,0,4.023,3.246H46.569a17.58,17.58,0,0,0,34.767,0h9.544a4.118,4.118,0,0,0,4.021-4.98M26.179,2.243h54.6V35.9h-3.74V22.065a1.119,1.119,0,0,0-.329-.793L61.753,6.312a1.118,1.118,0,0,0-.793-.329H26.179Zm47.033,18.7H62.083V9.814ZM20.195,8.227H59.839V22.065a1.122,1.122,0,0,0,1.122,1.122H74.8V35.9h-54.6ZM11.219,19.073a1.873,1.873,0,0,1,1.87-1.87h4.862V35.9H11.219ZM63.953,92.751A15.334,15.334,0,1,1,79.286,77.417,15.334,15.334,0,0,1,63.953,92.751m26.928-14.96H81.526v-.374a17.578,17.578,0,0,0-35.156,0v.374H11.807a1.872,1.872,0,0,1-1.828-1.478l-7.694-35.9a1.87,1.87,0,0,1,1.828-2.262H83.187a1.871,1.871,0,0,1,1.828,1.478l7.694,35.9a1.87,1.87,0,0,1-1.828,2.262m1.87-12.776-5.535-25.86A4.114,4.114,0,0,0,83.193,35.9h-.166V29.171h7.854a1.873,1.873,0,0,1,1.87,1.87Z" transform="translate(0 0.001)"/>
        <path id="Path_1287423" data-name="Path 1287423" d="M89.938,46.654h29.92a1.122,1.122,0,0,0,0-2.244H89.938a1.122,1.122,0,0,0,0,2.244" transform="translate(-64.881 -32.442)"/>
        <path id="Path_1287424" data-name="Path 1287424" d="M89.938,68.859h29.92a1.122,1.122,0,0,0,0-2.244H89.938a1.122,1.122,0,0,0,0,2.244" transform="translate(-64.881 -48.663)"/>
        <path id="Path_1287425" data-name="Path 1287425" d="M89.938,91.064h29.92a1.122,1.122,0,0,0,0-2.244H89.938a1.122,1.122,0,0,0,0,2.244" transform="translate(-64.881 -64.884)"/>
        <path id="Path_1287426" data-name="Path 1287426" d="M134.818,111.025H89.938a1.122,1.122,0,1,0,0,2.244h44.88a1.122,1.122,0,0,0,0-2.244" transform="translate(-64.881 -81.105)"/>
        <path id="Path_1287427" data-name="Path 1287427" d="M211.926,252.041a1.122,1.122,0,0,0-1.587,0h0l-9.785,9.785-2.38-2.38a1.122,1.122,0,0,0-1.587,0h0l-3.173,3.173a1.123,1.123,0,0,0,0,1.586l6.348,6.347a1.12,1.12,0,0,0,1.585,0h0L215.1,256.808a1.123,1.123,0,0,0,0-1.586Zm-11.372,16.137-4.76-4.762,1.587-1.586,2.38,2.378a1.121,1.121,0,0,0,1.585,0h0l9.791-9.794L212.725,256Z" transform="translate(-141.051 -183.879)"/>
      </g>
    </g>
  </g>
</svg>
