<svg xmlns="http://www.w3.org/2000/svg" xmlns:xlink="http://www.w3.org/1999/xlink" width="95" height="95" viewBox="0 0 95 95">
  <defs>
    <clipPath id="clip-path">
      <rect id="Rectangle_414348" data-name="Rectangle 414348" width="77.798" height="95" fill="none"/>
    </clipPath>
  </defs>
  <g id="Group_1225292" data-name="Group 1225292" transform="translate(2056.981 1234.733)">
    <rect id="Rectangle_414337" data-name="Rectangle 414337" width="95" height="95" transform="translate(-2056.981 -1234.733)" fill="none"/>
    <g id="Group_1225222" data-name="Group 1225222" transform="translate(-2048.38 -1234.733)">
      <g id="Group_1225221" data-name="Group 1225221" clip-path="url(#clip-path)">
        <path id="Path_1287401" data-name="Path 1287401" d="M53.057,208.887l.13-.074a6.875,6.875,0,0,1,9.394,2.518l.171.3a32.193,32.193,0,0,0,10.207-16.858h-.087a6.878,6.878,0,0,1-6.878-6.878v-.15a6.878,6.878,0,0,1,6.878-6.878h.3A32.145,32.145,0,0,0,63.6,163.787a6.87,6.87,0,0,1-9.323,2.4l-.13-.074a6.88,6.88,0,0,1-2.518-9.4l.006-.009a32.358,32.358,0,0,0-19.289-.234,6.876,6.876,0,0,1-2.724,9.008l-.13.076a6.876,6.876,0,0,1-9.268-2.308,32.185,32.185,0,0,0-9.888,16.376,6.876,6.876,0,0,1,6.347,6.856v.15A6.877,6.877,0,0,1,10,193.5a32.143,32.143,0,0,0,9.171,16.92,6.875,6.875,0,0,1,9.225-2.239l.13.074a6.88,6.88,0,0,1,2.518,9.4l-.048.083a32.354,32.354,0,0,0,19.534.54,6.879,6.879,0,0,1,2.52-9.39Z" transform="translate(-8.146 -126.335)" fill="#5ecef4"/>
        <path id="Path_1287402" data-name="Path 1287402" d="M110.673,238.134a15.5,15.5,0,1,1-.017-.011" transform="translate(-68.441 -191.874)" fill="#fff"/>
        <path id="Path_1287403" data-name="Path 1287403" d="M153.309,297.433a7.438,7.438,0,1,1-7.439-7.438,7.439,7.439,0,0,1,7.439,7.438" transform="translate(-112.747 -236.189)" fill="#ff415b"/>
        <path id="Path_1287404" data-name="Path 1287404" d="M263.57,17.576l-.258-1.588L269,10.3l4.358,16.81-6.811,11.233-.878-5.954" transform="translate(-214.457 -8.385)" fill="#e1fd9f"/>
        <path id="Path_1287405" data-name="Path 1287405" d="M280.772,97.036l21.213-7.062,2.625-7.609-17.022,3.44-6.817,11.229Z" transform="translate(-228.677 -67.083)" fill="#e1fd9f"/>
        <path id="Path_1287406" data-name="Path 1287406" d="M64.722,174.259h.3a1.862,1.862,0,0,0,1.824-2.234,33.832,33.832,0,0,0-10.129-18.062,1.861,1.861,0,0,0-2.865.4,4.976,4.976,0,0,1-1.484,1.562,1.862,1.862,0,0,0,2.082,3.087,8.525,8.525,0,0,0,1.139-.917,30.075,30.075,0,0,1,7.13,12.672,8.754,8.754,0,0,0-6.741,8.509v.15a8.752,8.752,0,0,0,6.472,8.44,30.09,30.09,0,0,1-7.572,12.494,8.755,8.755,0,0,0-10.776-1.623l-.13.074a8.757,8.757,0,0,0-4.1,9.715,30.541,30.541,0,0,1-14.515-.417,8.756,8.756,0,0,0-4.045-9.926l-.13-.076a8.725,8.725,0,0,0-10.238,1.089A30.1,30.1,0,0,1,4.112,186.56a8.685,8.685,0,0,0,6.288-8.394v-.15a8.786,8.786,0,0,0-5.885-8.257,30.129,30.129,0,0,1,7.4-12.255,8.7,8.7,0,0,0,10.362,1.2l.13-.074A8.762,8.762,0,0,0,26.6,149.3a30.5,30.5,0,0,1,14.391.156,8.656,8.656,0,0,0-.262,1.551,1.862,1.862,0,0,0,3.713.291,4.976,4.976,0,0,1,.661-2.117,1.861,1.861,0,0,0-1.03-2.7,34.2,34.2,0,0,0-20.4-.247,1.861,1.861,0,0,0-1.132,2.611,5.023,5.023,0,0,1-1.985,6.568l-.13.074A4.994,4.994,0,0,1,13.66,153.8a1.862,1.862,0,0,0-2.815-.4A33.887,33.887,0,0,0,.388,170.719a1.863,1.863,0,0,0,1.666,2.3,5.034,5.034,0,0,1,4.627,5v.15a4.988,4.988,0,0,1-4.872,5.011A1.86,1.86,0,0,0,.033,185.4a33.859,33.859,0,0,0,9.7,17.9,1.863,1.863,0,0,0,2.865-.33,5.007,5.007,0,0,1,6.728-1.633l.13.076a5.021,5.021,0,0,1,1.837,6.85l-.05.085a1.862,1.862,0,0,0,1,2.69,34.224,34.224,0,0,0,20.664.571,1.861,1.861,0,0,0,1.1-2.718,5.02,5.02,0,0,1,1.839-6.848l.13-.074a5.022,5.022,0,0,1,6.852,1.835l.171.3a1.862,1.862,0,0,0,2.835.473,33.842,33.842,0,0,0,10.795-17.834,1.859,1.859,0,0,0-1.811-2.29h-.087a5.021,5.021,0,0,1-5.015-5.015v-.15a5.022,5.022,0,0,1,5.015-5.017Z" transform="translate(0 -117.93)"/>
        <path id="Path_1287407" data-name="Path 1287407" d="M137.608,14.01a1.863,1.863,0,0,0-1.77-.6l-15.3,3.093L116.622,1.395A1.86,1.86,0,0,0,113.5.547l-5.692,5.692a1.865,1.865,0,0,0-.521,1.614l.258,1.588a1.862,1.862,0,0,0,3.676-.6l-.1-.649,2.716-2.716,3.343,12.9L114.9,22.138l-1.445,2.384-.124-.842a1.861,1.861,0,0,0-3.683.544l.781,5.292-8.617,14.212a19.423,19.423,0,0,0-8.008-1.915,1.961,1.961,0,0,0-.258-.02,1.713,1.713,0,0,0-.219.015,22.957,22.957,0,0,0-6.956,1.29,1.861,1.861,0,1,0,1.239,3.509,20.431,20.431,0,0,1,4.073-.957v2.214a1.861,1.861,0,1,0,3.722,0v-2.2a15.763,15.763,0,0,1,4.462,1.271l-3.343,5.512a9.33,9.33,0,1,0,3.18,1.935l3.343-5.512a15.884,15.884,0,0,1,5.9,10.472h-2.2a1.861,1.861,0,0,0,0,3.722h2.2A15.7,15.7,0,0,1,95.407,76.737v-2.2a1.861,1.861,0,0,0-3.722,0v2.236A15.7,15.7,0,0,1,77.838,63.059h2.23a1.861,1.861,0,1,0,0-3.722H77.844a15.113,15.113,0,0,1,1.013-3.813A1.861,1.861,0,0,0,75.4,54.133,18.334,18.334,0,0,0,74,61.2a19.415,19.415,0,0,0,19.33,19.393,2.072,2.072,0,0,0,.217.013,1.791,1.791,0,0,0,.245-.019,19.416,19.416,0,0,0,18.994-19.066,1.849,1.849,0,0,0,.03-.323,1.814,1.814,0,0,0-.032-.332A19.589,19.589,0,0,0,105,45.659l8.611-14.2,20.565-6.845a1.861,1.861,0,0,0,1.171-1.16l2.625-7.609a1.862,1.862,0,0,0-.358-1.833ZM98.973,61.2a5.568,5.568,0,1,1-4.442-5.46l-2.726,4.5a1.863,1.863,0,0,0,.625,2.557,1.843,1.843,0,0,0,.963.271,1.862,1.862,0,0,0,1.594-.9l2.724-4.492A5.542,5.542,0,0,1,98.973,61.2Zm33.149-39.828L116.59,26.537l3.765-6.2L133.387,17.7Z" transform="translate(-60.272 0)"/>
        <path id="Path_1287408" data-name="Path 1287408" d="M260.274,82.147a1.86,1.86,0,1,0,2.247-2.965l-.048-.037a1.861,1.861,0,0,0-2.247,2.967l.048.037Z" transform="translate(-211.342 -64.152)"/>
        <path id="Path_1287409" data-name="Path 1287409" d="M105.363,254.4l-.048-.035a1.861,1.861,0,0,0-2.251,2.965l.048.037a1.862,1.862,0,1,0,2.252-2.965Z" transform="translate(-83.343 -206.858)"/>
      </g>
    </g>
  </g>
</svg>
