<svg xmlns="http://www.w3.org/2000/svg" xmlns:xlink="http://www.w3.org/1999/xlink" width="90" height="90" viewBox="0 0 90 90">
  <defs>
    <clipPath id="clip-path">
      <rect id="Rectangle_414498" data-name="Rectangle 414498" width="90" height="90" transform="translate(805.781 2555)" fill="#fff" stroke="#707070" stroke-width="1"/>
    </clipPath>
  </defs>
  <g id="Mask_Group_1099320" data-name="Mask Group 1099320" transform="translate(-805.781 -2555)" clip-path="url(#clip-path)">
    <g id="Group_1225855" data-name="Group 1225855" transform="translate(0 572.946)">
      <g id="Rectangle_414497" data-name="Rectangle 414497" transform="translate(806.951 1984)" fill="#fd9826" stroke="#af6a1a" stroke-width="3">
        <rect width="70" height="70" rx="10" stroke="none"/>
        <rect x="1.5" y="1.5" width="67" height="67" rx="8.5" fill="none"/>
      </g>
      <g id="Group_1227201" data-name="Group 1227201" transform="translate(-688.527 470.273)">
        <path id="Path_1289081" data-name="Path 1289081" d="M41.779,25.78l10.666,4.66,10.789-4.66L52.445,21.244Z" transform="translate(1519.068 1535.412)" fill="#487c52" stroke="#000" stroke-linecap="round" stroke-linejoin="round" stroke-width="2" stroke-dasharray="80 10"/>
        <path id="Path_1289082" data-name="Path 1289082" d="M50.58,29.646V40.311l10.789-4.536V24.987Z" transform="translate(1520.933 1536.205)" fill="#77c88d" stroke="#000" stroke-linecap="round" stroke-linejoin="round" stroke-width="2" stroke-dasharray="80 10"/>
        <path id="Path_1289083" data-name="Path 1289083" d="M52.445,29.646V40.312L41.779,35.776V24.986Z" transform="translate(1519.067 1536.205)" fill="#62a571" stroke="#000" stroke-linecap="round" stroke-linejoin="round" stroke-width="2" stroke-dasharray="80 10"/>
        <rect id="Rectangle_414550" data-name="Rectangle 414550" width="9.195" height="9.195" transform="translate(1539.392 1567.322)" fill="#77c88d" stroke="#000" stroke-linecap="round" stroke-linejoin="round" stroke-width="2" stroke-dasharray="80 10"/>
        <rect id="Rectangle_414551" data-name="Rectangle 414551" width="9.195" height="9.195" transform="translate(1539.392 1551.996)" fill="#bbe9f9" stroke="#000" stroke-linecap="round" stroke-linejoin="round" stroke-width="2" stroke-dasharray="80 10"/>
        <rect id="Rectangle_414552" data-name="Rectangle 414552" width="9.195" height="9.195" transform="translate(1539.392 1582.646)" fill="#bbe9f9" stroke="#000" stroke-linecap="round" stroke-linejoin="round" stroke-width="2" stroke-dasharray="80 10"/>
        <rect id="Rectangle_414553" data-name="Rectangle 414553" width="9.195" height="9.195" transform="translate(1539.392 1536.672)" fill="#77c88d" stroke="#000" stroke-linecap="round" stroke-linejoin="round" stroke-width="2" stroke-dasharray="80 10"/>
        <rect id="Rectangle_414554" data-name="Rectangle 414554" width="16.919" height="7.724" transform="translate(1510.213 1587.305)" fill="#77c88d" stroke="#000" stroke-linecap="round" stroke-linejoin="round" stroke-width="2" stroke-dasharray="80 10"/>
        <rect id="Rectangle_414555" data-name="Rectangle 414555" width="16.919" height="7.724" transform="translate(1510.213 1559.72)" fill="#77c88d" stroke="#000" stroke-linecap="round" stroke-linejoin="round" stroke-width="2" stroke-dasharray="80 10"/>
        <rect id="Rectangle_414556" data-name="Rectangle 414556" width="16.919" height="7.724" transform="translate(1510.213 1545.866)" fill="#bbe9f9" stroke="#000" stroke-linecap="round" stroke-linejoin="round" stroke-width="2" stroke-dasharray="80 10"/>
        <rect id="Rectangle_414557" data-name="Rectangle 414557" width="16.919" height="7.724" transform="translate(1510.213 1573.451)" fill="#bbe9f9" stroke="#000" stroke-linecap="round" stroke-linejoin="round" stroke-width="2" stroke-dasharray="80 10"/>
        <rect id="Rectangle_414558" data-name="Rectangle 414558" width="16.919" height="7.724" transform="translate(1510.213 1532.136)" fill="#77c88d" stroke="#000" stroke-linecap="round" stroke-linejoin="round" stroke-width="2" stroke-dasharray="80 10"/>
        <rect id="Rectangle_414559" data-name="Rectangle 414559" width="3.065" height="3.065" transform="translate(1553.123 1587.305)" fill="#9e6133"/>
        <rect id="Rectangle_414560" data-name="Rectangle 414560" width="3.065" height="3.064" transform="translate(1553.123 1581.175)" fill="#9e6133"/>
        <rect id="Rectangle_414561" data-name="Rectangle 414561" width="3.065" height="3.064" transform="translate(1553.123 1575.046)" fill="#9e6133"/>
        <rect id="Rectangle_414562" data-name="Rectangle 414562" width="3.065" height="3.065" transform="translate(1553.123 1568.915)" fill="#9e6133"/>
        <rect id="Rectangle_414563" data-name="Rectangle 414563" width="3.065" height="3.065" transform="translate(1553.123 1562.785)" fill="#9e6133"/>
        <rect id="Rectangle_414564" data-name="Rectangle 414564" width="3.065" height="3.065" transform="translate(1553.123 1556.655)" fill="#9e6133"/>
        <rect id="Rectangle_414565" data-name="Rectangle 414565" width="3.065" height="3.065" transform="translate(1553.123 1550.525)" fill="#9e6133"/>
        <rect id="Rectangle_414566" data-name="Rectangle 414566" width="3.065" height="3.064" transform="translate(1553.123 1544.396)" fill="#9e6133"/>
        <rect id="Rectangle_414567" data-name="Rectangle 414567" width="3.065" height="3.065" transform="translate(1553.123 1538.266)" fill="#9e6133"/>
        <path id="Path_1289084" data-name="Path 1289084" d="M19.232,65.221A1.158,1.158,0,0,1,18.006,64V1.225a1.226,1.226,0,0,1,2.453,0V64.118a1.209,1.209,0,0,1-1.226,1.1" transform="translate(1514.029 1530.91)" fill="#9e6133" stroke="#000" stroke-linecap="round" stroke-linejoin="round" stroke-width="1" stroke-dasharray="80 10"/>
      </g>
    </g>
  </g>
</svg>
